# Blender 4.4.1
# www.blender.org
mtllib FixedEnemy.mtl
o Cube
v -1.000000 -0.000000 1.000000
v -1.000000 -1.000000 1.000000
v -1.000000 0.000000 -0.649540
v -1.000000 -1.000000 -0.649540
v 1.000000 -0.000000 1.000000
v 1.000000 -1.000000 1.000000
v 1.000000 0.000000 -0.649540
v 1.000000 -1.000000 -0.649540
v 0.000000 -1.000000 1.000000
v -0.000000 0.000000 -0.649540
v -0.000000 -1.000000 -0.649540
v 0.000000 -0.000000 1.000000
v 1.000000 -1.000000 -0.000000
v -1.000000 -0.000000 0.497099
v 1.000000 -0.000000 0.497099
v -1.000000 -1.000000 0.000000
v -0.000000 -1.000000 -0.000000
v 0.500000 -1.000000 1.000000
v 0.791964 0.000000 -0.649540
v 0.500000 -1.000000 -0.649540
v 0.791964 -0.000000 1.000000
v 0.500000 -1.000000 -0.000000
v 0.791964 0.000000 -0.000000
v -0.500000 -1.000000 -0.649540
v -0.791964 -0.000000 1.000000
v -0.500000 -1.000000 1.000000
v -0.791964 0.000000 -0.649540
v -0.791964 0.000000 0.000000
v -0.500000 -1.000000 -0.000000
v 1.000000 -1.000000 -0.500000
v -1.000000 0.000000 -0.500000
v -0.000000 -1.000000 -0.500000
v -0.000000 0.000000 -0.500000
v 1.000000 0.000000 -0.500000
v -1.000000 -1.000000 -0.500000
v 0.500000 -1.000000 -0.500000
v 0.791964 0.000000 -0.500000
v -0.791964 0.000000 -0.500000
v -0.500000 -1.000000 -0.500000
v 1.000000 -0.000000 0.997099
v -1.000000 -1.000000 0.500000
v 1.000000 -1.000000 0.500000
v -1.000000 -0.000000 0.997099
v 0.000000 -1.000000 0.500000
v 0.000000 -0.000000 0.997913
v 0.791964 -0.000000 0.997913
v 0.500000 -1.000000 0.500000
v -0.500000 -1.000000 0.500000
v -0.791964 -0.000000 0.997913
v -1.000000 -0.500000 1.000000
v 1.000000 -0.500000 -0.649540
v -1.000000 -0.500000 -0.649540
v 1.000000 -0.500000 1.000000
v 0.000000 -0.500000 1.000000
v -0.000000 -0.500000 -0.649540
v -1.000000 -0.500000 0.000000
v 1.000000 -0.500000 -0.000000
v 0.500000 -0.500000 1.000000
v 0.500000 -0.500000 -0.649540
v -0.500000 -0.500000 -0.649540
v -0.500000 -0.500000 1.000000
v 1.000000 -0.500000 -0.500000
v -1.000000 -0.500000 -0.500000
v -1.000000 -0.500000 0.500000
v 1.000000 -0.500000 0.500000
v 1.000000 -0.250000 -0.649540
v -1.000000 -0.250000 1.000000
v -1.000000 -0.250000 -0.649540
v 1.000000 -0.250000 1.000000
v 0.000000 -0.250000 1.000000
v -0.000000 -0.250000 -0.649540
v -1.000000 -0.250000 0.000000
v 1.000000 -0.250000 -0.000000
v 0.500000 -0.250000 1.000000
v 0.500000 -0.250000 -0.649540
v -0.500000 -0.250000 -0.649540
v -0.500000 -0.250000 1.000000
v 1.000000 -0.250000 -0.500000
v -1.000000 -0.250000 -0.500000
v -1.000000 -0.250000 0.500000
v 1.000000 -0.250000 0.500000
v -1.000000 -0.750000 1.000000
v -1.000000 -0.750000 -0.649540
v 1.000000 -0.750000 1.000000
v 0.000000 -0.750000 1.000000
v -0.000000 -0.750000 -0.649540
v -1.000000 -0.750000 0.000000
v 1.000000 -0.750000 -0.000000
v 0.500000 -0.750000 1.000000
v 0.500000 -0.750000 -0.649540
v -0.500000 -0.750000 -0.649540
v -0.500000 -0.750000 1.000000
v 1.000000 -0.750000 -0.500000
v -1.000000 -0.750000 -0.500000
v -1.000000 -0.750000 0.500000
v 1.000000 -0.750000 0.500000
v 1.000000 -0.750000 -0.649540
v -1.000000 0.999911 0.500000
v -1.000000 0.999911 0.000000
v 1.000000 0.999911 -0.500000
v 1.000000 0.999911 -0.000000
v -0.791964 0.999911 0.000000
v 0.791964 0.999911 0.000000
v 0.791964 0.999911 0.500000
v -0.791964 0.999911 0.500000
v -1.000000 0.999911 -0.500000
v 0.791964 0.999911 -0.500000
v -0.791964 0.999911 -0.500000
v 1.000000 0.999911 0.500000
v -0.000000 1.690297 -0.646054
v -0.000000 0.599074 -0.242883
v 0.791964 1.305307 -0.965088
v 0.791964 1.690297 -0.646054
v -0.791964 1.305307 -0.965088
v -0.791964 1.690297 -0.646054
v -0.000000 0.920317 -1.284122
v 0.791964 0.920317 -1.284122
v -0.791964 0.920317 -1.284122
v 0.250000 -1.000000 -0.649540
v 0.395982 -0.000000 1.000000
v 0.250000 -1.000000 1.000000
v 0.395982 0.000000 -0.649540
v 0.250000 -1.000000 -0.000000
v 0.395982 0.000000 -0.500000
v 0.250000 -1.000000 -0.500000
v 0.395982 -0.000000 0.997913
v 0.250000 -1.000000 0.500000
v 0.250000 -0.500000 -0.649540
v 0.250000 -0.500000 1.000000
v 0.250000 -0.250000 -0.649540
v 0.250000 -0.250000 1.000000
v 0.250000 -0.750000 1.000000
v 0.250000 -0.750000 -0.649540
v 0.395982 0.599074 -0.242883
v 0.395982 0.920317 -1.284122
v 0.395982 1.690297 -0.646054
v -0.250000 -1.000000 1.000000
v -0.395982 0.000000 -0.649540
v -0.250000 -1.000000 -0.000000
v -0.250000 -1.000000 -0.649540
v -0.395982 -0.000000 1.000000
v -0.250000 -1.000000 -0.500000
v -0.395982 0.000000 -0.500000
v -0.250000 -1.000000 0.500000
v -0.395982 -0.000000 0.997913
v -0.250000 -0.500000 1.000000
v -0.250000 -0.500000 -0.649540
v -0.250000 -0.250000 1.000000
v -0.250000 -0.250000 -0.649540
v -0.250000 -0.750000 -0.649540
v -0.250000 -0.750000 1.000000
v -0.395982 0.599074 -0.242883
v -0.395982 0.920317 -1.284122
v -0.395982 1.690297 -0.646054
v 1.000000 -1.000000 0.250000
v -1.000000 -0.000000 0.747099
v 0.000000 -1.000000 0.250000
v 0.791964 -0.000000 0.498957
v 0.500000 -1.000000 0.250000
v -0.500000 -1.000000 0.250000
v -0.791964 -0.000000 0.498957
v 1.000000 -0.000000 0.747099
v -1.000000 -1.000000 0.250000
v 1.000000 -0.500000 0.250000
v -1.000000 -0.500000 0.250000
v 1.000000 -0.250000 0.250000
v -1.000000 -0.250000 0.250000
v -1.000000 -0.750000 0.250000
v 1.000000 -0.750000 0.250000
v -1.000000 0.999911 0.250000
v 0.791964 0.999911 0.250000
v -0.791964 0.999911 0.250000
v 1.000000 0.999911 0.250000
v -0.000000 0.791569 -0.083366
v 0.791964 1.497802 -0.805571
v -0.791964 1.497802 -0.805571
v 0.395982 0.791569 -0.083366
v 0.250000 -1.000000 0.250000
v -0.395982 0.791569 -0.083366
v -0.250000 -1.000000 0.250000
v 1.000000 0.000000 -0.001450
v -1.000000 -1.000000 -0.250000
v 1.000000 -1.000000 -0.250000
v -1.000000 0.000000 -0.001450
v -0.000000 -1.000000 -0.250000
v 0.500000 -1.000000 -0.250000
v 0.791964 0.000000 -0.250000
v -0.791964 0.000000 -0.250000
v -0.500000 -1.000000 -0.250000
v -1.000000 -0.500000 -0.250000
v 1.000000 -0.500000 -0.250000
v -1.000000 -0.250000 -0.250000
v 1.000000 -0.250000 -0.250000
v 1.000000 -0.750000 -0.250000
v -1.000000 -0.750000 -0.250000
v 1.000000 0.999911 -0.250000
v -1.000000 0.999911 -0.250000
v 0.791964 0.999911 -0.250000
v -0.791964 0.999911 -0.250000
v -0.000000 0.406579 -0.402400
v 0.791964 1.112812 -1.124605
v -0.791964 1.112812 -1.124605
v 0.395982 0.406579 -0.402400
v 0.250000 -1.000000 -0.250000
v -0.395982 0.406579 -0.402400
v -0.250000 -1.000000 -0.250000
v 0.375000 -1.000000 1.000000
v 0.593973 0.000000 -0.649540
v 0.375000 -1.000000 -0.000000
v 0.375000 -1.000000 -0.500000
v 0.375000 -1.000000 0.500000
v 0.375000 -0.500000 -0.649540
v 0.375000 -0.250000 -0.649540
v 0.375000 -0.750000 -0.649540
v 0.375000 -1.000000 -0.649540
v 0.593973 -0.000000 1.000000
v 0.593973 0.000000 -0.500000
v 0.593973 -0.000000 0.997913
v 0.375000 -0.500000 1.000000
v 0.375000 -0.250000 1.000000
v 0.375000 -0.750000 1.000000
v 0.593973 1.305307 -0.965088
v 0.593973 0.920317 -1.284122
v 0.593973 1.690297 -0.646054
v 0.375000 -1.000000 0.250000
v 0.593973 1.497802 -0.805571
v 0.375000 -1.000000 -0.250000
v 0.593973 1.112812 -1.124605
v -0.375000 -1.000000 -0.649540
v -0.593973 -0.000000 1.000000
v -0.593973 0.000000 -0.500000
v -0.593973 -0.000000 0.997913
v -0.375000 -0.500000 1.000000
v -0.375000 -0.250000 1.000000
v -0.375000 -0.750000 1.000000
v -0.593973 1.305307 -0.965088
v -0.593973 0.920317 -1.284122
v -0.593973 1.690297 -0.646054
v -0.375000 -1.000000 1.000000
v -0.593973 0.000000 -0.649540
v -0.375000 -1.000000 -0.000000
v -0.375000 -1.000000 -0.500000
v -0.375000 -1.000000 0.500000
v -0.375000 -0.500000 -0.649540
v -0.375000 -0.250000 -0.649540
v -0.375000 -0.750000 -0.649540
v -0.593973 1.497802 -0.805571
v -0.375000 -1.000000 0.250000
v -0.593973 1.112812 -1.124605
v -0.375000 -1.000000 -0.250000
v 1.000000 -0.000000 0.872099
v -1.000000 -1.000000 0.375000
v 1.000000 -0.500000 0.375000
v 1.000000 -0.250000 0.375000
v 1.000000 -0.750000 0.375000
v 1.000000 0.999911 0.375000
v 1.000000 -1.000000 0.375000
v -1.000000 -0.000000 0.872099
v 0.000000 -1.000000 0.375000
v 0.791964 -0.000000 0.748435
v 0.500000 -1.000000 0.375000
v -0.500000 -1.000000 0.375000
v -0.791964 -0.000000 0.748435
v -1.000000 -0.500000 0.375000
v -1.000000 -0.250000 0.375000
v -1.000000 -0.750000 0.375000
v -1.000000 0.999911 0.375000
v 0.791964 0.999911 0.375000
v -0.791964 0.999911 0.375000
v -0.000000 1.594050 -0.725812
v 0.791964 1.594050 -0.725812
v -0.791964 1.594050 -0.725812
v 0.395982 1.594050 -0.725812
v 0.250000 -1.000000 0.375000
v -0.395982 1.594050 -0.725812
v -0.250000 -1.000000 0.375000
v 0.593973 1.594050 -0.725812
v 0.375000 -1.000000 0.375000
v -0.375000 -1.000000 0.375000
v -0.593973 1.594050 -0.725812
v 1.000000 -1.000000 -0.375000
v -1.000000 0.000000 -0.250725
v -0.000000 -1.000000 -0.375000
v 0.500000 -1.000000 -0.375000
v 0.791964 0.000000 -0.375000
v -0.791964 0.000000 -0.375000
v -0.500000 -1.000000 -0.375000
v -1.000000 -0.500000 -0.375000
v -1.000000 -0.250000 -0.375000
v -1.000000 -0.750000 -0.375000
v -1.000000 0.999911 -0.375000
v 0.791964 0.999911 -0.375000
v -0.791964 0.999911 -0.375000
v -0.000000 1.016565 -1.204364
v 0.791964 1.016565 -1.204364
v -0.791964 1.016565 -1.204364
v 0.395982 1.016565 -1.204364
v 0.250000 -1.000000 -0.375000
v -0.395982 1.016565 -1.204364
v -0.250000 -1.000000 -0.375000
v 1.000000 0.000000 -0.250725
v -1.000000 -1.000000 -0.375000
v 1.000000 -0.500000 -0.375000
v 1.000000 -0.250000 -0.375000
v 1.000000 -0.750000 -0.375000
v 1.000000 0.999911 -0.375000
v 0.375000 -1.000000 -0.375000
v 0.593973 1.016565 -1.204364
v -0.593973 1.016565 -1.204364
v -0.375000 -1.000000 -0.375000
vn -0.0000 1.0000 -0.0000
vn -0.0000 -0.0000 -1.0000
vn 1.0000 -0.0000 -0.0000
vn -0.0000 -1.0000 -0.0000
vn -1.0000 -0.0000 -0.0000
vn -0.0000 -0.0000 1.0000
vn -0.0000 -0.6485 -0.7612
vn -0.0000 0.6972 0.7169
vn -0.0009 0.4453 0.8954
vn -0.0026 0.4456 0.8952
vn -0.0000 0.4452 0.8954
vn 0.0009 0.4453 0.8954
vn 0.0026 0.4456 0.8952
vn 0.0035 0.4457 0.8952
vn -0.0000 0.6381 -0.7700
vn 0.9812 0.1231 -0.1486
vn -0.0000 -0.6250 -0.7806
vn -0.0000 -0.6250 -0.7807
vn -0.9812 0.1231 -0.1486
vn -0.5259 -0.5316 -0.6640
vn -0.5335 0.6732 0.5120
vn -0.0000 0.7959 0.6054
vn -0.0035 0.4457 0.8952
vn 0.5259 -0.5316 -0.6640
vn 0.5335 0.6732 0.5120
vt 0.875000 0.687500
vt 0.812500 0.750000
vt 0.812500 0.687500
vt 0.625000 0.937500
vt 0.562500 1.000000
vt 0.562500 0.937500
vt 0.625000 0.187500
vt 0.562500 0.250000
vt 0.562500 0.187500
vt 0.375000 0.687500
vt 0.312500 0.750000
vt 0.312500 0.687500
vt 0.625000 0.687500
vt 0.562500 0.750000
vt 0.562500 0.687500
vt 0.625000 0.437500
vt 0.562500 0.500000
vt 0.562500 0.437500
vt 0.562500 0.343750
vt 0.625000 0.375000
vt 0.562500 0.375000
vt 0.250000 0.687500
vt 0.218750 0.750000
vt 0.218750 0.687500
vt 0.562500 0.843750
vt 0.625000 0.875000
vt 0.562500 0.875000
vt 0.750000 0.687500
vt 0.718750 0.750000
vt 0.718750 0.687500
vt 0.781250 0.687500
vt 0.250000 0.593750
vt 0.218750 0.625000
vt 0.218750 0.593750
vt 0.562500 0.593750
vt 0.625000 0.625000
vt 0.562500 0.625000
vt 0.375000 0.593750
vt 0.312500 0.625000
vt 0.312500 0.593750
vt 0.625000 0.093750
vt 0.562500 0.125000
vt 0.562500 0.093750
vt 0.625000 0.125000
vt 0.625000 0.156250
vt 0.750000 0.562500
vt 0.718750 0.562500
vt 0.187500 0.593750
vt 0.125000 0.625000
vt 0.125000 0.593750
vt 0.187500 0.687500
vt 0.125000 0.750000
vt 0.125000 0.687500
vt 0.625000 0.312500
vt 0.562500 0.312500
vt 0.625000 0.921875
vt 0.562500 0.921875
vt 0.796875 0.750000
vt 0.796875 0.687500
vt 0.296875 0.625000
vt 0.296875 0.593750
vt 0.625000 0.562500
vt 0.687500 0.562500
vt 0.687500 0.687500
vt 0.625000 0.750000
vt 0.625000 0.812500
vt 0.562500 0.812500
vt 0.625000 0.421875
vt 0.562500 0.421875
vt 0.296875 0.750000
vt 0.296875 0.687500
vt 0.312500 0.671875
vt 0.296875 0.671875
vt 0.812500 0.578125
vt 0.812500 0.562500
vt 0.812500 0.671875
vt 0.187500 0.671875
vt 0.125000 0.671875
vt 0.625000 0.000000
vt 0.562500 0.062500
vt 0.562500 0.000000
vt 0.796875 0.562500
vt 0.250000 0.671875
vt 0.218750 0.671875
vt 0.562500 0.671875
vt 0.375000 0.671875
vt 0.625000 0.578125
vt 0.625000 0.500000
vt 0.312500 0.500000
vt 0.296875 0.562500
vt 0.296875 0.500000
vt 0.187500 0.500000
vt 0.125000 0.562500
vt 0.125000 0.500000
vt 0.812500 0.500000
vt 0.796875 0.500000
vt 0.875000 0.500000
vt 0.375000 0.500000
vt 0.312500 0.562500
vt 0.562500 0.562500
vt 0.250000 0.500000
vt 0.218750 0.562500
vt 0.218750 0.500000
vt 0.750000 0.500000
vt 0.718750 0.500000
vt 0.625000 0.171875
vt 0.562500 0.171875
vt 0.500000 0.171875
vt 0.437500 0.187500
vt 0.437500 0.171875
vt 0.500000 0.500000
vt 0.437500 0.562500
vt 0.437500 0.500000
vt 0.500000 0.671875
vt 0.437500 0.687500
vt 0.437500 0.671875
vt 0.500000 0.000000
vt 0.437500 0.062500
vt 0.437500 0.000000
vt 0.500000 0.421875
vt 0.437500 0.437500
vt 0.437500 0.421875
vt 0.500000 0.750000
vt 0.437500 0.812500
vt 0.437500 0.750000
vt 0.500000 0.921875
vt 0.437500 0.937500
vt 0.437500 0.921875
vt 0.500000 0.250000
vt 0.437500 0.312500
vt 0.437500 0.250000
vt 0.500000 0.093750
vt 0.437500 0.125000
vt 0.437500 0.093750
vt 0.500000 0.593750
vt 0.437500 0.625000
vt 0.437500 0.593750
vt 0.500000 0.843750
vt 0.437500 0.875000
vt 0.437500 0.843750
vt 0.500000 0.343750
vt 0.437500 0.375000
vt 0.437500 0.343750
vt 0.500000 0.437500
vt 0.500000 0.687500
vt 0.500000 0.187500
vt 0.500000 0.937500
vt 0.437500 1.000000
vt 0.500000 0.562500
vt 0.500000 0.062500
vt 0.500000 0.812500
vt 0.500000 0.312500
vt 0.500000 0.125000
vt 0.500000 0.625000
vt 0.500000 0.875000
vt 0.500000 0.375000
vt 0.500000 1.000000
vt 0.375000 1.000000
vt 0.375000 0.937500
vt 0.375000 0.250000
vt 0.375000 0.187500
vt 0.375000 0.750000
vt 0.375000 0.437500
vt 0.375000 0.375000
vt 0.375000 0.343750
vt 0.375000 0.875000
vt 0.375000 0.843750
vt 0.375000 0.625000
vt 0.375000 0.125000
vt 0.375000 0.093750
vt 0.375000 0.312500
vt 0.375000 0.921875
vt 0.375000 0.812500
vt 0.375000 0.421875
vt 0.375000 0.062500
vt 0.375000 0.000000
vt 0.375000 0.562500
vt 0.375000 0.171875
vt 0.875000 0.593750
vt 0.812500 0.625000
vt 0.812500 0.593750
vt 0.687500 0.593750
vt 0.625000 0.593750
vt 0.687500 0.671875
vt 0.625000 0.671875
vt 0.875000 0.671875
vt 0.875000 0.562500
vt 0.625000 0.062500
vt 0.625000 0.078125
vt 0.812500 0.656250
vt 0.625000 0.656250
vt 0.687500 0.625000
vt 0.750000 0.593750
vt 0.718750 0.625000
vt 0.718750 0.593750
vt 0.796875 0.625000
vt 0.796875 0.593750
vt 0.796875 0.671875
vt 0.750000 0.671875
vt 0.718750 0.671875
vt 0.687500 0.656250
vt 0.687500 0.578125
vt 0.703125 0.687500
vt 0.781250 0.671875
vt 0.781250 0.593750
vt 0.750000 0.625000
vt 0.375000 0.906250
vt 0.437500 0.328125
vt 0.375000 0.328125
vt 0.562500 0.328125
vt 0.500000 0.328125
vt 0.500000 0.906250
vt 0.437500 0.906250
vt 0.203125 0.562500
vt 0.203125 0.500000
vt 0.781250 0.500000
vt 0.203125 0.687500
vt 0.203125 0.671875
vt 0.781250 0.562500
vt 0.750000 0.750000
vt 0.562500 0.906250
vt 0.203125 0.625000
vt 0.203125 0.593750
vt 0.203125 0.750000
vt 0.625000 0.343750
vt 0.703125 0.671875
vt 0.703125 0.625000
vt 0.703125 0.593750
vt 0.375000 0.406250
vt 0.437500 0.828125
vt 0.375000 0.828125
vt 0.562500 0.828125
vt 0.500000 0.828125
vt 0.500000 0.406250
vt 0.437500 0.406250
vt 0.703125 0.562500
vt 0.703125 0.500000
vt 0.281250 0.500000
vt 0.250000 0.562500
vt 0.281250 0.671875
vt 0.281250 0.687500
vt 0.250000 0.750000
vt 0.562500 0.406250
vt 0.281250 0.593750
vt 0.250000 0.625000
vt 0.703125 0.750000
vt 0.625000 0.843750
vt 0.281250 0.578125
vt 0.250000 0.578125
vt 0.718750 0.578125
vt 0.703125 0.578125
vt 0.218750 0.578125
vt 0.203125 0.578125
vt 0.781250 0.578125
vt 0.750000 0.578125
vt 0.796875 0.578125
vt 0.875000 0.578125
vt 0.375000 0.156250
vt 0.437500 0.578125
vt 0.375000 0.578125
vt 0.562500 0.578125
vt 0.500000 0.578125
vt 0.500000 0.156250
vt 0.437500 0.156250
vt 0.562500 0.156250
vt 0.312500 0.578125
vt 0.296875 0.578125
vt 0.187500 0.578125
vt 0.125000 0.578125
vt 0.281250 0.625000
vt 0.250000 0.656250
vt 0.703125 0.656250
vt 0.203125 0.656250
vt 0.781250 0.625000
vt 0.750000 0.656250
vt 0.718750 0.656250
vt 0.796875 0.656250
vt 0.875000 0.625000
vt 0.375000 0.656250
vt 0.437500 0.078125
vt 0.375000 0.078125
vt 0.562500 0.078125
vt 0.500000 0.078125
vt 0.500000 0.656250
vt 0.437500 0.656250
vt 0.312500 0.656250
vt 0.562500 0.656250
vt 0.218750 0.656250
vt 0.187500 0.625000
vt 0.125000 0.656250
vt 0.296875 0.656250
vt 0.781250 0.656250
vt 0.187500 0.656250
vt 0.625000 0.328125
vt 0.187500 0.750000
vt 0.187500 0.562500
vt 0.781250 0.750000
vt 0.625000 0.906250
vt 0.281250 0.656250
vt 0.625000 0.828125
vt 0.687500 0.750000
vt 0.687500 0.500000
vt 0.281250 0.562500
vt 0.281250 0.750000
vt 0.625000 0.406250
vt 0.875000 0.656250
vt 0.875000 0.750000
vt 0.625000 1.000000
vt 0.625000 0.250000
s 1
usemtl Material.001
f 34/1/1 19/2/1 37/3/1
f 19/4/2 66/5/2 75/6/2
f 40/7/3 69/8/3 81/9/3
f 35/10/4 24/11/4 39/12/4
f 31/13/5 68/14/5 79/15/5
f 25/16/6 67/17/6 77/18/6
f 131/19/6 12/20/6 70/21/6
f 32/22/4 119/23/4 125/24/4
f 149/25/2 10/26/2 71/27/2
f 33/28/1 138/29/1 143/30/1
f 33/28/7 135/31/7 124/31/7
f 157/32/4 123/33/4 178/34/4
f 167/35/5 14/36/5 72/37/5
f 163/38/4 29/39/4 160/40/4
f 181/41/3 73/42/3 193/43/3
f 15/44/3 173/45/3 162/45/3
f 45/46/8 154/47/8 145/47/8
f 159/48/4 13/49/4 155/50/4
f 36/51/4 8/52/4 30/53/4
f 69/8/6 21/54/6 74/55/6
f 208/56/2 75/6/2 213/57/2
f 37/3/1 208/58/1 217/59/1
f 160/40/4 241/60/4 248/61/4
f 43/62/9 105/63/10 98/62/11
f 38/64/1 3/65/1 31/13/1
f 68/14/2 27/66/2 76/67/2
f 230/68/6 77/18/6 234/69/6
f 39/12/4 229/70/4 242/71/4
f 287/72/4 242/71/4 310/73/4
f 260/74/5 104/75/5 268/74/5
f 285/76/3 117/3/3 295/76/3
f 284/77/4 30/53/4 281/78/4
f 7/79/3 78/80/3 66/81/3
f 46/75/8 224/82/8 218/82/8
f 283/83/4 125/24/4 298/84/4
f 289/85/5 31/13/5 79/15/5
f 302/86/4 39/12/4 287/72/4
f 258/87/5 98/62/5 267/87/5
f 1/88/1 49/63/1 43/62/1
f 26/89/4 243/90/4 239/91/4
f 18/92/4 42/93/4 6/94/4
f 21/95/1 218/82/1 216/96/1
f 5/97/1 46/75/1 21/95/1
f 2/98/4 48/99/4 26/89/4
f 67/17/5 43/62/5 80/100/5
f 9/101/4 127/102/4 121/103/4
f 12/104/1 145/47/1 141/105/1
f 251/106/3 81/9/3 254/107/3
f 253/108/3 96/109/3 255/110/3
f 50/111/5 95/112/5 82/113/5
f 288/114/5 94/115/5 290/116/5
f 51/117/3 93/118/3 97/119/3
f 233/120/6 92/121/6 235/122/6
f 52/123/2 91/124/2 83/125/2
f 212/126/2 90/127/2 214/128/2
f 53/129/6 89/130/6 84/131/6
f 191/132/3 88/133/3 194/134/3
f 165/135/5 87/136/5 168/137/5
f 147/138/2 86/139/2 150/140/2
f 129/141/6 85/142/6 132/143/6
f 61/144/6 82/113/6 92/121/6
f 63/145/5 83/125/5 94/115/5
f 65/146/3 84/131/3 96/109/3
f 59/147/2 97/148/2 90/127/2
f 254/107/3 65/146/3 253/108/3
f 67/17/5 64/149/5 50/111/5
f 289/85/5 63/145/5 288/114/5
f 66/81/3 62/150/3 51/117/3
f 234/69/6 61/144/6 233/120/6
f 68/14/2 60/151/2 52/123/2
f 213/57/2 59/147/2 212/126/2
f 69/8/6 58/152/6 53/129/6
f 193/43/3 57/153/3 191/132/3
f 167/35/5 56/154/5 165/135/5
f 149/25/2 55/155/2 147/138/2
f 131/19/6 54/156/6 129/141/6
f 77/18/6 50/111/6 61/144/6
f 79/15/5 52/123/5 63/145/5
f 81/9/3 53/129/3 65/146/3
f 75/6/2 51/157/2 59/147/2
f 90/127/2 8/158/2 20/159/2
f 96/109/3 6/160/3 42/161/3
f 94/115/5 4/162/5 35/10/5
f 92/121/6 2/98/6 26/163/6
f 132/143/6 9/164/6 121/165/6
f 150/140/2 11/166/2 140/167/2
f 168/137/5 16/168/5 163/38/5
f 194/134/3 13/169/3 183/170/3
f 84/131/6 18/171/6 6/160/6
f 214/128/2 20/159/2 215/172/2
f 83/125/2 24/173/2 4/162/2
f 235/122/6 26/163/6 239/174/6
f 97/119/3 30/175/3 8/176/3
f 290/116/5 35/10/5 302/86/5
f 82/113/5 41/177/5 2/98/5
f 255/110/3 42/161/3 257/178/3
f 173/179/1 103/180/1 171/181/1
f 172/182/1 99/36/1 170/183/1
f 293/184/1 106/13/1 291/185/1
f 306/186/1 107/3/1 292/76/1
f 40/187/12 104/75/13 46/75/14
f 34/188/3 306/189/3 301/189/3
f 23/180/5 198/190/5 187/190/5
f 31/13/2 108/64/2 38/64/2
f 184/191/5 99/36/5 197/191/5
f 38/64/3 293/184/3 286/184/3
f 28/192/3 172/182/3 161/182/3
f 37/3/2 100/1/2 34/1/2
f 174/193/15 152/194/15 179/195/15
f 175/181/15 222/196/15 226/197/15
f 295/76/15 223/59/15 308/198/15
f 294/199/15 153/30/15 299/200/15
f 28/192/5 202/201/5 188/201/5
f 49/63/5 272/202/5 263/202/5
f 38/64/7 237/203/7 231/203/7
f 158/181/3 112/180/3 175/181/3
f 297/204/15 116/28/15 294/199/15
f 177/205/15 111/206/15 174/193/15
f 86/139/2 119/207/2 11/166/2
f 221/208/6 121/165/6 207/209/6
f 220/210/6 129/141/6 219/211/6
f 71/27/2 128/212/2 55/155/2
f 219/211/6 132/143/6 221/208/6
f 55/155/2 133/213/2 86/139/2
f 121/103/4 211/214/4 207/215/4
f 120/216/1 45/46/1 12/104/1
f 298/84/4 210/217/4 307/218/4
f 126/219/8 110/46/8 45/46/8
f 124/31/1 10/220/1 33/28/1
f 10/26/2 130/221/2 71/27/2
f 178/34/4 209/222/4 225/223/4
f 124/31/7 223/59/7 217/59/7
f 125/24/4 215/224/4 210/217/4
f 220/210/6 120/225/6 131/19/6
f 143/30/7 116/28/7 33/28/7
f 299/200/15 237/203/15 309/226/15
f 179/195/16 236/227/16 247/228/16
f 85/142/6 137/229/6 9/164/6
f 246/230/2 140/167/2 229/231/2
f 245/232/2 147/138/2 244/233/2
f 70/21/6 146/234/6 54/156/6
f 244/233/2 150/140/2 246/230/2
f 54/156/6 151/235/6 85/142/6
f 141/105/1 232/236/1 230/237/1
f 137/238/4 44/239/4 9/101/4
f 300/240/4 32/22/4 283/83/4
f 142/241/4 11/242/4 32/22/4
f 12/20/6 148/243/6 70/21/6
f 180/244/4 17/245/4 157/32/4
f 145/47/8 238/236/8 232/236/8
f 143/30/1 240/246/1 231/203/1
f 245/232/2 138/247/2 149/25/2
f 276/248/4 157/32/4 259/249/4
f 275/250/15 247/228/15 280/251/15
f 274/252/4 225/223/4 278/253/4
f 273/254/17 174/193/17 270/255/17
f 260/74/3 175/181/3 271/74/3
f 161/182/5 114/192/5 28/192/5
f 271/74/15 226/197/15 277/256/15
f 270/255/17 179/195/17 275/250/18
f 161/182/3 269/202/3 263/202/3
f 269/202/1 170/183/1 267/87/1
f 256/257/1 171/181/1 268/74/1
f 88/133/3 155/258/3 13/169/3
f 266/259/5 163/38/5 252/260/5
f 265/261/5 165/135/5 264/262/5
f 73/42/3 164/263/3 57/153/3
f 264/262/5 168/137/5 266/259/5
f 57/153/3 169/264/3 88/133/3
f 15/44/3 166/265/3 73/42/3
f 14/36/5 170/183/5 99/36/5
f 23/180/5 171/181/5 103/180/5
f 262/266/4 248/61/4 279/267/4
f 261/268/4 155/50/4 257/269/4
f 162/45/3 256/106/3 251/106/3
f 252/260/4 160/40/4 262/266/4
f 265/261/5 156/183/5 167/35/5
f 259/249/4 178/34/4 274/252/4
f 139/270/4 185/271/4 17/245/4
f 152/194/16 249/272/16 236/227/16
f 123/33/4 227/273/4 209/222/4
f 134/274/15 200/275/15 111/206/15
f 188/201/5 296/184/5 286/184/5
f 111/206/15 205/276/15 152/194/15
f 112/180/15 228/277/15 222/196/15
f 188/201/3 102/192/3 28/192/3
f 282/185/5 197/191/5 291/185/5
f 187/190/5 292/76/5 285/76/5
f 181/41/3 101/44/3 15/44/3
f 101/278/1 198/190/1 103/180/1
f 102/192/1 197/191/1 99/36/1
f 87/136/5 182/279/5 16/168/5
f 305/280/3 183/170/3 281/281/3
f 304/282/3 191/132/3 303/283/3
f 72/37/5 190/284/5 56/154/5
f 303/283/3 194/134/3 305/280/3
f 56/154/5 195/285/5 87/136/5
f 16/168/4 189/286/4 29/39/4
f 72/37/5 184/191/5 192/287/5
f 17/245/4 204/288/4 123/33/4
f 22/289/4 183/290/4 13/49/4
f 23/180/3 201/190/3 112/180/3
f 29/39/4 250/291/4 241/60/4
f 301/189/3 193/43/3 304/282/3
f 134/274/19 228/277/19 203/292/19
f 209/222/4 186/293/4 22/289/4
f 273/254/20 226/197/20 177/205/20
f 278/253/4 159/48/4 261/268/4
f 74/55/6 216/294/6 220/210/6
f 210/217/4 20/295/4 36/51/4
f 217/59/7 117/3/7 37/3/7
f 225/223/4 22/289/4 159/48/4
f 307/218/4 36/51/4 284/77/4
f 207/215/4 47/296/4 18/92/4
f 58/152/6 221/208/6 89/130/6
f 74/55/6 219/211/6 58/152/6
f 89/130/6 207/209/6 18/171/6
f 308/198/15 135/31/15 297/204/15
f 177/205/19 222/196/19 134/274/19
f 133/213/2 215/172/2 119/207/2
f 130/221/2 212/126/2 128/212/2
f 128/212/2 214/128/2 133/213/2
f 216/96/1 126/219/1 120/216/1
f 218/82/8 136/219/8 126/219/8
f 217/59/1 122/297/1 124/31/1
f 122/298/2 213/57/2 130/221/2
f 241/60/4 206/299/4 139/270/4
f 236/227/15 202/201/15 114/192/15
f 279/267/4 180/244/4 276/248/4
f 280/251/15 176/182/15 272/202/15
f 76/67/2 240/300/2 245/232/2
f 231/203/1 27/301/1 38/64/1
f 232/236/8 115/63/8 49/63/8
f 230/237/1 49/63/1 25/302/1
f 60/151/2 246/230/2 91/124/2
f 76/67/2 244/233/2 60/151/2
f 91/124/2 229/231/2 24/173/2
f 247/228/15 114/192/15 176/182/15
f 309/226/15 118/64/15 296/184/15
f 231/203/7 153/30/7 143/30/7
f 151/235/6 239/174/6 137/229/6
f 148/243/6 233/120/6 146/234/6
f 146/234/6 235/122/6 151/235/6
f 239/91/4 144/303/4 137/238/4
f 310/73/4 142/241/4 300/240/4
f 242/71/4 140/304/4 142/241/4
f 141/305/6 234/69/6 148/243/6
f 248/61/4 139/270/4 180/244/4
f 238/236/15 272/202/15 115/63/15
f 243/90/4 276/248/4 144/303/4
f 211/214/4 261/268/4 47/296/4
f 224/82/15 273/254/15 136/219/15
f 44/239/4 274/252/4 127/102/4
f 80/100/5 258/87/5 265/261/5
f 41/177/4 262/266/4 48/99/4
f 251/106/3 109/7/3 40/7/3
f 47/296/4 257/269/4 42/93/4
f 48/99/4 279/267/4 243/90/4
f 64/149/5 266/259/5 95/112/5
f 80/100/5 264/262/5 64/149/5
f 95/112/5 252/260/5 41/177/5
f 109/187/1 268/74/1 104/75/1
f 105/63/1 267/87/1 98/62/1
f 263/202/3 105/63/3 49/63/3
f 110/46/15 275/250/15 154/47/15
f 113/75/15 277/256/15 224/82/15
f 46/75/3 271/74/3 113/75/3
f 136/219/15 270/255/15 110/46/15
f 127/102/4 278/253/4 211/214/4
f 154/47/15 280/251/15 238/236/15
f 144/303/4 259/249/4 44/239/4
f 263/202/5 176/182/5 161/182/5
f 169/264/3 257/178/3 155/258/3
f 166/265/3 253/108/3 164/263/3
f 164/263/3 255/110/3 169/264/3
f 162/45/3 254/107/3 166/265/3
f 156/183/5 267/87/5 170/183/5
f 158/181/5 268/74/5 171/181/5
f 250/291/4 300/240/4 206/299/4
f 249/272/15 296/184/15 202/201/15
f 228/277/21 297/204/21 203/292/21
f 227/273/4 284/77/4 186/293/4
f 34/188/3 304/282/3 78/80/3
f 62/150/3 305/280/3 93/118/3
f 78/80/3 303/283/3 62/150/3
f 93/118/3 281/281/3 30/175/3
f 285/76/5 107/3/5 37/3/5
f 31/13/5 291/185/5 106/13/5
f 286/184/5 118/64/5 38/64/5
f 206/299/4 283/83/4 185/271/4
f 249/272/15 299/200/15 309/226/15
f 204/288/4 307/218/4 227/273/4
f 203/292/22 294/199/22 200/275/22
f 200/275/22 299/200/22 205/276/22
f 201/190/15 308/198/15 228/277/15
f 286/184/3 199/201/3 188/201/3
f 301/189/3 196/41/3 181/41/3
f 196/306/1 292/76/1 198/190/1
f 199/201/1 291/185/1 197/191/1
f 195/285/5 302/86/5 182/279/5
f 192/287/5 288/114/5 190/284/5
f 190/284/5 290/116/5 195/285/5
f 182/279/4 287/72/4 189/286/4
f 192/287/5 282/185/5 289/85/5
f 185/271/4 298/84/4 204/288/4
f 186/293/4 281/78/4 183/290/4
f 187/190/3 295/76/3 201/190/3
f 189/286/4 310/73/4 250/291/4
f 34/1/1 7/307/1 19/2/1
f 19/4/2 7/308/2 66/5/2
f 40/7/3 5/309/3 69/8/3
f 35/10/4 4/162/4 24/11/4
f 31/13/5 3/65/5 68/14/5
f 25/16/6 1/88/6 67/17/6
f 131/19/6 120/225/6 12/20/6
f 32/22/4 11/242/4 119/23/4
f 149/25/2 138/247/2 10/26/2
f 33/28/1 10/220/1 138/29/1
f 33/28/7 116/28/7 135/31/7
f 157/32/4 17/245/4 123/33/4
f 167/35/5 156/183/5 14/36/5
f 163/38/4 16/168/4 29/39/4
f 181/41/3 15/44/3 73/42/3
f 15/44/3 101/44/3 173/45/3
f 45/46/8 110/46/8 154/47/8
f 159/48/4 22/289/4 13/49/4
f 36/51/4 20/295/4 8/52/4
f 69/8/6 5/309/6 21/54/6
f 208/56/2 19/4/2 75/6/2
f 37/3/1 19/2/1 208/58/1
f 160/40/4 29/39/4 241/60/4
f 43/62/9 49/63/23 105/63/10
f 38/64/1 27/301/1 3/65/1
f 68/14/2 3/65/2 27/66/2
f 230/68/6 25/16/6 77/18/6
f 39/12/4 24/11/4 229/70/4
f 287/72/4 39/12/4 242/71/4
f 260/74/5 46/75/5 104/75/5
f 285/76/3 37/3/3 117/3/3
f 284/77/4 36/51/4 30/53/4
f 7/79/3 34/188/3 78/80/3
f 46/75/8 113/75/8 224/82/8
f 283/83/4 32/22/4 125/24/4
f 289/85/5 282/185/5 31/13/5
f 302/86/4 35/10/4 39/12/4
f 258/87/5 43/62/5 98/62/5
f 1/88/1 25/302/1 49/63/1
f 26/89/4 48/99/4 243/90/4
f 18/92/4 47/296/4 42/93/4
f 21/95/1 46/75/1 218/82/1
f 5/97/1 40/187/1 46/75/1
f 2/98/4 41/177/4 48/99/4
f 67/17/5 1/88/5 43/62/5
f 9/101/4 44/239/4 127/102/4
f 12/104/1 45/46/1 145/47/1
f 251/106/3 40/7/3 81/9/3
f 253/108/3 65/146/3 96/109/3
f 50/111/5 64/149/5 95/112/5
f 288/114/5 63/145/5 94/115/5
f 51/117/3 62/150/3 93/118/3
f 233/120/6 61/144/6 92/121/6
f 52/123/2 60/151/2 91/124/2
f 212/126/2 59/147/2 90/127/2
f 53/129/6 58/152/6 89/130/6
f 191/132/3 57/153/3 88/133/3
f 165/135/5 56/154/5 87/136/5
f 147/138/2 55/155/2 86/139/2
f 129/141/6 54/156/6 85/142/6
f 61/144/6 50/111/6 82/113/6
f 63/145/5 52/123/5 83/125/5
f 65/146/3 53/129/3 84/131/3
f 59/147/2 51/157/2 97/148/2
f 254/107/3 81/9/3 65/146/3
f 67/17/5 80/100/5 64/149/5
f 289/85/5 79/15/5 63/145/5
f 66/81/3 78/80/3 62/150/3
f 234/69/6 77/18/6 61/144/6
f 68/14/2 76/67/2 60/151/2
f 213/57/2 75/6/2 59/147/2
f 69/8/6 74/55/6 58/152/6
f 193/43/3 73/42/3 57/153/3
f 167/35/5 72/37/5 56/154/5
f 149/25/2 71/27/2 55/155/2
f 131/19/6 70/21/6 54/156/6
f 77/18/6 67/17/6 50/111/6
f 79/15/5 68/14/5 52/123/5
f 81/9/3 69/8/3 53/129/3
f 75/6/2 66/5/2 51/157/2
f 90/127/2 97/148/2 8/158/2
f 96/109/3 84/131/3 6/160/3
f 94/115/5 83/125/5 4/162/5
f 92/121/6 82/113/6 2/98/6
f 132/143/6 85/142/6 9/164/6
f 150/140/2 86/139/2 11/166/2
f 168/137/5 87/136/5 16/168/5
f 194/134/3 88/133/3 13/169/3
f 84/131/6 89/130/6 18/171/6
f 214/128/2 90/127/2 20/159/2
f 83/125/2 91/124/2 24/173/2
f 235/122/6 92/121/6 26/163/6
f 97/119/3 93/118/3 30/175/3
f 290/116/5 94/115/5 35/10/5
f 82/113/5 95/112/5 41/177/5
f 255/110/3 96/109/3 42/161/3
f 173/179/1 101/278/1 103/180/1
f 172/182/1 102/192/1 99/36/1
f 293/184/1 108/64/1 106/13/1
f 306/186/1 100/1/1 107/3/1
f 40/187/12 109/187/11 104/75/13
f 34/188/3 100/188/3 306/189/3
f 23/180/5 103/180/5 198/190/5
f 31/13/2 106/13/2 108/64/2
f 184/191/5 14/36/5 99/36/5
f 38/64/3 108/64/3 293/184/3
f 28/192/3 102/192/3 172/182/3
f 37/3/2 107/3/2 100/1/2
f 174/193/15 111/206/15 152/194/15
f 175/181/15 112/180/15 222/196/15
f 295/76/15 117/3/15 223/59/15
f 294/199/15 116/28/15 153/30/15
f 28/192/5 114/192/5 202/201/5
f 49/63/5 115/63/5 272/202/5
f 38/64/7 118/64/7 237/203/7
f 158/181/3 23/180/3 112/180/3
f 297/204/15 135/31/15 116/28/15
f 177/205/15 134/274/15 111/206/15
f 86/139/2 133/213/2 119/207/2
f 221/208/6 132/143/6 121/165/6
f 220/210/6 131/19/6 129/141/6
f 71/27/2 130/221/2 128/212/2
f 219/211/6 129/141/6 132/143/6
f 55/155/2 128/212/2 133/213/2
f 121/103/4 127/102/4 211/214/4
f 120/216/1 126/219/1 45/46/1
f 298/84/4 125/24/4 210/217/4
f 126/219/8 136/219/8 110/46/8
f 124/31/1 122/297/1 10/220/1
f 10/26/2 122/298/2 130/221/2
f 178/34/4 123/33/4 209/222/4
f 124/31/7 135/31/7 223/59/7
f 125/24/4 119/23/4 215/224/4
f 220/210/6 216/294/6 120/225/6
f 143/30/7 153/30/7 116/28/7
f 299/200/15 153/30/15 237/203/15
f 179/195/16 152/194/16 236/227/16
f 85/142/6 151/235/6 137/229/6
f 246/230/2 150/140/2 140/167/2
f 245/232/2 149/25/2 147/138/2
f 70/21/6 148/243/6 146/234/6
f 244/233/2 147/138/2 150/140/2
f 54/156/6 146/234/6 151/235/6
f 141/105/1 145/47/1 232/236/1
f 137/238/4 144/303/4 44/239/4
f 300/240/4 142/241/4 32/22/4
f 142/241/4 140/304/4 11/242/4
f 12/20/6 141/305/6 148/243/6
f 180/244/4 139/270/4 17/245/4
f 145/47/8 154/47/8 238/236/8
f 143/30/1 138/29/1 240/246/1
f 245/232/2 240/300/2 138/247/2
f 276/248/4 180/244/4 157/32/4
f 275/250/24 179/195/24 247/228/24
f 274/252/4 178/34/4 225/223/4
f 273/254/17 177/205/17 174/193/17
f 260/74/3 158/181/3 175/181/3
f 161/182/5 176/182/5 114/192/5
f 271/74/15 175/181/15 226/197/15
f 270/255/17 174/193/17 179/195/17
f 161/182/3 172/182/3 269/202/3
f 269/202/1 172/182/1 170/183/1
f 256/257/1 173/179/1 171/181/1
f 88/133/3 169/264/3 155/258/3
f 266/259/5 168/137/5 163/38/5
f 265/261/5 167/35/5 165/135/5
f 73/42/3 166/265/3 164/263/3
f 264/262/5 165/135/5 168/137/5
f 57/153/3 164/263/3 169/264/3
f 15/44/3 162/45/3 166/265/3
f 14/36/5 156/183/5 170/183/5
f 23/180/5 158/181/5 171/181/5
f 262/266/4 160/40/4 248/61/4
f 261/268/4 159/48/4 155/50/4
f 162/45/3 173/45/3 256/106/3
f 252/260/4 163/38/4 160/40/4
f 265/261/5 258/87/5 156/183/5
f 259/249/4 157/32/4 178/34/4
f 139/270/4 206/299/4 185/271/4
f 152/194/16 205/276/16 249/272/16
f 123/33/4 204/288/4 227/273/4
f 134/274/15 203/292/15 200/275/15
f 188/201/5 202/201/5 296/184/5
f 111/206/15 200/275/15 205/276/15
f 112/180/15 201/190/15 228/277/15
f 188/201/3 199/201/3 102/192/3
f 282/185/5 184/191/5 197/191/5
f 187/190/5 198/190/5 292/76/5
f 181/41/3 196/41/3 101/44/3
f 101/278/1 196/306/1 198/190/1
f 102/192/1 199/201/1 197/191/1
f 87/136/5 195/285/5 182/279/5
f 305/280/3 194/134/3 183/170/3
f 304/282/3 193/43/3 191/132/3
f 72/37/5 192/287/5 190/284/5
f 303/283/3 191/132/3 194/134/3
f 56/154/5 190/284/5 195/285/5
f 16/168/4 182/279/4 189/286/4
f 72/37/5 14/36/5 184/191/5
f 17/245/4 185/271/4 204/288/4
f 22/289/4 186/293/4 183/290/4
f 23/180/3 187/190/3 201/190/3
f 29/39/4 189/286/4 250/291/4
f 301/189/3 181/41/3 193/43/3
f 134/274/19 222/196/19 228/277/19
f 209/222/4 227/273/4 186/293/4
f 273/254/15 277/256/15 226/197/15
f 278/253/4 225/223/4 159/48/4
f 74/55/6 21/54/6 216/294/6
f 210/217/4 215/224/4 20/295/4
f 217/59/7 223/59/7 117/3/7
f 225/223/4 209/222/4 22/289/4
f 307/218/4 210/217/4 36/51/4
f 207/215/4 211/214/4 47/296/4
f 58/152/6 219/211/6 221/208/6
f 74/55/6 220/210/6 219/211/6
f 89/130/6 221/208/6 207/209/6
f 308/198/15 223/59/15 135/31/15
f 177/205/19 226/197/19 222/196/19
f 133/213/2 214/128/2 215/172/2
f 130/221/2 213/57/2 212/126/2
f 128/212/2 212/126/2 214/128/2
f 216/96/1 218/82/1 126/219/1
f 218/82/8 224/82/8 136/219/8
f 217/59/1 208/58/1 122/297/1
f 122/298/2 208/56/2 213/57/2
f 241/60/4 250/291/4 206/299/4
f 236/227/15 249/272/15 202/201/15
f 279/267/4 248/61/4 180/244/4
f 280/251/15 247/228/15 176/182/15
f 76/67/2 27/66/2 240/300/2
f 231/203/1 240/246/1 27/301/1
f 232/236/8 238/236/8 115/63/8
f 230/237/1 232/236/1 49/63/1
f 60/151/2 244/233/2 246/230/2
f 76/67/2 245/232/2 244/233/2
f 91/124/2 246/230/2 229/231/2
f 247/228/15 236/227/15 114/192/15
f 309/226/15 237/203/15 118/64/15
f 231/203/7 237/203/7 153/30/7
f 151/235/6 235/122/6 239/174/6
f 148/243/6 234/69/6 233/120/6
f 146/234/6 233/120/6 235/122/6
f 239/91/4 243/90/4 144/303/4
f 310/73/4 242/71/4 142/241/4
f 242/71/4 229/70/4 140/304/4
f 141/305/6 230/68/6 234/69/6
f 248/61/4 241/60/4 139/270/4
f 238/236/15 280/251/15 272/202/15
f 243/90/4 279/267/4 276/248/4
f 211/214/4 278/253/4 261/268/4
f 224/82/15 277/256/15 273/254/15
f 44/239/4 259/249/4 274/252/4
f 80/100/5 43/62/5 258/87/5
f 41/177/4 252/260/4 262/266/4
f 251/106/3 256/106/3 109/7/3
f 47/296/4 261/268/4 257/269/4
f 48/99/4 262/266/4 279/267/4
f 64/149/5 264/262/5 266/259/5
f 80/100/5 265/261/5 264/262/5
f 95/112/5 266/259/5 252/260/5
f 109/187/1 256/257/1 268/74/1
f 105/63/1 269/202/1 267/87/1
f 263/202/3 269/202/3 105/63/3
f 110/46/15 270/255/15 275/250/15
f 113/75/15 271/74/15 277/256/15
f 46/75/3 260/74/3 271/74/3
f 136/219/15 273/254/15 270/255/15
f 127/102/4 274/252/4 278/253/4
f 154/47/15 275/250/15 280/251/15
f 144/303/4 276/248/4 259/249/4
f 263/202/5 272/202/5 176/182/5
f 169/264/3 255/110/3 257/178/3
f 166/265/3 254/107/3 253/108/3
f 164/263/3 253/108/3 255/110/3
f 162/45/3 251/106/3 254/107/3
f 156/183/5 258/87/5 267/87/5
f 158/181/5 260/74/5 268/74/5
f 250/291/4 310/73/4 300/240/4
f 249/272/15 309/226/15 296/184/15
f 228/277/15 308/198/15 297/204/15
f 227/273/4 307/218/4 284/77/4
f 34/188/3 301/189/3 304/282/3
f 62/150/3 303/283/3 305/280/3
f 78/80/3 304/282/3 303/283/3
f 93/118/3 305/280/3 281/281/3
f 285/76/5 292/76/5 107/3/5
f 31/13/5 282/185/5 291/185/5
f 286/184/5 296/184/5 118/64/5
f 206/299/4 300/240/4 283/83/4
f 249/272/25 205/276/25 299/200/25
f 204/288/4 298/84/4 307/218/4
f 203/292/22 297/204/22 294/199/22
f 200/275/22 294/199/22 299/200/22
f 201/190/15 295/76/15 308/198/15
f 286/184/3 293/184/3 199/201/3
f 301/189/3 306/189/3 196/41/3
f 196/306/1 306/186/1 292/76/1
f 199/201/1 293/184/1 291/185/1
f 195/285/5 290/116/5 302/86/5
f 192/287/5 289/85/5 288/114/5
f 190/284/5 288/114/5 290/116/5
f 182/279/4 302/86/4 287/72/4
f 192/287/5 184/191/5 282/185/5
f 185/271/4 283/83/4 298/84/4
f 186/293/4 284/77/4 281/78/4
f 187/190/3 285/76/3 295/76/3
f 189/286/4 287/72/4 310/73/4
