# Blender 4.4.1
# www.blender.org
mtllib testPlayer.mtl
o 立方体
v -0.800000 -0.332959 -0.258762
v -0.539213 0.200967 -0.377940
v 0.805630 -0.106120 -0.676502
v 1.678518 0.405438 -0.284031
v -0.800000 -0.332959 0.258762
v -0.539213 0.200967 0.377940
v 0.805630 -0.106120 0.676502
v 1.678518 0.405438 0.284031
v -0.800000 -0.000000 -0.642173
v 1.751624 -0.165529 -2.814127
v 1.751624 -0.165529 2.814127
v -0.800000 0.000000 0.642173
v 1.166955 -0.584665 0.000000
v 1.613703 0.494614 -0.000000
v -1.644917 -0.283986 0.000000
v -1.052859 0.299262 -0.000000
v -1.748281 0.140097 -0.000000
v 1.090648 -0.116504 0.000000
v 1.620451 0.539111 0.169688
v -0.800000 -0.437190 0.223279
v 1.358464 -0.066913 1.124925
v 0.800000 -0.398509 0.108183
v -0.644817 0.315421 0.294958
v -1.311669 0.000000 0.237295
v 0.800000 -0.398509 -0.108183
v -0.644817 0.315421 -0.294958
v -1.311669 -0.000000 -0.237295
v 1.620451 0.539111 -0.169688
v -0.800000 -0.437190 -0.223279
v 1.358464 -0.066913 -1.124925
v -0.542609 0.108546 -0.501751
v 1.110794 0.152692 -0.474843
v 1.110794 0.152692 0.474843
v -0.542609 0.108546 0.501751
v -1.216109 0.164842 -0.000000
v 1.127262 0.185313 -0.000000
v -0.801983 0.113801 0.169245
v 1.671626 0.131599 0.400000
v 1.671626 0.131599 -0.400000
v -0.801983 0.113801 -0.169245
v 1.092683 -0.123639 -2.455860
v 1.092683 -0.123639 2.455860
v -0.800000 -0.115115 0.800000
v -0.800000 -0.115115 -0.800000
v 1.159266 -0.422488 0.000000
v -2.830678 -0.030999 0.000000
v -1.554247 -0.111568 0.400000
v 1.082101 -0.209066 0.130417
v 1.082101 -0.209066 -0.130417
v -1.554247 -0.111568 -0.400000
v 0.000000 -0.120759 -0.616647
v 0.274430 0.167955 -0.292948
v 0.000000 -0.120759 0.616647
v 0.274430 0.167955 0.292948
v 0.116576 0.000000 1.608327
v 0.116576 -0.000000 -1.608327
v 0.332365 0.613582 -0.000000
v -0.291859 -0.463955 0.000000
v 0.282524 0.322053 0.255841
v 0.000000 -0.398509 0.108183
v 0.000000 -0.398509 -0.108183
v 0.282524 0.322053 -0.255841
v 0.000000 0.152692 0.699320
v 0.000000 0.152692 -0.699320
v 0.000000 -0.115115 -1.744535
v 0.000000 -0.115115 1.744535
v -0.396161 -0.185474 -0.616647
v -0.350716 0.200967 0.309417
v -0.202266 0.000000 0.962985
v -0.283986 0.552760 -0.000000
v -0.921730 -0.513793 0.000000
v -0.351293 0.315421 0.246736
v -0.396161 -0.398509 0.108183
v -0.396161 -0.398509 -0.108183
v -0.351293 0.315421 -0.246736
v -0.396161 0.152692 0.699320
v -0.396161 -0.115115 1.148783
v -0.350716 0.200967 -0.309417
v -0.396161 -0.185474 0.616647
v -0.202266 -0.000000 -0.962985
v -0.396161 0.152692 -0.699320
v -0.396161 -0.115115 -1.148783
v 0.280190 0.317361 -0.350685
v 0.400000 -0.105652 0.616647
v 1.053711 -0.000000 -2.237841
v 0.400000 0.152692 -0.511951
v 0.400000 -0.115115 -2.020810
v 0.400000 -0.105652 -0.616647
v 0.280190 0.317361 0.350685
v 1.053711 0.000000 2.237841
v 0.341603 0.643542 -0.000000
v 0.400000 -0.618318 0.000000
v 0.332277 0.567728 0.187702
v 0.400000 -0.398509 0.108183
v 0.400000 -0.398509 -0.108183
v 0.332277 0.567728 -0.187702
v 0.400000 0.152692 0.511951
v 0.400000 -0.115115 2.020810
vn 0.0366 0.7127 -0.7005
vn 0.1363 0.3834 0.9135
vn -0.3743 0.9246 0.0709
vn -0.7670 0.2226 -0.6018
vn 0.2879 -0.3086 0.9066
vn 0.1226 0.6542 -0.7463
vn -0.1838 0.9168 -0.3546
vn -0.2585 0.9185 0.2993
vn 0.3620 -0.9316 0.0326
vn -0.3106 0.8019 -0.5103
vn 0.9531 0.2137 -0.2142
vn -0.1281 0.8103 0.5719
vn 0.1158 0.6999 0.7048
vn 0.1604 -0.9572 -0.2410
vn -0.3103 0.3768 0.8728
vn 0.4101 -0.6450 0.6448
vn -0.7670 0.2226 0.6018
vn 0.3036 0.4588 0.8351
vn -0.1838 0.9168 0.3546
vn 0.9531 0.2137 0.2142
vn -0.2717 -0.8551 0.4415
vn -0.2704 -0.8597 0.4333
vn -0.2714 -0.8563 0.4395
vn 0.4101 -0.6450 -0.6448
vn 0.1363 0.3834 -0.9135
vn -0.0052 -0.9224 -0.3863
vn -0.0056 -0.9223 -0.3864
vn -0.0004 -0.9224 -0.3863
vn 0.3620 -0.9316 -0.0326
vn -0.1281 0.8103 -0.5719
vn -0.2926 0.8874 -0.3561
vn -0.3103 0.3768 -0.8728
vn -0.0385 0.8279 -0.5596
vn 0.8697 0.4614 0.1755
vn 0.4278 -0.9017 -0.0621
vn -0.1826 0.9557 0.2307
vn 0.4278 -0.9017 0.0621
vn -0.0385 0.8279 0.5596
vn -0.1826 0.9557 -0.2307
vn -0.3479 0.6774 0.6481
vn 0.8697 0.4614 -0.1755
vn 0.1586 0.9832 -0.0903
vn -0.2714 -0.8563 -0.4394
vn -0.2702 -0.8604 -0.4321
vn -0.2704 -0.8597 -0.4333
vn 0.4906 -0.7768 -0.3948
vn 0.2891 0.0137 0.9572
vn 1.0000 -0.0000 -0.0000
vn -0.2702 -0.8604 0.4321
vn 0.2891 0.0137 -0.9572
vn 0.0023 -1.0000 0.0064
vn -0.0055 -1.0000 0.0083
vn 0.0035 -1.0000 0.0067
vn 0.4906 -0.7768 0.3948
vn 0.0079 -0.9276 0.3734
vn 0.0377 -0.9993 0.0050
vn 0.1599 -0.9786 -0.1294
vn -0.4087 0.8901 -0.2019
vn -0.0789 0.9899 0.1175
vn -0.9532 0.2939 -0.0714
vn 0.0327 -0.8661 -0.4988
vn -0.1409 -0.6317 0.7623
vn -0.9986 0.0471 -0.0222
vn -0.0000 -0.4416 -0.8972
vn -0.9759 0.2119 0.0513
vn -0.4622 0.8318 -0.3074
vn -0.3082 0.8402 0.4463
vn -0.9808 0.1946 0.0145
vn -0.0000 -0.8776 0.4794
vn 0.0257 0.9982 0.0548
vn -0.0000 0.9924 -0.1229
vn -0.3743 0.9246 -0.0709
vn -0.2585 0.9185 -0.2993
vn -0.3479 0.6774 -0.6481
vn 0.0079 -0.9276 -0.3734
vn 0.1599 -0.9786 0.1294
vn -0.4087 0.8901 0.2019
vn -0.0656 0.6645 -0.7444
vn 0.1419 -0.8687 -0.4745
vn 0.0653 -0.8247 0.5618
vn 0.0484 0.4800 0.8760
vn -0.0000 -0.8556 -0.5176
vn -0.0175 0.7230 0.6907
vn -0.4622 0.8318 0.3074
vn -0.0164 0.2349 -0.9719
vn -0.0000 -0.9223 0.3864
vn -0.0004 -0.9224 0.3863
vn -0.0052 -0.9224 0.3863
vn -0.0000 0.9924 0.1229
vn 0.0366 0.7127 0.7005
vn -0.0000 -0.8665 0.4991
vn 0.0251 0.6561 -0.7543
vn -0.3106 0.8019 0.5103
vn 0.0258 0.9265 0.3755
vn 0.0057 0.5447 0.8386
vn 0.0207 -0.4715 0.8816
vn -0.0685 -0.8869 -0.4569
vn 0.1124 0.9601 0.2562
vn 0.1586 0.9832 0.0903
vn -0.0055 -1.0000 -0.0083
vn 0.0023 -1.0000 -0.0064
vn 0.0035 -1.0000 -0.0067
vn 0.0377 -0.9993 -0.0050
vn -0.0789 0.9899 -0.1175
vn -0.3082 0.8402 -0.4463
vn 0.0257 0.9982 -0.0548
vn 0.0001 0.6024 -0.7982
vn 0.6511 -0.3098 -0.6928
vn 0.2138 0.7800 0.5881
vn 0.3614 0.7424 -0.5641
vn -0.0056 -0.9223 0.3864
vn 0.3036 0.4588 -0.8351
vn -0.4226 0.7322 -0.5341
vn -0.3016 0.7703 0.5619
vn -0.0364 -0.9981 -0.0498
vn -0.2250 0.8298 -0.5108
vn 0.9088 -0.3660 0.2002
vn -0.0241 0.8409 0.5407
vn -0.2926 0.8874 0.3561
vn -0.2717 -0.8551 -0.4415
vn -0.5838 -0.0502 0.8104
vn 0.9940 0.0893 0.0629
vn 0.3614 0.7424 0.5641
vn 0.1226 0.6542 0.7463
vn -0.4226 0.7322 0.5341
vn 0.9088 -0.3660 -0.2002
vn 0.1604 -0.9572 0.2410
vn 0.9940 0.0893 -0.0629
vn 0.6511 -0.3098 0.6928
vn 0.2879 -0.3086 -0.9066
vn -0.0364 -0.9981 0.0498
vn -0.0241 0.8409 -0.5407
vn 0.1158 0.6999 -0.7048
vn -0.5838 -0.0502 -0.8104
vn -0.1155 0.8370 -0.5349
vn 0.0750 0.9531 -0.2934
vn 0.5861 -0.0711 -0.8071
vn -0.2711 0.9356 0.2263
vn 0.5861 -0.0711 0.8071
vn -0.1155 0.8370 0.5349
vn -0.2711 0.9356 -0.2263
vn -0.3604 0.9309 0.0591
vn 0.0750 0.9531 0.2934
vn 0.0045 0.9962 -0.0864
vn -0.1889 -0.8855 -0.4245
vn -0.2846 -0.9579 -0.0365
vn 0.2308 -0.4452 0.8652
vn -0.2541 -0.8444 0.4716
vn -0.1889 -0.8855 0.4245
vn 0.2308 -0.4452 -0.8652
vn -0.0068 -0.9999 0.0087
vn -0.2846 -0.9579 0.0365
vn -0.1125 -0.9851 0.1302
vn -0.2541 -0.8444 -0.4716
vn 0.0047 -1.0000 -0.0067
vn -0.0075 -1.0000 -0.0050
vn -0.0000 0.8654 -0.5011
vn 0.0731 0.9850 0.1561
vn -0.9759 0.2119 -0.0513
vn -0.0000 -0.8776 -0.4794
vn -0.0000 -0.4416 0.8972
vn -0.9808 0.1946 -0.0145
vn -0.1409 -0.6317 -0.7623
vn -0.9532 0.2939 0.0714
vn -0.3675 0.9121 -0.1816
vn -0.2953 0.8482 0.4396
vn -0.9986 0.0471 0.0222
vn 0.0327 -0.8661 0.4988
vn -0.8618 -0.1536 0.4834
vn 0.0545 0.9957 -0.0742
vn 0.2138 0.7800 -0.5881
vn -0.3016 0.7703 -0.5619
vn -0.3604 0.9309 -0.0591
vn -0.1125 -0.9851 -0.1302
vn -0.0075 -1.0000 0.0050
vn -0.0000 0.8654 0.5011
vn -0.0175 0.7230 -0.6907
vn -0.0000 -0.9223 -0.3864
vn -0.0000 -0.8556 0.5176
vn -0.0164 0.2349 0.9719
vn 0.0653 -0.8247 -0.5618
vn -0.0656 0.6645 0.7444
vn -0.3675 0.9121 0.1816
vn 0.0484 0.4800 -0.8760
vn 0.1419 -0.8687 0.4745
vn 0.0545 0.9957 0.0742
vn 0.0001 0.6024 0.7982
vn -0.0685 -0.8869 0.4569
vn 0.0057 0.5447 -0.8386
vn -0.2250 0.8298 0.5108
vn 0.1124 0.9601 -0.2562
vn 0.0207 -0.4715 -0.8816
vn 0.0251 0.6561 0.7543
vn -0.0000 -0.8665 -0.4991
vn 0.0258 0.9265 -0.3755
vn 0.0045 0.9962 0.0864
vn -0.0068 -0.9999 -0.0087
vn 0.0047 -1.0000 0.0067
vn 0.0731 0.9850 -0.1561
vn -0.2953 0.8482 -0.4396
vn -0.8618 -0.1536 -0.4834
vt 0.625000 0.187500
vt 0.562500 0.250000
vt 0.562500 0.187500
vt 0.562500 0.437500
vt 0.625000 0.500000
vt 0.562500 0.500000
vt 0.625000 0.686900
vt 0.562500 0.750000
vt 0.562500 0.686900
vt 0.625000 0.937500
vt 0.562500 1.000000
vt 0.562500 0.937500
vt 0.312500 0.686900
vt 0.375000 0.750000
vt 0.312500 0.750000
vt 0.812500 0.686900
vt 0.875000 0.750000
vt 0.812500 0.750000
vt 0.500000 0.937500
vt 0.437500 1.000000
vt 0.437500 0.937500
vt 0.500000 0.686900
vt 0.437500 0.750000
vt 0.437500 0.686900
vt 0.500000 0.437500
vt 0.437500 0.500000
vt 0.437500 0.437500
vt 0.500000 0.187500
vt 0.437500 0.250000
vt 0.437500 0.187500
vt 0.437500 0.312500
vt 0.500000 0.375000
vt 0.437500 0.375000
vt 0.437500 0.812500
vt 0.500000 0.875000
vt 0.437500 0.875000
vt 0.750000 0.686900
vt 0.687500 0.750000
vt 0.687500 0.686900
vt 0.250000 0.686900
vt 0.187500 0.750000
vt 0.187500 0.686900
vt 0.562500 0.812500
vt 0.625000 0.875000
vt 0.562500 0.875000
vt 0.562500 0.312500
vt 0.625000 0.375000
vt 0.562500 0.375000
vt 0.625000 0.812500
vt 0.625000 0.750000
vt 0.500000 0.812500
vt 0.250000 0.750000
vt 0.625000 0.250000
vt 0.125000 0.750000
vt 0.125000 0.686900
vt 0.500000 0.312500
vt 0.750000 0.750000
vt 0.500000 0.250000
vt 0.500000 0.750000
vt 0.500000 1.000000
vt 0.500000 0.500000
vt 0.375000 0.875000
vt 0.375000 0.937500
vt 0.375000 0.250000
vt 0.375000 0.312500
vt 0.375000 0.437500
vt 0.375000 0.375000
vt 0.375000 0.812500
vt 0.375000 0.187500
vt 0.375000 0.500000
vt 0.375000 0.686900
vt 0.375000 1.000000
vt 0.375000 0.562500
vt 0.437500 0.625000
vt 0.375000 0.625000
vt 0.437500 0.063100
vt 0.375000 0.125000
vt 0.375000 0.063100
vt 0.500000 0.063100
vt 0.562500 0.125000
vt 0.500000 0.125000
vt 0.562500 0.562500
vt 0.500000 0.625000
vt 0.500000 0.562500
vt 0.812500 0.562500
vt 0.750000 0.625000
vt 0.750000 0.562500
vt 0.187500 0.562500
vt 0.125000 0.625000
vt 0.125000 0.562500
vt 0.250000 0.562500
vt 0.312500 0.625000
vt 0.250000 0.625000
vt 0.625000 0.562500
vt 0.687500 0.625000
vt 0.625000 0.625000
vt 0.187500 0.625000
vt 0.687500 0.562500
vt 0.437500 0.125000
vt 0.437500 0.562500
vt 0.875000 0.562500
vt 0.812500 0.625000
vt 0.312500 0.562500
vt 0.562500 0.625000
vt 0.625000 0.063100
vt 0.562500 0.063100
vt 0.562500 0.000000
vt 0.437500 0.000000
vt 0.500000 0.000000
vt 0.375000 0.000000
vt 0.875000 0.625000
vt 0.312500 0.500000
vt 0.875000 0.500000
vt 0.812500 0.500000
vt 0.687500 0.500000
vt 0.187500 0.500000
vt 0.250000 0.500000
vt 0.125000 0.500000
vt 0.750000 0.500000
vt 0.625000 0.125000
vt 0.625000 0.437500
vt 0.625000 1.000000
vt 0.875000 0.686900
vt 0.625000 0.312500
vt 0.625000 0.000000
s 1
usemtl マテリアル.001
f 83/1/1 32/2/1 86/3/1
f 38/4/2 8/5/2 33/6/2
f 68/7/3 34/8/3 76/9/3
f 26/10/4 31/11/4 40/12/4
f 73/13/5 5/14/5 20/15/5
f 75/16/6 2/17/6 26/18/6
f 27/19/7 44/20/7 50/21/7
f 69/22/8 43/23/8 77/24/8
f 21/25/9 42/26/9 48/27/9
f 85/28/10 41/29/10 87/30/10
f 49/31/11 18/32/11 45/33/11
f 47/34/12 17/35/12 46/36/12
f 70/37/13 23/38/13 72/39/13
f 71/40/14 29/41/14 74/42/14
f 37/43/15 16/44/15 35/45/15
f 39/46/16 14/47/16 36/48/16
f 34/8/17 23/49/17 37/43/17
f 72/39/18 6/50/18 68/7/18
f 43/23/19 24/51/19 47/34/19
f 18/32/20 48/27/20 45/33/20
f 71/40/21 20/15/22 15/52/23
f 14/47/24 38/4/24 36/48/24
f 4/53/25 39/46/25 32/2/25
f 74/42/26 1/54/27 67/55/28
f 41/29/29 30/56/29 49/31/29
f 17/35/30 50/21/30 46/36/30
f 70/37/31 26/18/31 16/57/31
f 16/44/32 40/12/32 35/45/32
f 35/45/33 27/19/33 17/35/33
f 32/2/34 30/56/34 10/58/34
f 18/32/35 38/4/35 21/25/35
f 12/59/36 37/43/36 24/51/36
f 39/46/37 18/32/37 30/56/37
f 24/51/38 35/45/38 17/35/38
f 40/12/39 9/60/39 27/19/39
f 76/9/40 12/59/40 69/22/40
f 21/25/41 33/6/41 11/61/41
f 85/28/42 32/2/42 10/58/42
f 15/62/43 50/21/44 29/63/45
f 3/64/46 49/31/46 25/65/46
f 45/33/47 22/66/47 13/67/47
f 43/23/48 20/68/48 5/14/48
f 47/34/49 15/62/23 20/68/22
f 25/65/50 45/33/50 13/67/50
f 87/30/51 3/64/52 88/69/53
f 48/27/54 7/70/54 22/66/54
f 79/71/55 43/23/55 5/14/55
f 29/63/48 44/20/48 1/72/48
f 84/73/56 66/74/56 53/75/56
f 82/76/57 51/77/57 67/78/57
f 80/79/58 64/80/58 56/81/58
f 97/82/59 55/83/59 90/84/59
f 96/85/60 57/86/60 91/87/60
f 95/88/61 51/89/61 88/90/61
f 92/91/62 60/92/62 58/93/62
f 89/94/63 59/95/63 54/96/63
f 92/91/64 61/97/64 95/88/64
f 93/98/65 57/86/65 59/95/65
f 82/76/66 56/81/66 65/99/66
f 98/100/67 55/83/67 66/74/67
f 83/101/68 62/102/68 96/85/68
f 94/103/69 53/75/69 60/92/69
f 97/82/70 54/96/70 63/104/70
f 78/105/71 64/80/71 81/106/71
f 31/107/72 78/105/72 81/106/72
f 44/108/73 80/79/73 82/76/73
f 9/109/74 81/106/74 80/79/74
f 44/108/75 67/78/75 1/110/75
f 53/75/76 77/24/76 79/71/76
f 63/104/77 69/22/77 55/83/77
f 62/102/78 70/37/78 57/86/78
f 61/97/79 67/55/79 51/89/79
f 58/93/80 73/13/80 71/40/80
f 54/96/81 72/39/81 68/7/81
f 58/93/82 74/42/82 61/97/82
f 59/95/83 70/37/83 72/39/83
f 55/83/84 77/24/84 66/74/84
f 52/111/85 75/16/85 62/102/85
f 60/92/86 79/71/87 73/13/88
f 63/104/89 68/7/89 76/9/89
f 33/6/90 89/94/90 97/82/90
f 22/112/91 84/73/91 94/103/91
f 4/113/92 96/85/92 28/114/92
f 42/26/93 90/84/93 98/100/93
f 19/115/94 91/87/94 93/98/94
f 25/116/64 92/91/64 95/88/64
f 8/5/95 93/98/95 89/94/95
f 22/112/96 92/91/96 13/117/96
f 25/116/97 88/90/97 3/118/97
f 28/114/98 91/87/98 14/119/98
f 33/6/99 90/84/99 11/61/99
f 7/70/100 98/100/101 84/73/102
f 65/99/103 88/69/103 51/77/103
f 56/81/104 86/3/104 85/28/104
f 56/81/105 87/30/105 65/99/105
f 52/120/106 86/3/106 64/80/106
f 83/1/107 4/53/107 32/2/107
f 38/4/108 19/121/108 8/5/108
f 68/7/109 6/50/109 34/8/109
f 26/10/110 2/122/110 31/11/110
f 73/13/88 79/71/87 5/14/111
f 75/16/112 78/123/112 2/17/112
f 27/19/113 9/60/113 44/20/113
f 69/22/114 12/59/114 43/23/114
f 21/25/115 11/61/115 42/26/115
f 85/28/116 10/58/116 41/29/116
f 49/31/117 30/56/117 18/32/117
f 47/34/118 24/51/118 17/35/118
f 70/37/119 16/57/119 23/38/119
f 71/40/120 15/52/43 29/41/45
f 37/43/121 23/49/121 16/44/121
f 39/46/122 28/124/122 14/47/122
f 34/8/123 6/50/123 23/49/123
f 72/39/124 23/38/124 6/50/124
f 43/23/125 12/59/125 24/51/125
f 18/32/126 21/25/126 48/27/126
f 71/40/127 73/13/127 20/15/127
f 14/47/128 19/121/128 38/4/128
f 4/53/129 28/124/129 39/46/129
f 74/42/130 29/41/130 1/54/130
f 41/29/131 10/58/131 30/56/131
f 17/35/132 27/19/132 50/21/132
f 70/37/133 75/16/133 26/18/133
f 16/44/134 26/10/134 40/12/134
f 35/45/135 40/12/135 27/19/135
f 32/2/136 39/46/136 30/56/136
f 18/32/137 36/48/137 38/4/137
f 12/59/138 34/8/138 37/43/138
f 39/46/139 36/48/139 18/32/139
f 24/51/140 37/43/140 35/45/140
f 40/12/141 31/11/141 9/60/141
f 76/9/142 34/8/142 12/59/142
f 21/25/143 38/4/143 33/6/143
f 85/28/144 86/3/144 32/2/144
f 15/62/145 46/36/145 50/21/145
f 3/64/146 41/29/146 49/31/146
f 45/33/147 48/27/147 22/66/147
f 43/23/148 47/34/148 20/68/148
f 47/34/149 46/36/149 15/62/149
f 25/65/150 49/31/150 45/33/150
f 87/30/51 41/29/151 3/64/52
f 48/27/152 42/26/152 7/70/152
f 79/71/153 77/24/153 43/23/153
f 29/63/154 50/21/154 44/20/154
f 84/73/102 98/100/101 66/74/155
f 82/76/156 65/99/156 51/77/156
f 80/79/157 81/106/157 64/80/157
f 97/82/158 63/104/158 55/83/158
f 96/85/159 62/102/159 57/86/159
f 95/88/160 61/97/160 51/89/160
f 92/91/161 94/103/161 60/92/161
f 89/94/162 93/98/162 59/95/162
f 92/91/163 58/93/163 61/97/163
f 93/98/164 91/87/164 57/86/164
f 82/76/165 80/79/165 56/81/165
f 98/100/166 90/84/166 55/83/166
f 83/101/167 52/111/167 62/102/167
f 94/103/168 84/73/168 53/75/168
f 97/82/169 89/94/169 54/96/169
f 78/105/170 52/120/170 64/80/170
f 31/107/171 2/125/171 78/105/171
f 44/108/172 9/109/172 80/79/172
f 9/109/173 31/107/173 81/106/173
f 44/108/174 82/76/174 67/78/174
f 53/75/175 66/74/175 77/24/175
f 63/104/176 76/9/176 69/22/176
f 62/102/177 75/16/177 70/37/177
f 61/97/178 74/42/26 67/55/28
f 58/93/179 60/92/179 73/13/179
f 54/96/180 59/95/180 72/39/180
f 58/93/181 71/40/181 74/42/181
f 59/95/182 57/86/182 70/37/182
f 55/83/183 69/22/183 77/24/183
f 52/111/184 78/123/184 75/16/184
f 60/92/185 53/75/185 79/71/185
f 63/104/186 54/96/186 68/7/186
f 33/6/187 8/5/187 89/94/187
f 22/112/188 7/70/188 84/73/188
f 4/113/189 83/101/189 96/85/189
f 42/26/190 11/61/190 90/84/190
f 19/115/191 14/119/191 91/87/191
f 25/116/192 13/117/192 92/91/192
f 8/5/193 19/115/193 93/98/193
f 22/112/161 94/103/161 92/91/161
f 25/116/194 95/88/194 88/90/194
f 28/114/195 96/85/195 91/87/195
f 33/6/196 97/82/196 90/84/196
f 7/70/100 42/26/197 98/100/101
f 65/99/198 87/30/51 88/69/53
f 56/81/199 64/80/199 86/3/199
f 56/81/200 85/28/200 87/30/200
f 52/120/201 83/1/201 86/3/201
