# Blender 4.4.1
# www.blender.org
mtllib stageCube1.mtl
o 立方体
v 1.000000 -1.000000 1.000000
v 1.000000 1.000000 1.000000
v -1.000000 -1.000000 1.000000
v -1.000000 1.000000 1.000000
v 1.000000 -1.000000 -1.000000
v 1.000000 1.000000 -1.000000
v -1.000000 -1.000000 -1.000000
v -1.000000 1.000000 -1.000000
v 0.000000 0.500000 1.000000
v 0.000000 1.000000 1.000000
v 0.000000 0.500000 -1.000000
v 0.000000 1.000000 -1.000000
v -0.500000 1.000000 1.000000
v -0.500000 -1.000000 -1.000000
v -0.500000 -1.000000 1.000000
v -0.500000 1.000000 -1.000000
v 0.500000 -1.000000 1.000000
v 0.500000 1.000000 -1.000000
v 0.500000 1.000000 1.000000
v 0.500000 -1.000000 -1.000000
v 1.000000 0.000000 1.000000
v -1.000000 0.000000 1.000000
v -1.000000 -0.000000 -1.000000
v 1.000000 -0.000000 -1.000000
v -0.500000 -0.000000 -1.000000
v -0.500000 0.000000 1.000000
v 0.500000 0.000000 1.000000
v 0.500000 -0.000000 -1.000000
v -1.000000 -0.500000 1.000000
v -1.000000 -0.500000 -1.000000
v 1.000000 -0.500000 -1.000000
v -0.500000 -0.500000 -1.000000
v -0.500000 -0.500000 1.000000
v 0.500000 -0.500000 1.000000
v 0.500000 -0.500000 -1.000000
v 1.000000 -0.500000 1.000000
v 1.000000 0.500000 1.000000
v -1.000000 0.500000 1.000000
v -1.000000 0.500000 -1.000000
v 1.000000 0.500000 -1.000000
v -0.500000 0.500000 -1.000000
v -0.500000 0.500000 1.000000
v 0.500000 0.500000 1.000000
v 0.500000 0.500000 -1.000000
v -0.250000 1.000000 -1.000000
v -0.250000 1.000000 1.000000
v 0.250000 1.000000 1.000000
v 0.250000 1.000000 -1.000000
vn -0.0000 -0.0000 1.0000
vn -1.0000 -0.0000 -0.0000
vn -0.0000 -0.0000 -1.0000
vn 1.0000 -0.0000 -0.0000
vn -0.0000 -1.0000 -0.0000
vn -0.0000 1.0000 -0.0000
vn -0.0001 1.0000 -0.0001
vn -0.0000 1.0000 0.0001
vn -0.0000 1.0000 -0.0001
vn 0.0001 1.0000 -0.0000
vn -0.4472 -0.0000 -0.8944
vn 0.0001 1.0000 -0.0001
vt 0.625000 0.187500
vt 0.562500 0.250000
vt 0.562500 0.187500
vt 0.625000 0.250000
vt 0.562500 0.500000
vt 0.625000 0.687500
vt 0.562500 0.750000
vt 0.562500 0.687500
vt 0.625000 0.750000
vt 0.562500 1.000000
vt 0.375000 0.687500
vt 0.125000 0.750000
vt 0.125000 0.687500
vt 0.875000 0.687500
vt 0.875000 0.593750
vt 0.625000 0.625000
vt 0.625000 0.593750
vt 0.375000 0.593750
vt 0.125000 0.625000
vt 0.125000 0.593750
vt 0.562500 0.625000
vt 0.562500 0.593750
vt 0.625000 0.093750
vt 0.562500 0.125000
vt 0.562500 0.093750
vt 0.625000 0.500000
vt 0.562500 0.562500
vt 0.375000 0.500000
vt 0.125000 0.562500
vt 0.125000 0.500000
vt 0.875000 0.500000
vt 0.625000 0.562500
vt 0.562500 0.156250
vt 0.625000 0.156250
vt 0.625000 0.000000
vt 0.562500 0.062500
vt 0.562500 0.000000
vt 0.875000 0.656250
vt 0.625000 0.656250
vt 0.375000 0.656250
vt 0.125000 0.656250
vt 0.562500 0.656250
vt 0.500000 0.656250
vt 0.500000 0.687500
vt 0.437500 0.687500
vt 0.500000 0.000000
vt 0.437500 0.062500
vt 0.437500 0.000000
vt 0.500000 0.156250
vt 0.500000 0.187500
vt 0.437500 0.187500
vt 0.500000 0.500000
vt 0.437500 0.562500
vt 0.437500 0.500000
vt 0.500000 0.750000
vt 0.437500 1.000000
vt 0.437500 0.750000
vt 0.500000 0.250000
vt 0.437500 0.250000
vt 0.375000 0.250000
vt 0.375000 0.187500
vt 0.375000 0.750000
vt 0.375000 1.000000
vt 0.375000 0.562500
vt 0.437500 0.156250
vt 0.375000 0.062500
vt 0.375000 0.000000
vt 0.437500 0.656250
vt 0.500000 0.062500
vt 0.500000 0.562500
vt 0.500000 1.000000
vt 0.437500 0.593750
vt 0.875000 0.562500
vt 0.375000 0.093750
vt 0.437500 0.093750
vt 0.375000 0.625000
vt 0.875000 0.625000
vt 0.625000 0.062500
vt 0.625000 1.000000
vt 0.875000 0.750000
vt 0.625000 0.125000
s 1
usemtl マテリアル.001
f 13/1/1 38/2/1 42/3/1
f 4/4/2 39/5/2 38/2/2
f 18/6/3 40/7/3 44/8/3
f 6/9/4 37/10/4 40/7/4
f 20/11/5 1/12/5 17/13/5
f 19/14/6 6/9/6 18/6/6
f 46/15/6 12/16/6 45/17/6
f 41/18/5 9/19/5 42/20/5
f 45/17/3 11/21/3 41/22/3
f 47/23/1 9/24/1 43/25/1
f 8/26/3 41/27/3 39/5/3
f 7/28/5 15/29/5 3/30/5
f 4/31/6 16/32/6 8/26/6
f 42/33/1 46/34/1 13/1/1
f 2/35/1 43/36/1 37/37/1
f 47/38/6 18/6/6 48/39/6
f 44/40/2 17/13/2 43/41/2
f 44/42/3 48/39/3 18/6/3
s 0
f 44/43/7 28/44/6 35/45/6
s 1
f 21/46/1 34/47/1 36/48/1
s 0
f 42/49/8 26/50/6 33/51/6
s 1
f 23/52/3 32/53/3 30/54/3
f 24/55/4 36/56/4 31/57/4
f 28/44/3 31/57/3 35/45/3
f 22/58/2 30/54/2 29/59/2
f 26/50/1 29/59/1 33/51/1
f 33/51/1 3/60/1 15/61/1
f 29/59/2 7/28/2 3/60/2
f 35/45/3 5/62/3 20/11/3
f 31/57/4 1/63/4 5/62/4
f 30/54/3 14/64/3 7/28/3
s 0
f 42/65/9 33/51/6 15/61/6
s 1
f 36/48/1 17/66/1 1/67/1
s 0
f 44/68/10 35/45/6 20/11/6
s 1
f 37/37/1 27/69/1 21/46/1
f 39/5/3 25/70/3 23/52/3
f 40/7/4 21/71/4 24/55/4
f 44/8/3 24/55/3 28/44/3
f 38/2/2 23/52/2 22/58/2
f 42/3/1 22/58/1 26/50/1
s 0
f 14/64/11 32/53/11 41/18/11
f 32/53/6 25/70/6 41/72/8
s 1
f 9/24/1 46/34/1 42/33/1
f 41/27/3 16/32/3 45/17/3
f 14/64/4 42/20/4 15/29/4
f 13/73/6 45/17/6 16/32/6
s 0
f 17/66/6 34/47/6 43/74/8
f 34/47/6 27/69/6 43/75/12
s 1
f 11/21/3 48/39/3 44/42/3
f 11/76/5 43/41/5 9/19/5
f 10/77/6 48/39/6 12/16/6
f 43/36/1 19/78/1 47/23/1
f 13/1/1 4/4/1 38/2/1
f 4/4/2 8/26/2 39/5/2
f 18/6/3 6/9/3 40/7/3
f 6/9/4 2/79/4 37/10/4
f 20/11/5 5/62/5 1/12/5
f 19/14/6 2/80/6 6/9/6
f 46/15/6 10/77/6 12/16/6
f 41/18/5 11/76/5 9/19/5
f 45/17/3 12/16/3 11/21/3
f 47/23/1 10/81/1 9/24/1
f 8/26/3 16/32/3 41/27/3
f 7/28/5 14/64/5 15/29/5
f 4/31/6 13/73/6 16/32/6
f 2/35/1 19/78/1 43/36/1
f 47/38/6 19/14/6 18/6/6
f 44/40/2 20/11/2 17/13/2
f 21/46/1 27/69/1 34/47/1
f 23/52/3 25/70/3 32/53/3
f 24/55/4 21/71/4 36/56/4
f 28/44/3 24/55/3 31/57/3
f 22/58/2 23/52/2 30/54/2
f 26/50/1 22/58/1 29/59/1
f 33/51/1 29/59/1 3/60/1
f 29/59/2 30/54/2 7/28/2
f 35/45/3 31/57/3 5/62/3
f 31/57/4 36/56/4 1/63/4
f 30/54/3 32/53/3 14/64/3
f 36/48/1 34/47/1 17/66/1
f 37/37/1 43/36/1 27/69/1
f 39/5/3 41/27/3 25/70/3
f 40/7/4 37/10/4 21/71/4
f 44/8/3 40/7/3 24/55/3
f 38/2/2 39/5/2 23/52/2
f 42/3/1 38/2/1 22/58/1
f 9/24/1 10/81/1 46/34/1
f 14/64/4 41/18/4 42/20/4
f 13/73/6 46/15/6 45/17/6
f 11/21/3 12/16/3 48/39/3
f 11/76/5 44/40/5 43/41/5
f 10/77/6 47/38/6 48/39/6
