# Blender 4.4.1
# www.blender.org
mtllib stageGraunod.mtl
o 立方体
v -100.000000 -8.500000 100.000000
v -100.000000 38.982349 100.000000
v -100.000000 -8.500000 -100.000000
v -100.000000 38.982349 -100.000000
v 100.000000 -8.499989 100.000000
v 100.000000 38.982349 100.000000
v 100.000000 -8.499989 -100.000000
v 100.000000 38.982349 -100.000000
v 0.000000 -8.500000 -100.000000
v 0.000000 -6.500000 -100.000000
v 0.000000 -8.500000 100.000000
v 0.000000 -6.500000 100.000000
v 50.000000 -6.500000 -100.000000
v 50.000000 -8.500000 100.000000
v 50.000000 -8.500000 -100.000000
v 50.000000 -6.500000 100.000000
v -50.000000 -8.500000 -100.000000
v -50.000000 -6.500000 100.000000
v -50.000000 -6.500000 -100.000000
v -50.000000 -8.500000 100.000000
v -100.000000 -8.500000 0.000000
v -100.000000 38.982349 0.000000
v 100.000000 -8.499989 0.000000
v 100.000000 38.982349 0.000000
v 0.000000 -6.500000 0.000000
v 0.000000 -8.500000 0.000000
v 50.000000 -6.500000 0.000000
v 50.000000 -8.500000 0.000000
v -50.000000 -8.500000 0.000000
v -50.000000 -6.500000 0.000000
v -100.000000 38.982349 -50.000000
v 100.000000 -8.499989 -50.000000
v -100.000000 -8.500000 -50.000000
v 100.000000 38.982349 -50.000000
v 0.000000 -6.500000 -50.000000
v 0.000000 -8.500000 -50.000000
v 50.000000 -6.500000 -50.000000
v 50.000000 -8.500000 -50.000000
v -50.000000 -8.500000 -50.000000
v -50.000000 -6.500000 -50.000000
v -100.000000 -8.500000 50.000000
v 100.000000 38.982349 50.000000
v 0.000000 -6.500000 50.000000
v 0.000000 -8.500000 50.000000
v 50.000000 -6.500000 50.000000
v 50.000000 -8.500000 50.000000
v -50.000000 -8.500000 50.000000
v -50.000000 -6.500000 50.000000
v -100.000000 38.982349 50.000000
v 100.000000 -8.499989 50.000000
v 25.000000 -8.500000 -100.000000
v 25.000000 -6.500000 100.000000
v 25.000000 -6.500000 -100.000000
v 25.000000 -8.500000 100.000000
v 25.000000 -8.500000 0.000000
v 25.000000 -6.500000 0.000000
v 25.000000 -6.500000 -50.000000
v 25.000000 -8.500000 -50.000000
v 25.000000 -8.500000 50.000000
v 25.000000 -6.500000 50.000000
v -25.000000 -6.500000 -100.000000
v -25.000000 -8.500000 100.000000
v -25.000000 -8.500000 -100.000000
v -25.000000 -6.500000 100.000000
v -25.000000 -6.500000 0.000000
v -25.000000 -8.500000 0.000000
v -25.000000 -8.500000 -50.000000
v -25.000000 -6.500000 -50.000000
v -25.000000 -6.500000 50.000000
v -25.000000 -8.500000 50.000000
v -75.000000 -8.500000 -100.000000
v -82.786705 10.898701 100.000000
v -82.786705 10.898701 -100.000000
v -75.000000 -8.500000 100.000000
v -75.000000 -8.500000 0.000000
v -82.786705 10.898701 0.000000
v -82.786705 10.898701 -50.000000
v -75.000000 -8.500000 -50.000000
v -75.000000 -8.500000 50.000000
v -82.786705 10.898701 50.000000
v 82.786705 10.898701 -100.000000
v 75.000000 -8.500000 100.000000
v 75.000000 -8.500000 -100.000000
v 82.786705 10.898701 100.000000
v 82.786705 10.898701 0.000000
v 75.000000 -8.500000 0.000000
v 75.000000 -8.500000 -50.000000
v 82.786705 10.898701 -50.000000
v 82.786705 10.898701 50.000000
v 75.000000 -8.500000 50.000000
v -100.000000 38.982349 -75.000000
v 100.000000 -8.499989 -75.000000
v -100.000000 -8.500000 -75.000000
v 100.000000 38.982349 -75.000000
v 0.000000 -6.500000 -75.000000
v 0.000000 -8.500000 -75.000000
v 50.000000 -6.500000 -75.000000
v 50.000000 -8.500000 -75.000000
v -50.000000 -8.500000 -75.000000
v -50.000000 -6.500000 -75.000000
v 25.000000 -8.500000 -75.000000
v 25.000000 -6.500000 -75.000000
v -25.000000 -6.500000 -75.000000
v -25.000000 -8.500000 -75.000000
v -75.000000 -8.500000 -75.000000
v -82.786705 10.898701 -75.000000
v 82.786705 10.898701 -75.000000
v 75.000000 -8.500000 -75.000000
v -100.000000 -8.500000 -25.000000
v 100.000000 38.982349 -25.000000
v 0.000000 -6.500000 -25.000000
v 0.000000 -8.500000 -25.000000
v 50.000000 -6.500000 -25.000000
v 50.000000 -8.500000 -25.000000
v -50.000000 -8.500000 -25.000000
v -50.000000 -6.500000 -25.000000
v -100.000000 38.982349 -25.000000
v 100.000000 -8.499989 -25.000000
v 25.000000 -6.500000 -25.000000
v 25.000000 -8.500000 -25.000000
v -25.000000 -8.500000 -25.000000
v -25.000000 -6.500000 -25.000000
v -82.786705 10.898701 -25.000000
v -75.000000 -8.500000 -25.000000
v 75.000000 -8.500000 -25.000000
v 82.786705 10.898701 -25.000000
v -100.000000 38.982349 25.000000
v 100.000000 -8.499989 25.000000
v -100.000000 -8.500000 25.000000
v 100.000000 38.982349 25.000000
v 0.000000 -6.500000 25.000000
v 0.000000 -8.500000 25.000000
v 50.000000 -6.500000 25.000000
v 50.000000 -8.500000 25.000000
v -50.000000 -8.500000 25.000000
v -50.000000 -6.500000 25.000000
v 25.000000 -6.500000 25.000000
v 25.000000 -8.500000 25.000000
v -25.000000 -8.500000 25.000000
v -25.000000 -6.500000 25.000000
v -82.786705 10.898701 25.000000
v -75.000000 -8.500000 25.000000
v 75.000000 -8.500000 25.000000
v 82.786705 10.898701 25.000000
v -100.000000 -8.500000 75.000000
v 100.000000 38.982349 75.000000
v 0.000000 -6.500000 75.000000
v 0.000000 -8.500000 75.000000
v 50.000000 -6.500000 75.000000
v 50.000000 -8.500000 75.000000
v -50.000000 -8.500000 75.000000
v -50.000000 -6.500000 75.000000
v -100.000000 38.982349 75.000000
v 100.000000 -8.499989 75.000000
v 25.000000 -8.500000 75.000000
v 25.000000 -6.500000 75.000000
v -25.000000 -6.500000 75.000000
v -25.000000 -8.500000 75.000000
v -75.000000 -8.500000 75.000000
v -82.786705 10.898701 75.000000
v 82.786705 10.898701 75.000000
v 75.000000 -8.500000 75.000000
v -70.066238 -6.500000 -100.000000
v -70.066238 -8.500000 100.000000
v -70.066238 -6.500000 0.000000
v -70.066238 -6.500000 -50.000000
v -70.066238 -6.500000 50.000000
v -70.066238 -8.500000 -100.000000
v -70.066238 -6.500000 100.000000
v -62.500000 -8.500000 0.000000
v -62.500000 -8.500000 -50.000000
v -62.500000 -8.500000 50.000000
v -70.066238 -6.500000 -75.000000
v -62.500000 -8.500000 -75.000000
v -70.066238 -6.500000 -25.000000
v -62.500000 -8.500000 -25.000000
v -70.066238 -6.500000 25.000000
v -62.500000 -8.500000 25.000000
v -70.066238 -6.500000 75.000000
v -62.500000 -8.500000 75.000000
v -87.500000 -8.500000 -100.000000
v -91.608368 17.431093 100.000000
v -87.500000 -8.500000 0.000000
v -87.500000 -8.500000 -50.000000
v -87.500000 -8.500000 50.000000
v -91.608368 17.431093 -100.000000
v -87.500000 -8.500000 100.000000
v -91.608368 17.431093 0.000000
v -91.608368 17.431093 -50.000000
v -91.608368 17.431093 50.000000
v -87.500000 -8.500000 -75.000000
v -91.608368 17.431093 -75.000000
v -87.500000 -8.500000 -25.000000
v -91.608368 17.431093 -25.000000
v -87.500000 -8.500000 25.000000
v -91.608368 17.431093 25.000000
v -87.500000 -8.500000 75.000000
v -91.608368 17.431093 75.000000
v -37.500000 -8.500000 -100.000000
v -37.500000 -6.500000 100.000000
v -37.500000 -8.500000 0.000000
v -37.500000 -8.500000 -50.000000
v -37.500000 -8.500000 50.000000
v -37.500000 -6.500000 -100.000000
v -37.500000 -8.500000 100.000000
v -37.500000 -6.500000 0.000000
v -37.500000 -6.500000 -50.000000
v -37.500000 -6.500000 50.000000
v -37.500000 -8.500000 -75.000000
v -37.500000 -6.500000 -75.000000
v -37.500000 -8.500000 -25.000000
v -37.500000 -6.500000 -25.000000
v -37.500000 -8.500000 25.000000
v -37.500000 -6.500000 25.000000
v -37.500000 -8.500000 75.000000
v -37.500000 -6.500000 75.000000
v -12.500000 -6.500000 -100.000000
v -12.500000 -8.500000 100.000000
v -12.500000 -6.500000 0.000000
v -12.500000 -6.500000 -50.000000
v -12.500000 -6.500000 50.000000
v -12.500000 -8.500000 -100.000000
v -12.500000 -6.500000 100.000000
v -12.500000 -8.500000 0.000000
v -12.500000 -8.500000 -50.000000
v -12.500000 -8.500000 50.000000
v -12.500000 -6.500000 -75.000000
v -12.500000 -8.500000 -75.000000
v -12.500000 -6.500000 -25.000000
v -12.500000 -8.500000 -25.000000
v -12.500000 -6.500000 25.000000
v -12.500000 -8.500000 25.000000
v -12.500000 -6.500000 75.000000
v -12.500000 -8.500000 75.000000
v 12.500000 -8.500000 -100.000000
v 12.500000 -6.500000 100.000000
v 12.500000 -8.500000 0.000000
v 12.500000 -8.500000 -50.000000
v 12.500000 -8.500000 50.000000
v 12.500000 -6.500000 -100.000000
v 12.500000 -8.500000 100.000000
v 12.500000 -6.500000 0.000000
v 12.500000 -6.500000 -50.000000
v 12.500000 -6.500000 50.000000
v 12.500000 -8.500000 -75.000000
v 12.500000 -6.500000 -75.000000
v 12.500000 -8.500000 -25.000000
v 12.500000 -6.500000 -25.000000
v 12.500000 -8.500000 25.000000
v 12.500000 -6.500000 25.000000
v 12.500000 -8.500000 75.000000
v 12.500000 -6.500000 75.000000
v 37.500000 -6.500000 -100.000000
v 37.500000 -8.500000 100.000000
v 37.500000 -6.500000 0.000000
v 37.500000 -6.500000 -50.000000
v 37.500000 -6.500000 50.000000
v 37.500000 -8.500000 -100.000000
v 37.500000 -6.500000 100.000000
v 37.500000 -8.500000 0.000000
v 37.500000 -8.500000 -50.000000
v 37.500000 -8.500000 50.000000
v 37.500000 -6.500000 -75.000000
v 37.500000 -8.500000 -75.000000
v 37.500000 -6.500000 -25.000000
v 37.500000 -8.500000 -25.000000
v 37.500000 -6.500000 25.000000
v 37.500000 -8.500000 25.000000
v 37.500000 -6.500000 75.000000
v 37.500000 -8.500000 75.000000
v 70.066238 -8.500000 -100.000000
v 70.066238 -6.500000 100.000000
v 62.500000 -8.500000 0.000000
v 62.500000 -8.500000 -50.000000
v 62.500000 -8.500000 50.000000
v 70.066238 -6.500000 -100.000000
v 70.066238 -8.500000 100.000000
v 70.066238 -6.500000 0.000000
v 70.066238 -6.500000 -50.000000
v 70.066238 -6.500000 50.000000
v 62.500000 -8.500000 -75.000000
v 70.066238 -6.500000 -75.000000
v 62.500000 -8.500000 -25.000000
v 70.066238 -6.500000 -25.000000
v 62.500000 -8.500000 25.000000
v 70.066238 -6.500000 25.000000
v 62.500000 -8.500000 75.000000
v 70.066238 -6.500000 75.000000
v 91.608368 17.431093 -100.000000
v 87.500000 -8.500000 100.000000
v 91.608368 17.431093 0.000000
v 91.608368 17.431093 -50.000000
v 91.608368 17.431093 50.000000
v 87.500000 -8.500000 -100.000000
v 91.608368 17.431093 100.000000
v 87.500000 -8.500000 0.000000
v 87.500000 -8.500000 -50.000000
v 87.500000 -8.500000 50.000000
v 91.608368 17.431093 -75.000000
v 87.500000 -8.500000 -75.000000
v 91.608368 17.431093 -25.000000
v 87.500000 -8.500000 -25.000000
v 91.608368 17.431093 25.000000
v 87.500000 -8.500000 25.000000
v 91.608368 17.431093 75.000000
v 87.500000 -8.500000 75.000000
v -100.000000 38.982349 -87.500000
v 100.000000 -8.499989 -87.500000
v -100.000000 -8.500000 -87.500000
v 100.000000 38.982349 -87.500000
v 0.000000 -6.500000 -87.500000
v 0.000000 -8.500000 -87.500000
v 50.000000 -6.500000 -87.500000
v 50.000000 -8.500000 -87.500000
v -50.000000 -8.500000 -87.500000
v -50.000000 -6.500000 -87.500000
v 25.000000 -8.500000 -87.500000
v 25.000000 -6.500000 -87.500000
v -25.000000 -6.500000 -87.500000
v -25.000000 -8.500000 -87.500000
v -75.000000 -8.500000 -87.500000
v -82.786705 10.898701 -87.500000
v 82.786705 10.898701 -87.500000
v 75.000000 -8.500000 -87.500000
v -62.500000 -8.500000 -87.500000
v -70.066238 -6.500000 -87.500000
v -91.608368 17.431093 -87.500000
v -87.500000 -8.500000 -87.500000
v -37.500000 -6.500000 -87.500000
v -37.500000 -8.500000 -87.500000
v -12.500000 -8.500000 -87.500000
v -12.500000 -6.500000 -87.500000
v 12.500000 -6.500000 -87.500000
v 12.500000 -8.500000 -87.500000
v 37.500000 -8.500000 -87.500000
v 37.500000 -6.500000 -87.500000
v 70.066238 -6.500000 -87.500000
v 62.500000 -8.500000 -87.500000
v 87.500000 -8.500000 -87.500000
v 91.608368 17.431093 -87.500000
v -100.000000 -8.500000 -62.500000
v 100.000000 38.982349 -62.500000
v 0.000000 -6.500000 -62.500000
v 0.000000 -8.500000 -62.500000
v 50.000000 -6.500000 -62.500000
v 50.000000 -8.500000 -62.500000
v -50.000000 -8.500000 -62.500000
v -50.000000 -6.500000 -62.500000
v 25.000000 -8.500000 -62.500000
v 25.000000 -6.500000 -62.500000
v -25.000000 -6.500000 -62.500000
v -25.000000 -8.500000 -62.500000
v -75.000000 -8.500000 -62.500000
v -82.786705 10.898701 -62.500000
v 82.786705 10.898701 -62.500000
v 75.000000 -8.500000 -62.500000
v -100.000000 38.982349 -62.500000
v 100.000000 -8.499989 -62.500000
v -70.066238 -6.500000 -62.500000
v -62.500000 -8.500000 -62.500000
v -87.500000 -8.500000 -62.500000
v -91.608368 17.431093 -62.500000
v -37.500000 -8.500000 -62.500000
v -37.500000 -6.500000 -62.500000
v -12.500000 -6.500000 -62.500000
v -12.500000 -8.500000 -62.500000
v 12.500000 -8.500000 -62.500000
v 12.500000 -6.500000 -62.500000
v 37.500000 -6.500000 -62.500000
v 37.500000 -8.500000 -62.500000
v 62.500000 -8.500000 -62.500000
v 70.066238 -6.500000 -62.500000
v 91.608368 17.431093 -62.500000
v 87.500000 -8.500000 -62.500000
v -100.000000 38.982349 -37.500000
v 100.000000 -8.499989 -37.500000
v -100.000000 -8.500000 -37.500000
v 100.000000 38.982349 -37.500000
v 0.000000 -6.500000 -37.500000
v 0.000000 -8.500000 -37.500000
v 50.000000 -6.500000 -37.500000
v 50.000000 -8.500000 -37.500000
v -50.000000 -8.500000 -37.500000
v -50.000000 -6.500000 -37.500000
v 25.000000 -6.500000 -37.500000
v 25.000000 -8.500000 -37.500000
v -25.000000 -8.500000 -37.500000
v -25.000000 -6.500000 -37.500000
v -82.786705 10.898701 -37.500000
v -75.000000 -8.500000 -37.500000
v 75.000000 -8.500000 -37.500000
v 82.786705 10.898701 -37.500000
v -62.500000 -8.500000 -37.500000
v -70.066238 -6.500000 -37.500000
v -91.608368 17.431093 -37.500000
v -87.500000 -8.500000 -37.500000
v -37.500000 -6.500000 -37.500000
v -37.500000 -8.500000 -37.500000
v -12.500000 -8.500000 -37.500000
v -12.500000 -6.500000 -37.500000
v 12.500000 -6.500000 -37.500000
v 12.500000 -8.500000 -37.500000
v 37.500000 -8.500000 -37.500000
v 37.500000 -6.500000 -37.500000
v 70.066238 -6.500000 -37.500000
v 62.500000 -8.500000 -37.500000
v 87.500000 -8.500000 -37.500000
v 91.608368 17.431093 -37.500000
v -100.000000 -8.500000 -12.500000
v 100.000000 38.982349 -12.500000
v 0.000000 -6.500000 -12.500000
v 0.000000 -8.500000 -12.500000
v 50.000000 -6.500000 -12.500000
v 50.000000 -8.500000 -12.500000
v -50.000000 -8.500000 -12.500000
v -50.000000 -6.500000 -12.500000
v 25.000000 -6.500000 -12.500000
v 25.000000 -8.500000 -12.500000
v -25.000000 -8.500000 -12.500000
v -25.000000 -6.500000 -12.500000
v -82.786705 10.898701 -12.500000
v -75.000000 -8.500000 -12.500000
v 75.000000 -8.500000 -12.500000
v 82.786705 10.898701 -12.500000
v -100.000000 38.982349 -12.500000
v 100.000000 -8.499989 -12.500000
v -70.066238 -6.500000 -12.500000
v -62.500000 -8.500000 -12.500000
v -87.500000 -8.500000 -12.500000
v -91.608368 17.431093 -12.500000
v -37.500000 -8.500000 -12.500000
v -37.500000 -6.500000 -12.500000
v -12.500000 -6.500000 -12.500000
v -12.500000 -8.500000 -12.500000
v 12.500000 -8.500000 -12.500000
v 12.500000 -6.500000 -12.500000
v 37.500000 -6.500000 -12.500000
v 37.500000 -8.500000 -12.500000
v 62.500000 -8.500000 -12.500000
v 70.066238 -6.500000 -12.500000
v 91.608368 17.431093 -12.500000
v 87.500000 -8.500000 -12.500000
v -100.000000 38.982349 12.500000
v 100.000000 -8.499989 12.500000
v -100.000000 -8.500000 12.500000
v 100.000000 38.982349 12.500000
v 0.000000 -6.500000 12.500000
v 0.000000 -8.500000 12.500000
v 50.000000 -6.500000 12.500000
v 50.000000 -8.500000 12.500000
v -50.000000 -8.500000 12.500000
v -50.000000 -6.500000 12.500000
v 25.000000 -6.500000 12.500000
v 25.000000 -8.500000 12.500000
v -25.000000 -8.500000 12.500000
v -25.000000 -6.500000 12.500000
v -82.786705 10.898701 12.500000
v -75.000000 -8.500000 12.500000
v 75.000000 -8.500000 12.500000
v 82.786705 10.898701 12.500000
v -62.500000 -8.500000 12.500000
v -70.066238 -6.500000 12.500000
v -91.608368 17.431093 12.500000
v -87.500000 -8.500000 12.500000
v -37.500000 -6.500000 12.500000
v -37.500000 -8.500000 12.500000
v -12.500000 -8.500000 12.500000
v -12.500000 -6.500000 12.500000
v 12.500000 -6.500000 12.500000
v 12.500000 -8.500000 12.500000
v 37.500000 -8.500000 12.500000
v 37.500000 -6.500000 12.500000
v 70.066238 -6.500000 12.500000
v 62.500000 -8.500000 12.500000
v 87.500000 -8.500000 12.500000
v 91.608368 17.431093 12.500000
v -100.000000 -8.500000 37.500000
v 100.000000 38.982349 37.500000
v 0.000000 -6.500000 37.500000
v 0.000000 -8.500000 37.500000
v 50.000000 -6.500000 37.500000
v 50.000000 -8.500000 37.500000
v -50.000000 -8.500000 37.500000
v -50.000000 -6.500000 37.500000
v 25.000000 -6.500000 37.500000
v 25.000000 -8.500000 37.500000
v -25.000000 -8.500000 37.500000
v -25.000000 -6.500000 37.500000
v -82.786705 10.898701 37.500000
v -75.000000 -8.500000 37.500000
v 75.000000 -8.500000 37.500000
v 82.786705 10.898701 37.500000
v -100.000000 38.982349 37.500000
v 100.000000 -8.499989 37.500000
v -70.066238 -6.500000 37.500000
v -62.500000 -8.500000 37.500000
v -87.500000 -8.500000 37.500000
v -91.608368 17.431093 37.500000
v -37.500000 -8.500000 37.500000
v -37.500000 -6.500000 37.500000
v -12.500000 -6.500000 37.500000
v -12.500000 -8.500000 37.500000
v 12.500000 -8.500000 37.500000
v 12.500000 -6.500000 37.500000
v 37.500000 -6.500000 37.500000
v 37.500000 -8.500000 37.500000
v 62.500000 -8.500000 37.500000
v 70.066238 -6.500000 37.500000
v 91.608368 17.431093 37.500000
v 87.500000 -8.500000 37.500000
v -100.000000 38.982349 62.500000
v 100.000000 -8.499989 62.500000
v -100.000000 -8.500000 62.500000
v 100.000000 38.982349 62.500000
v 0.000000 -6.500000 62.500000
v 0.000000 -8.500000 62.500000
v 50.000000 -6.500000 62.500000
v 50.000000 -8.500000 62.500000
v -50.000000 -8.500000 62.500000
v -50.000000 -6.500000 62.500000
v 25.000000 -8.500000 62.500000
v 25.000000 -6.500000 62.500000
v -25.000000 -6.500000 62.500000
v -25.000000 -8.500000 62.500000
v -75.000000 -8.500000 62.500000
v -82.786705 10.898701 62.500000
v 82.786705 10.898701 62.500000
v 75.000000 -8.500000 62.500000
v -62.500000 -8.500000 62.500000
v -70.066238 -6.500000 62.500000
v -91.608368 17.431093 62.500000
v -87.500000 -8.500000 62.500000
v -37.500000 -6.500000 62.500000
v -37.500000 -8.500000 62.500000
v -12.500000 -8.500000 62.500000
v -12.500000 -6.500000 62.500000
v 12.500000 -6.500000 62.500000
v 12.500000 -8.500000 62.500000
v 37.500000 -8.500000 62.500000
v 37.500000 -6.500000 62.500000
v 70.066238 -6.500000 62.500000
v 62.500000 -8.500000 62.500000
v 87.500000 -8.500000 62.500000
v 91.608368 17.431093 62.500000
v -100.000000 -8.500000 87.500000
v 100.000000 38.982349 87.500000
v 0.000000 -6.500000 87.500000
v 0.000000 -8.500000 87.500000
v 50.000000 -6.500000 87.500000
v 50.000000 -8.500000 87.500000
v -50.000000 -8.500000 87.500000
v -50.000000 -6.500000 87.500000
v 25.000000 -8.500000 87.500000
v 25.000000 -6.500000 87.500000
v -25.000000 -6.500000 87.500000
v -25.000000 -8.500000 87.500000
v -75.000000 -8.500000 87.500000
v -82.786705 10.898701 87.500000
v 82.786705 10.898701 87.500000
v 75.000000 -8.500000 87.500000
v -100.000000 38.982349 87.500000
v 100.000000 -8.499989 87.500000
v -70.066238 -6.500000 87.500000
v -62.500000 -8.500000 87.500000
v -87.500000 -8.500000 87.500000
v -91.608368 17.431093 87.500000
v -37.500000 -8.500000 87.500000
v -37.500000 -6.500000 87.500000
v -12.500000 -6.500000 87.500000
v -12.500000 -8.500000 87.500000
v 12.500000 -8.500000 87.500000
v 12.500000 -6.500000 87.500000
v 37.500000 -6.500000 87.500000
v 37.500000 -8.500000 87.500000
v 62.500000 -8.500000 87.500000
v 70.066238 -6.500000 87.500000
v 91.608368 17.431093 87.500000
v 87.500000 -8.500000 87.500000
v -110.000000 -8.499989 87.500000
v -110.000000 -8.499989 100.000000
v -110.000000 47.517590 100.000000
v -110.000000 47.517590 -87.500000
v -110.000000 47.517590 -100.000000
v -110.000000 -8.499989 -100.000000
v -110.000000 -8.499989 -12.500000
v -110.000000 -8.499989 0.000000
v -110.000000 47.517590 12.500000
v -110.000000 47.517590 0.000000
v -110.000000 47.517590 -37.500000
v -110.000000 47.517590 -50.000000
v -110.000000 -8.499989 -62.500000
v -110.000000 -8.499989 -50.000000
v -110.000000 -8.499989 37.500000
v -110.000000 -8.499989 50.000000
v -110.000000 47.517590 62.500000
v -110.000000 47.517590 50.000000
v -110.000000 47.517590 -62.500000
v -110.000000 47.517590 -75.000000
v -110.000000 -8.499989 -87.500000
v -110.000000 -8.499989 -75.000000
v -110.000000 -8.499989 -37.500000
v -110.000000 -8.499989 -25.000000
v -110.000000 47.517590 -12.500000
v -110.000000 47.517590 -25.000000
v -110.000000 47.517590 37.500000
v -110.000000 47.517590 25.000000
v -110.000000 -8.499989 12.500000
v -110.000000 -8.499989 25.000000
v -110.000000 -8.499989 62.500000
v -110.000000 -8.499989 75.000000
v -110.000000 47.517590 87.500000
v -110.000000 47.517590 75.000000
v 110.000000 47.517590 -100.000000
v 110.000000 -8.499989 -100.000000
v 110.000000 -8.499989 -87.500000
v 110.000000 47.517590 87.500000
v 110.000000 47.517590 100.000000
v 110.000000 -8.499989 100.000000
v 110.000000 -8.499989 12.500000
v 110.000000 -8.499989 0.000000
v 110.000000 47.517590 -12.500000
v 110.000000 47.517590 0.000000
v 110.000000 -8.499989 -37.500000
v 110.000000 -8.499989 -50.000000
v 110.000000 47.517590 -62.500000
v 110.000000 47.517590 -50.000000
v 110.000000 47.517590 37.500000
v 110.000000 47.517590 50.000000
v 110.000000 -8.499989 62.500000
v 110.000000 -8.499989 50.000000
v 110.000000 -8.499989 -62.500000
v 110.000000 -8.499989 -75.000000
v 110.000000 47.517590 -87.500000
v 110.000000 47.517590 -75.000000
v 110.000000 47.517590 -37.500000
v 110.000000 47.517590 -25.000000
v 110.000000 -8.499989 -12.500000
v 110.000000 -8.499989 -25.000000
v 110.000000 -8.499989 37.500000
v 110.000000 -8.499989 25.000000
v 110.000000 47.517590 12.500000
v 110.000000 47.517590 25.000000
v 110.000000 47.517590 62.500000
v 110.000000 47.517590 75.000000
v 110.000000 -8.499989 87.500000
v 110.000000 -8.499989 75.000000
vn 0.6492 0.7606 -0.0000
vn -0.0000 -0.0000 -1.0000
vn -0.6492 0.7606 -0.0000
vn -0.0000 -0.0000 1.0000
vn -0.0000 -1.0000 -0.0000
vn 0.9318 0.3628 -0.0000
vn -0.0000 1.0000 -0.0000
vn 0.8073 0.5902 -0.0000
vn -0.5951 0.8037 -0.0000
vn 0.5951 0.8037 -0.0000
vn -0.8073 0.5902 -0.0000
vn -0.9319 0.3628 -0.0000
vn -0.9318 0.3628 -0.0000
vn -1.0000 -0.0000 -0.0000
vn 1.0000 -0.0000 -0.0000
vt 0.875000 0.609375
vt 0.875000 0.625000
vt 0.625000 0.484375
vt 0.375000 0.500000
vt 0.375000 0.484375
vt 0.625000 0.578125
vt 0.625000 0.562500
vt 0.625000 0.984375
vt 0.375000 1.000000
vt 0.375000 0.984375
vt 0.375000 0.734375
vt 0.359375 0.750000
vt 0.359375 0.734375
vt 0.875000 0.734375
vt 0.859375 0.750000
vt 0.859375 0.734375
vt 0.750000 0.734375
vt 0.734375 0.750000
vt 0.734375 0.734375
vt 0.250000 0.734375
vt 0.234375 0.750000
vt 0.234375 0.734375
vt 0.625000 0.859375
vt 0.375000 0.875000
vt 0.375000 0.859375
vt 0.625000 0.359375
vt 0.375000 0.375000
vt 0.375000 0.359375
vt 0.625000 0.796875
vt 0.375000 0.812500
vt 0.375000 0.796875
vt 0.687500 0.734375
vt 0.671875 0.750000
vt 0.671875 0.734375
vt 0.312500 0.734375
vt 0.296875 0.750000
vt 0.296875 0.734375
vt 0.625000 0.421875
vt 0.375000 0.437500
vt 0.375000 0.421875
vt 0.625000 0.296875
vt 0.375000 0.312500
vt 0.375000 0.296875
vt 0.171875 0.734375
vt 0.187500 0.750000
vt 0.171875 0.750000
vt 0.812500 0.734375
vt 0.796875 0.750000
vt 0.796875 0.734375
vt 0.625000 0.921875
vt 0.375000 0.937500
vt 0.375000 0.921875
vt 0.812500 0.609375
vt 0.796875 0.625000
vt 0.796875 0.609375
vt 0.187500 0.609375
vt 0.171875 0.625000
vt 0.171875 0.609375
vt 0.312500 0.609375
vt 0.296875 0.625000
vt 0.296875 0.609375
vt 0.687500 0.609375
vt 0.671875 0.625000
vt 0.671875 0.609375
vt 0.250000 0.609375
vt 0.234375 0.625000
vt 0.234375 0.609375
vt 0.750000 0.609375
vt 0.734375 0.625000
vt 0.734375 0.609375
vt 0.859375 0.625000
vt 0.859375 0.609375
vt 0.375000 0.609375
vt 0.359375 0.625000
vt 0.359375 0.609375
vt 0.375000 0.640625
vt 0.375000 0.656250
vt 0.875000 0.640625
vt 0.625000 0.656250
vt 0.625000 0.640625
vt 0.375000 0.546875
vt 0.359375 0.562500
vt 0.359375 0.546875
vt 0.875000 0.546875
vt 0.859375 0.562500
vt 0.859375 0.546875
vt 0.750000 0.546875
vt 0.734375 0.562500
vt 0.734375 0.546875
vt 0.250000 0.546875
vt 0.234375 0.562500
vt 0.234375 0.546875
vt 0.687500 0.546875
vt 0.671875 0.562500
vt 0.671875 0.546875
vt 0.312500 0.546875
vt 0.296875 0.562500
vt 0.296875 0.546875
vt 0.187500 0.546875
vt 0.171875 0.562500
vt 0.171875 0.546875
vt 0.812500 0.546875
vt 0.796875 0.562500
vt 0.796875 0.546875
vt 0.125000 0.671875
vt 0.125000 0.656250
vt 0.125000 0.625000
vt 0.125000 0.609375
vt 0.812500 0.671875
vt 0.796875 0.687500
vt 0.796875 0.671875
vt 0.187500 0.671875
vt 0.171875 0.687500
vt 0.171875 0.671875
vt 0.312500 0.671875
vt 0.296875 0.687500
vt 0.296875 0.671875
vt 0.687500 0.671875
vt 0.671875 0.687500
vt 0.671875 0.671875
vt 0.250000 0.671875
vt 0.234375 0.687500
vt 0.234375 0.671875
vt 0.750000 0.671875
vt 0.734375 0.687500
vt 0.734375 0.671875
vt 0.875000 0.671875
vt 0.859375 0.687500
vt 0.859375 0.671875
vt 0.375000 0.671875
vt 0.359375 0.687500
vt 0.359375 0.671875
vt 0.375000 0.562500
vt 0.718750 0.671875
vt 0.703125 0.687500
vt 0.703125 0.671875
vt 0.281250 0.671875
vt 0.265625 0.687500
vt 0.265625 0.671875
vt 0.281250 0.546875
vt 0.265625 0.562500
vt 0.265625 0.546875
vt 0.718750 0.546875
vt 0.703125 0.562500
vt 0.703125 0.546875
vt 0.718750 0.609375
vt 0.703125 0.625000
vt 0.703125 0.609375
vt 0.281250 0.609375
vt 0.265625 0.625000
vt 0.265625 0.609375
vt 0.625000 0.390625
vt 0.375000 0.406250
vt 0.375000 0.390625
vt 0.281250 0.734375
vt 0.265625 0.750000
vt 0.265625 0.734375
vt 0.625000 0.828125
vt 0.375000 0.843750
vt 0.375000 0.828125
vt 0.718750 0.734375
vt 0.703125 0.750000
vt 0.703125 0.734375
vt 0.218750 0.671875
vt 0.203125 0.687500
vt 0.203125 0.671875
vt 0.781250 0.671875
vt 0.765625 0.687500
vt 0.765625 0.671875
vt 0.781250 0.546875
vt 0.765625 0.562500
vt 0.765625 0.546875
vt 0.218750 0.546875
vt 0.203125 0.562500
vt 0.203125 0.546875
vt 0.218750 0.609375
vt 0.203125 0.625000
vt 0.203125 0.609375
vt 0.781250 0.609375
vt 0.765625 0.625000
vt 0.765625 0.609375
vt 0.625000 0.890625
vt 0.375000 0.906250
vt 0.375000 0.890625
vt 0.781250 0.734375
vt 0.765625 0.750000
vt 0.765625 0.734375
vt 0.625000 0.328125
vt 0.375000 0.343750
vt 0.375000 0.328125
vt 0.218750 0.734375
vt 0.203125 0.750000
vt 0.203125 0.734375
vt 0.843750 0.671875
vt 0.828125 0.687500
vt 0.828125 0.671875
vt 0.156250 0.671875
vt 0.140625 0.687500
vt 0.140625 0.671875
vt 0.156250 0.546875
vt 0.140625 0.562500
vt 0.140625 0.546875
vt 0.843750 0.546875
vt 0.828125 0.562500
vt 0.828125 0.546875
vt 0.843750 0.609375
vt 0.828125 0.625000
vt 0.828125 0.609375
vt 0.156250 0.609375
vt 0.140625 0.625000
vt 0.140625 0.609375
vt 0.156250 0.734375
vt 0.140625 0.750000
vt 0.140625 0.734375
vt 0.375000 0.265625
vt 0.625000 0.281250
vt 0.375000 0.281250
vt 0.843750 0.734375
vt 0.828125 0.750000
vt 0.828125 0.734375
vt 0.625000 0.953125
vt 0.375000 0.968750
vt 0.375000 0.953125
vt 0.343750 0.671875
vt 0.328125 0.687500
vt 0.328125 0.671875
vt 0.656250 0.671875
vt 0.640625 0.687500
vt 0.640625 0.671875
vt 0.656250 0.546875
vt 0.640625 0.562500
vt 0.640625 0.546875
vt 0.343750 0.546875
vt 0.328125 0.562500
vt 0.328125 0.546875
vt 0.343750 0.609375
vt 0.328125 0.625000
vt 0.328125 0.609375
vt 0.656250 0.609375
vt 0.640625 0.625000
vt 0.640625 0.609375
vt 0.656250 0.734375
vt 0.640625 0.750000
vt 0.640625 0.734375
vt 0.375000 0.765625
vt 0.625000 0.781250
vt 0.375000 0.781250
vt 0.343750 0.734375
vt 0.328125 0.750000
vt 0.328125 0.734375
vt 0.625000 0.453125
vt 0.375000 0.468750
vt 0.375000 0.453125
vt 0.343750 0.515625
vt 0.328125 0.531250
vt 0.328125 0.515625
vt 0.656250 0.515625
vt 0.640625 0.531250
vt 0.640625 0.515625
vt 0.843750 0.515625
vt 0.828125 0.531250
vt 0.828125 0.515625
vt 0.156250 0.515625
vt 0.140625 0.531250
vt 0.140625 0.515625
vt 0.218750 0.515625
vt 0.203125 0.531250
vt 0.203125 0.515625
vt 0.781250 0.515625
vt 0.765625 0.531250
vt 0.765625 0.515625
vt 0.718750 0.515625
vt 0.703125 0.531250
vt 0.703125 0.515625
vt 0.281250 0.515625
vt 0.265625 0.531250
vt 0.265625 0.515625
vt 0.812500 0.515625
vt 0.796875 0.531250
vt 0.796875 0.515625
vt 0.187500 0.515625
vt 0.171875 0.531250
vt 0.171875 0.515625
vt 0.312500 0.515625
vt 0.296875 0.531250
vt 0.296875 0.515625
vt 0.687500 0.515625
vt 0.671875 0.531250
vt 0.671875 0.515625
vt 0.250000 0.515625
vt 0.234375 0.531250
vt 0.234375 0.515625
vt 0.750000 0.515625
vt 0.734375 0.531250
vt 0.734375 0.515625
vt 0.875000 0.515625
vt 0.859375 0.531250
vt 0.859375 0.515625
vt 0.375000 0.515625
vt 0.359375 0.531250
vt 0.359375 0.515625
vt 0.625000 0.609375
vt 0.625000 0.593750
vt 0.125000 0.687500
vt 0.656250 0.578125
vt 0.640625 0.593750
vt 0.640625 0.578125
vt 0.343750 0.578125
vt 0.328125 0.593750
vt 0.328125 0.578125
vt 0.156250 0.578125
vt 0.140625 0.593750
vt 0.140625 0.578125
vt 0.843750 0.578125
vt 0.828125 0.593750
vt 0.828125 0.578125
vt 0.781250 0.578125
vt 0.765625 0.593750
vt 0.765625 0.578125
vt 0.218750 0.578125
vt 0.203125 0.593750
vt 0.203125 0.578125
vt 0.281250 0.578125
vt 0.265625 0.593750
vt 0.265625 0.578125
vt 0.718750 0.578125
vt 0.703125 0.593750
vt 0.703125 0.578125
vt 0.125000 0.578125
vt 0.125000 0.562500
vt 0.625000 0.750000
vt 0.375000 0.750000
vt 0.375000 0.578125
vt 0.359375 0.593750
vt 0.359375 0.578125
vt 0.875000 0.578125
vt 0.859375 0.593750
vt 0.859375 0.578125
vt 0.750000 0.578125
vt 0.734375 0.593750
vt 0.734375 0.578125
vt 0.250000 0.578125
vt 0.234375 0.593750
vt 0.234375 0.578125
vt 0.687500 0.578125
vt 0.671875 0.593750
vt 0.671875 0.578125
vt 0.312500 0.578125
vt 0.296875 0.593750
vt 0.296875 0.578125
vt 0.187500 0.578125
vt 0.171875 0.593750
vt 0.171875 0.578125
vt 0.812500 0.578125
vt 0.796875 0.593750
vt 0.796875 0.578125
vt 0.656250 0.640625
vt 0.640625 0.656250
vt 0.640625 0.640625
vt 0.343750 0.640625
vt 0.328125 0.656250
vt 0.328125 0.640625
vt 0.156250 0.640625
vt 0.140625 0.656250
vt 0.140625 0.640625
vt 0.843750 0.640625
vt 0.828125 0.656250
vt 0.828125 0.640625
vt 0.781250 0.640625
vt 0.765625 0.656250
vt 0.765625 0.640625
vt 0.218750 0.640625
vt 0.203125 0.656250
vt 0.203125 0.640625
vt 0.281250 0.640625
vt 0.265625 0.656250
vt 0.265625 0.640625
vt 0.718750 0.640625
vt 0.703125 0.656250
vt 0.703125 0.640625
vt 0.625000 0.515625
vt 0.625000 0.500000
vt 0.359375 0.656250
vt 0.359375 0.640625
vt 0.859375 0.656250
vt 0.859375 0.640625
vt 0.750000 0.640625
vt 0.734375 0.656250
vt 0.734375 0.640625
vt 0.250000 0.640625
vt 0.234375 0.656250
vt 0.234375 0.640625
vt 0.687500 0.640625
vt 0.671875 0.656250
vt 0.671875 0.640625
vt 0.312500 0.640625
vt 0.296875 0.656250
vt 0.296875 0.640625
vt 0.187500 0.640625
vt 0.171875 0.656250
vt 0.171875 0.640625
vt 0.812500 0.640625
vt 0.796875 0.656250
vt 0.796875 0.640625
vt 0.875000 0.656250
vt 0.343750 0.703125
vt 0.328125 0.718750
vt 0.328125 0.703125
vt 0.656250 0.703125
vt 0.640625 0.718750
vt 0.640625 0.703125
vt 0.843750 0.703125
vt 0.828125 0.718750
vt 0.828125 0.703125
vt 0.156250 0.703125
vt 0.140625 0.718750
vt 0.140625 0.703125
vt 0.218750 0.703125
vt 0.203125 0.718750
vt 0.203125 0.703125
vt 0.781250 0.703125
vt 0.765625 0.718750
vt 0.765625 0.703125
vt 0.718750 0.703125
vt 0.703125 0.718750
vt 0.703125 0.703125
vt 0.281250 0.703125
vt 0.265625 0.718750
vt 0.265625 0.703125
vt 0.125000 0.640625
vt 0.812500 0.703125
vt 0.796875 0.718750
vt 0.796875 0.703125
vt 0.187500 0.703125
vt 0.171875 0.718750
vt 0.171875 0.703125
vt 0.312500 0.703125
vt 0.296875 0.718750
vt 0.296875 0.703125
vt 0.687500 0.703125
vt 0.671875 0.718750
vt 0.671875 0.703125
vt 0.250000 0.703125
vt 0.234375 0.718750
vt 0.234375 0.703125
vt 0.750000 0.703125
vt 0.734375 0.718750
vt 0.734375 0.703125
vt 0.875000 0.703125
vt 0.859375 0.718750
vt 0.859375 0.703125
vt 0.375000 0.703125
vt 0.359375 0.718750
vt 0.359375 0.703125
vt 0.375000 0.593750
vt 0.156250 0.718750
vt 0.812500 0.718750
vt 0.156250 0.656250
vt 0.812500 0.656250
vt 0.156250 0.593750
vt 0.812500 0.593750
vt 0.156250 0.531250
vt 0.812500 0.531250
vt 0.625000 0.937500
vt 0.812500 0.750000
vt 0.812500 0.625000
vt 0.812500 0.562500
vt 0.812500 0.687500
vt 0.156250 0.687500
vt 0.156250 0.562500
vt 0.156250 0.625000
vt 0.156250 0.750000
vt 0.843750 0.718750
vt 0.125000 0.718750
vt 0.125000 0.703125
vt 0.843750 0.656250
vt 0.843750 0.593750
vt 0.125000 0.593750
vt 0.843750 0.531250
vt 0.125000 0.531250
vt 0.125000 0.515625
vt 0.375000 0.250000
vt 0.625000 0.265625
vt 0.125000 0.750000
vt 0.125000 0.734375
vt 0.125000 0.546875
vt 0.843750 0.687500
vt 0.843750 0.562500
vt 0.843750 0.625000
vt 0.843750 0.750000
vt 0.625000 0.968750
vt 0.781250 0.718750
vt 0.187500 0.718750
vt 0.781250 0.656250
vt 0.187500 0.656250
vt 0.781250 0.593750
vt 0.187500 0.593750
vt 0.781250 0.531250
vt 0.187500 0.531250
vt 0.187500 0.734375
vt 0.625000 0.312500
vt 0.187500 0.625000
vt 0.187500 0.562500
vt 0.187500 0.687500
vt 0.781250 0.687500
vt 0.781250 0.562500
vt 0.781250 0.625000
vt 0.625000 0.906250
vt 0.781250 0.750000
vt 0.218750 0.718750
vt 0.750000 0.718750
vt 0.218750 0.656250
vt 0.750000 0.656250
vt 0.218750 0.593750
vt 0.750000 0.593750
vt 0.218750 0.531250
vt 0.750000 0.531250
vt 0.750000 0.750000
vt 0.625000 0.875000
vt 0.750000 0.625000
vt 0.750000 0.562500
vt 0.750000 0.687500
vt 0.218750 0.687500
vt 0.218750 0.562500
vt 0.218750 0.625000
vt 0.625000 0.343750
vt 0.218750 0.750000
vt 0.718750 0.718750
vt 0.250000 0.718750
vt 0.718750 0.656250
vt 0.250000 0.656250
vt 0.718750 0.593750
vt 0.250000 0.593750
vt 0.718750 0.531250
vt 0.250000 0.531250
vt 0.250000 0.750000
vt 0.625000 0.375000
vt 0.250000 0.625000
vt 0.250000 0.562500
vt 0.250000 0.687500
vt 0.718750 0.687500
vt 0.718750 0.562500
vt 0.718750 0.625000
vt 0.625000 0.843750
vt 0.718750 0.750000
vt 0.281250 0.718750
vt 0.687500 0.718750
vt 0.281250 0.656250
vt 0.687500 0.656250
vt 0.281250 0.593750
vt 0.687500 0.593750
vt 0.281250 0.531250
vt 0.687500 0.531250
vt 0.687500 0.750000
vt 0.625000 0.812500
vt 0.687500 0.625000
vt 0.687500 0.562500
vt 0.687500 0.687500
vt 0.281250 0.687500
vt 0.281250 0.562500
vt 0.281250 0.625000
vt 0.625000 0.406250
vt 0.281250 0.750000
vt 0.656250 0.718750
vt 0.312500 0.718750
vt 0.656250 0.656250
vt 0.312500 0.656250
vt 0.656250 0.593750
vt 0.312500 0.593750
vt 0.656250 0.531250
vt 0.312500 0.531250
vt 0.625000 0.437500
vt 0.312500 0.750000
vt 0.312500 0.625000
vt 0.312500 0.562500
vt 0.312500 0.687500
vt 0.656250 0.687500
vt 0.656250 0.562500
vt 0.656250 0.625000
vt 0.656250 0.750000
vt 0.343750 0.718750
vt 0.625000 0.718750
vt 0.625000 0.703125
vt 0.343750 0.656250
vt 0.343750 0.593750
vt 0.343750 0.531250
vt 0.625000 0.531250
vt 0.625000 0.765625
vt 0.625000 0.734375
vt 0.625000 0.625000
vt 0.625000 0.546875
vt 0.625000 0.687500
vt 0.625000 0.671875
vt 0.343750 0.687500
vt 0.343750 0.562500
vt 0.343750 0.625000
vt 0.343750 0.750000
vt 0.625000 0.468750
vt 0.640625 0.500000
vt 0.359375 0.500000
vt 0.343750 0.500000
vt 0.312500 0.500000
vt 0.671875 0.500000
vt 0.656250 0.500000
vt 0.703125 0.500000
vt 0.687500 0.500000
vt 0.296875 0.500000
vt 0.281250 0.500000
vt 0.265625 0.500000
vt 0.250000 0.500000
vt 0.734375 0.500000
vt 0.718750 0.500000
vt 0.765625 0.500000
vt 0.750000 0.500000
vt 0.234375 0.500000
vt 0.218750 0.500000
vt 0.203125 0.500000
vt 0.187500 0.500000
vt 0.796875 0.500000
vt 0.781250 0.500000
vt 0.140625 0.500000
vt 0.125000 0.500000
vt 0.859375 0.500000
vt 0.843750 0.500000
vt 0.828125 0.500000
vt 0.812500 0.500000
vt 0.171875 0.500000
vt 0.156250 0.500000
vt 0.875000 0.500000
vt 0.328125 0.500000
vt 0.875000 0.562500
vt 0.875000 0.531250
vt 0.375000 0.531250
vt 0.875000 0.593750
vt 0.375000 0.625000
vt 0.375000 0.687500
vt 0.875000 0.687500
vt 0.875000 0.718750
vt 0.375000 0.718750
vt 0.625000 0.234375
vt 0.375000 0.234375
vt 0.625000 0.109375
vt 0.375000 0.125000
vt 0.375000 0.109375
vt 0.625000 0.171875
vt 0.375000 0.187500
vt 0.375000 0.171875
vt 0.625000 0.046875
vt 0.375000 0.062500
vt 0.375000 0.046875
vt 0.625000 0.203125
vt 0.375000 0.218750
vt 0.375000 0.203125
vt 0.625000 0.140625
vt 0.375000 0.156250
vt 0.375000 0.140625
vt 0.625000 0.078125
vt 0.375000 0.093750
vt 0.375000 0.078125
vt 0.625000 0.015625
vt 0.375000 0.031250
vt 0.375000 0.015625
vt 0.625000 0.218750
vt 0.625000 0.187500
vt 0.625000 0.156250
vt 0.625000 0.125000
vt 0.625000 0.093750
vt 0.625000 0.062500
vt 0.625000 0.031250
vt 0.625000 0.000000
vt 0.375000 0.000000
vt 0.625000 1.000000
vt 0.875000 0.750000
vt 0.625000 0.250000
s 0
usemtl マテリアル.002
f 425/1/1 588/2/1 22/2/1
f 289/3/2 7/4/2 294/5/2
f 378/6/3 626/7/3 34/7/3
f 182/8/4 1/9/4 187/10/4
f 562/11/5 290/12/5 578/13/5
f 561/14/6 182/15/6 566/16/6
f 547/17/7 236/18/7 572/19/7
f 548/20/5 218/21/5 570/22/5
f 236/23/4 11/24/4 241/25/4
f 217/26/2 9/27/2 222/28/2
f 272/29/4 14/30/4 277/31/4
f 549/32/7 272/33/7 576/34/7
f 550/35/5 254/36/5 574/37/5
f 253/38/2 15/39/2 258/40/2
f 163/41/2 17/42/2 168/43/2
f 564/44/5 20/45/5 164/46/5
f 552/47/7 200/48/7 568/49/7
f 200/50/4 20/51/4 205/52/4
f 416/53/7 206/54/7 432/55/7
f 415/56/5 170/57/5 428/58/5
f 414/59/5 260/60/5 438/61/5
f 413/62/7 278/63/7 440/64/7
f 412/65/5 224/66/5 434/67/5
f 411/68/7 242/69/7 436/70/7
f 425/1/6 188/71/6 430/72/6
f 426/73/5 296/74/5 442/75/5
f 444/76/5 640/77/5 128/77/5
f 22/2/1 587/78/1 443/78/1
f 130/79/3 641/80/3 446/80/3
f 358/81/5 297/82/5 374/83/5
f 357/84/6 189/85/6 362/86/6
f 343/87/7 243/88/7 368/89/7
f 344/90/5 225/91/5 366/92/5
f 345/93/7 279/94/7 372/95/7
f 346/96/5 261/97/5 370/98/5
f 347/99/5 171/100/5 360/101/5
f 348/102/7 207/103/7 364/104/7
f 477/105/5 608/106/5 129/106/5
f 21/107/5 585/108/5 409/108/5
f 484/109/7 208/110/7 500/111/7
f 483/112/5 172/113/5 496/114/5
f 482/115/5 262/116/5 506/117/5
f 481/118/7 280/119/7 508/120/7
f 480/121/5 226/122/5 502/123/5
f 479/124/7 244/125/7 504/126/7
f 493/127/6 190/128/6 498/129/6
f 494/130/5 298/131/5 510/132/5
f 358/81/5 624/133/5 32/133/5
f 485/134/7 257/135/7 505/136/7
f 486/137/5 239/138/5 503/139/5
f 349/140/5 238/141/5 367/142/5
f 350/143/7 256/144/7 369/145/7
f 417/146/7 255/147/7 437/148/7
f 418/149/5 237/150/5 435/151/5
f 240/152/2 51/153/2 235/154/2
f 553/155/5 241/156/5 571/157/5
f 259/158/4 54/159/4 254/160/4
f 554/161/7 259/162/7 573/163/7
f 487/164/5 203/165/5 499/166/5
f 488/167/7 221/168/7 501/169/7
f 351/170/7 220/171/7 365/172/7
f 352/173/5 202/174/5 363/175/5
f 419/176/5 201/177/5 431/178/5
f 420/179/7 219/180/7 433/181/7
f 223/182/4 62/183/4 218/184/4
f 555/185/7 223/186/7 569/187/7
f 204/188/2 63/189/2 199/190/2
f 556/191/5 205/192/5 567/193/5
f 489/194/8 167/195/8 495/196/8
f 490/197/5 185/198/5 497/199/5
f 353/200/5 184/201/5 361/202/5
f 354/203/8 166/204/8 359/205/8
f 421/206/8 165/207/8 427/208/8
f 422/209/5 183/210/5 429/211/5
f 557/212/5 187/213/5 565/214/5
f 181/215/2 73/216/2 71/217/2
f 558/218/8 169/219/8 563/220/8
f 169/221/4 74/222/4 164/223/4
f 491/224/5 275/225/5 507/226/5
f 492/227/9 293/228/9 509/229/9
f 355/230/9 292/231/9 373/232/9
f 356/233/5 274/234/5 371/235/5
f 423/236/5 273/237/5 439/238/5
f 424/239/9 291/240/9 441/241/9
f 559/242/9 295/243/9 577/244/9
f 290/245/4 84/246/4 82/247/4
f 560/248/5 277/249/5 575/250/5
f 276/251/2 83/252/2 271/253/2
f 324/254/5 281/255/5 338/256/5
f 323/257/9 299/258/9 340/259/9
f 322/260/8 173/261/8 326/262/8
f 321/263/5 191/264/5 328/265/5
f 320/266/5 209/267/5 330/268/5
f 319/269/7 227/270/7 332/271/7
f 318/272/7 263/273/7 336/274/7
f 317/275/5 245/276/5 334/277/5
f 316/278/7 210/279/7 329/280/7
f 315/281/5 174/282/5 325/283/5
f 314/284/5 264/285/5 335/286/5
f 313/287/7 282/288/7 337/289/7
f 312/290/5 228/291/5 331/292/5
f 311/293/7 246/294/7 333/295/7
f 307/296/6 192/297/6 327/298/6
f 308/299/5 300/300/5 339/301/5
f 410/302/3 636/303/3 110/303/3
f 41/304/5 593/105/5 477/105/5
f 392/305/9 301/306/9 408/307/9
f 391/308/5 283/309/5 406/310/5
f 390/311/5 193/312/5 396/313/5
f 389/314/8 175/315/8 394/316/8
f 388/317/7 229/318/7 400/319/7
f 387/320/5 211/321/5 398/322/5
f 386/323/5 247/324/5 402/325/5
f 385/326/7 265/327/7 404/328/7
f 377/329/5 592/330/5 33/330/5
f 6/331/4 618/332/4 617/331/4
f 376/333/5 302/334/5 407/335/5
f 375/336/6 194/337/6 395/338/6
f 379/339/7 248/340/7 401/341/7
f 380/342/5 230/343/5 399/344/5
f 381/345/7 284/346/7 405/347/7
f 382/348/5 266/349/5 403/350/5
f 383/351/5 176/352/5 393/353/5
f 384/354/7 212/355/7 397/356/7
f 460/357/9 303/358/9 476/359/9
f 459/360/5 285/361/5 474/362/5
f 458/363/5 195/364/5 464/365/5
f 457/366/8 177/367/8 462/368/8
f 456/369/7 231/370/7 468/371/7
f 455/372/5 213/373/5 466/374/5
f 454/375/5 249/376/5 470/377/5
f 453/378/7 267/379/7 472/380/7
f 310/381/3 613/382/3 8/382/3
f 444/76/5 304/383/5 475/384/5
f 443/78/6 196/385/6 463/386/6
f 447/387/7 250/388/7 469/389/7
f 448/390/5 232/391/5 467/392/5
f 449/393/7 286/394/7 473/395/7
f 450/396/5 268/397/5 471/398/5
f 451/399/5 178/400/5 461/401/5
f 452/402/7 214/403/7 465/404/7
f 443/78/1 606/405/1 127/405/1
f 528/406/5 287/407/5 542/408/5
f 527/409/9 305/410/9 544/411/9
f 526/412/8 179/413/8 530/414/8
f 525/415/5 197/416/5 532/417/5
f 524/418/5 215/419/5 534/420/5
f 523/421/7 233/422/7 536/423/7
f 522/424/7 269/425/7 540/426/7
f 521/427/5 251/428/5 538/429/5
f 129/106/5 607/430/5 445/430/5
f 520/431/7 216/432/7 533/433/7
f 519/434/5 180/435/5 529/436/5
f 518/437/5 270/438/5 539/439/5
f 517/440/7 288/441/7 541/442/7
f 516/443/5 234/444/5 535/445/5
f 515/446/7 252/447/7 537/448/7
f 511/449/6 198/450/6 531/451/6
f 512/452/5 306/453/5 543/454/5
f 376/333/5 638/455/5 118/455/5
f 529/436/5 159/456/5 525/415/5
f 530/414/7 152/457/7 520/431/7
f 461/401/5 142/458/5 458/363/5
f 462/368/7 136/459/7 452/402/7
f 393/353/5 124/460/5 390/311/5
f 394/316/7 116/461/7 384/354/7
f 325/283/5 105/462/5 321/263/5
f 326/262/7 100/463/7 316/278/7
f 18/464/4 164/223/4 20/51/4
f 563/220/7 18/465/7 552/47/7
f 427/208/7 30/466/7 416/53/7
f 359/205/7 40/467/7 348/102/7
f 495/196/7 48/468/7 484/109/7
f 496/114/5 79/469/5 490/197/5
f 360/101/5 78/470/5 353/200/5
f 428/58/5 75/471/5 422/209/5
f 557/212/5 164/46/5 74/472/5
f 71/217/2 163/41/2 168/43/2
f 531/451/10 160/473/10 526/412/10
f 532/417/5 145/474/5 513/475/5
f 463/386/10 141/476/10 457/366/10
f 464/365/5 129/106/5 445/430/5
f 395/338/10 123/477/10 389/314/10
f 396/313/5 109/478/5 377/329/5
f 327/298/10 106/479/10 322/260/10
f 328/265/5 93/480/5 309/481/5
f 3/482/2 186/483/2 181/215/2
f 565/214/5 1/484/5 545/485/5
f 429/211/5 21/107/5 409/108/5
f 361/202/5 33/330/5 341/486/5
f 497/199/5 41/304/5 477/105/5
f 498/129/10 80/487/10 489/194/10
f 362/86/10 77/488/10 354/203/10
f 430/72/10 76/489/10 421/206/10
f 566/16/10 72/490/10 558/218/10
f 72/491/4 187/10/4 74/222/4
f 533/433/7 157/492/7 523/421/7
f 534/420/5 151/493/5 519/434/5
f 465/404/7 140/494/7 456/369/7
f 466/374/5 135/495/5 451/399/5
f 397/356/7 122/496/7 388/317/7
f 398/322/5 115/497/5 383/351/5
f 329/280/7 103/498/7 319/269/7
f 330/268/5 99/499/5 315/281/5
f 567/193/5 20/45/5 551/500/5
f 19/501/2 199/190/2 17/42/2
f 431/178/5 29/502/5 415/56/5
f 363/175/5 39/503/5 347/99/5
f 499/166/5 47/504/5 483/112/5
f 500/111/7 69/505/7 488/167/7
f 364/104/7 68/506/7 351/170/7
f 432/55/7 65/507/7 420/179/7
f 64/508/4 205/52/4 62/183/4
f 568/49/7 64/509/7 555/185/7
f 535/445/5 158/510/5 524/418/5
f 536/423/7 147/511/7 515/446/7
f 467/392/5 139/512/5 455/372/5
f 468/371/7 131/513/7 447/387/7
f 399/344/5 121/514/5 387/320/5
f 400/319/7 111/515/7 379/339/7
f 331/292/5 104/516/5 320/266/5
f 332/271/7 95/517/7 311/293/7
f 569/187/7 12/518/7 547/17/7
f 12/519/4 218/184/4 11/24/4
f 433/181/7 25/520/7 411/68/7
f 365/172/7 35/521/7 343/87/7
f 501/169/7 43/522/7 479/124/7
f 502/123/5 70/523/5 487/164/5
f 366/92/5 67/524/5 352/173/5
f 434/67/5 66/525/5 419/176/5
f 61/526/2 222/28/2 63/189/2
f 570/22/5 62/527/5 556/191/5
f 537/448/7 156/528/7 522/424/7
f 538/429/5 148/529/5 516/443/5
f 469/389/7 137/530/7 453/378/7
f 470/377/5 132/531/5 448/390/5
f 401/341/7 119/532/7 385/326/7
f 402/325/5 112/533/5 380/342/5
f 333/295/7 102/534/7 318/272/7
f 334/277/5 96/535/5 312/290/5
f 571/157/5 11/536/5 548/20/5
f 10/537/2 235/154/2 9/27/2
f 435/151/5 26/538/5 412/65/5
f 367/142/5 36/539/5 344/90/5
f 503/139/5 44/540/5 480/121/5
f 504/126/7 60/541/7 485/134/7
f 368/89/7 57/542/7 350/143/7
f 436/70/7 56/543/7 417/146/7
f 52/544/4 241/25/4 54/159/4
f 572/19/7 52/545/7 554/161/7
f 539/439/5 155/546/5 521/427/5
f 540/426/7 149/547/7 517/440/7
f 471/398/5 138/548/5 454/375/5
f 472/380/7 133/549/7 449/393/7
f 403/350/5 120/550/5 386/323/5
f 404/328/7 113/551/7 381/345/7
f 335/286/5 101/552/5 317/275/5
f 336/274/7 97/553/7 313/287/7
f 573/163/7 16/554/7 549/32/7
f 16/555/4 254/160/4 14/30/4
f 437/148/7 27/556/7 413/62/7
f 369/145/7 37/557/7 345/93/7
f 505/136/7 45/558/7 481/118/7
f 506/117/5 59/559/5 486/137/5
f 370/98/5 58/560/5 349/140/5
f 438/61/5 55/561/5 418/149/5
f 53/562/2 258/40/2 51/153/2
f 574/37/5 54/563/5 553/155/5
f 541/442/11 161/564/11 527/409/11
f 542/408/5 150/565/5 518/437/5
f 473/395/11 144/566/11 460/357/11
f 474/362/5 134/567/5 450/396/5
f 405/347/11 126/568/11 392/305/11
f 406/310/5 114/569/5 382/348/5
f 337/289/11 107/570/11 323/257/11
f 338/256/5 98/571/5 314/284/5
f 13/572/2 271/253/2 15/39/2
f 575/250/5 14/573/5 550/35/5
f 439/238/5 28/574/5 414/59/5
f 371/235/5 38/575/5 346/96/5
f 507/226/5 46/576/5 482/115/5
f 508/120/11 89/577/11 492/227/11
f 372/95/11 88/578/11 355/230/11
f 440/64/11 85/579/11 424/239/11
f 576/34/11 84/580/11 559/242/11
f 82/247/4 272/29/4 277/31/4
f 543/454/5 162/581/5 528/406/5
f 544/411/12 146/582/12 514/583/12
f 475/384/5 143/584/5 459/360/5
f 476/359/13 130/79/13 446/80/13
f 407/335/5 125/585/5 391/308/5
f 408/307/13 110/303/13 378/6/13
f 339/301/5 108/586/5 324/254/5
f 340/259/12 94/587/12 310/381/12
f 5/332/4 295/588/4 290/245/4
f 577/244/12 6/331/12 546/589/12
f 441/241/13 24/590/13 410/302/13
f 373/232/12 34/7/12 342/591/12
f 509/229/12 42/592/12 478/593/12
f 510/132/5 90/594/5 491/224/5
f 374/83/5 87/595/5 356/233/5
f 442/75/5 86/596/5 423/236/5
f 578/13/5 82/597/5 560/248/5
f 81/598/2 294/5/2 83/252/2
f 289/599/12 310/381/12 8/382/12
f 294/600/5 324/254/5 83/601/5
f 15/602/5 338/256/5 314/284/5
f 276/603/11 323/257/11 81/604/11
f 253/605/7 313/287/7 13/606/7
f 258/607/5 317/275/5 51/608/5
f 235/609/5 312/290/5 9/610/5
f 240/611/7 318/272/7 53/612/7
f 217/613/7 311/293/7 10/614/7
f 222/615/5 320/266/5 63/616/5
f 199/617/5 315/281/5 17/618/5
f 204/619/7 319/269/7 61/620/7
f 181/621/5 309/481/5 3/622/5
f 186/623/10 322/260/10 73/624/10
f 163/625/7 316/278/7 19/626/7
f 168/627/5 321/263/5 71/628/5
f 6/331/3 616/589/3 546/589/3
f 7/4/5 339/301/5 294/600/5
f 4/629/6 327/298/6 186/623/6
f 10/614/7 333/295/7 240/611/7
f 9/610/5 331/292/5 222/615/5
f 13/606/7 337/289/7 276/603/7
f 15/602/5 335/286/5 258/607/5
f 17/618/5 325/283/5 168/627/5
f 19/626/7 329/280/7 204/619/7
f 51/608/5 334/277/5 235/609/5
f 53/612/7 336/274/7 253/605/7
f 61/620/7 332/271/7 217/613/7
f 63/616/5 330/268/5 199/617/5
f 71/628/5 328/265/5 181/621/5
f 73/624/8 326/262/8 163/625/8
f 81/604/9 340/259/9 289/599/9
f 271/630/5 324/254/5 338/256/5
f 357/84/1 590/631/1 31/631/1
f 300/300/5 356/233/5 108/586/5
f 299/258/13 342/591/13 94/587/13
f 282/288/11 355/230/11 107/570/11
f 281/255/5 346/96/5 98/571/5
f 264/285/5 349/140/5 101/552/5
f 263/273/7 345/93/7 97/553/7
f 246/294/7 350/143/7 102/534/7
f 245/276/5 344/90/5 96/535/5
f 228/291/5 352/173/5 104/516/5
f 227/270/7 343/87/7 95/517/7
f 210/279/7 351/170/7 103/498/7
f 209/267/5 347/99/5 99/499/5
f 192/297/10 354/203/10 106/479/10
f 191/264/5 341/486/5 93/480/5
f 174/282/5 353/200/5 105/462/5
f 173/261/7 348/102/7 100/463/7
f 409/108/5 602/478/5 109/478/5
f 108/586/5 371/235/5 281/255/5
f 107/570/9 373/232/9 299/258/9
f 106/479/8 359/205/8 173/261/8
f 105/462/5 361/202/5 191/264/5
f 104/516/5 363/175/5 209/267/5
f 103/498/7 365/172/7 227/270/7
f 102/534/7 369/145/7 263/273/7
f 101/552/5 367/142/5 245/276/5
f 100/463/7 364/104/7 210/279/7
f 99/499/5 360/101/5 174/282/5
f 98/571/5 370/98/5 264/285/5
f 97/553/7 372/95/7 282/288/7
f 96/535/5 366/92/5 228/291/5
f 95/517/7 368/89/7 246/294/7
f 91/632/6 362/86/6 192/297/6
f 92/633/5 374/83/5 300/300/5
f 128/77/5 639/130/5 494/130/5
f 292/231/12 378/6/12 34/7/12
f 297/82/5 391/308/5 87/595/5
f 274/234/5 382/348/5 38/575/5
f 279/94/11 392/305/11 88/578/11
f 256/144/7 381/345/7 37/557/7
f 261/97/5 386/323/5 58/560/5
f 238/141/5 380/342/5 36/539/5
f 243/88/7 385/326/7 57/542/7
f 220/171/7 379/339/7 35/521/7
f 225/91/5 387/320/5 67/524/5
f 202/174/5 383/351/5 39/503/5
f 207/103/7 388/317/7 68/506/7
f 184/201/5 377/329/5 33/330/5
f 189/85/10 389/314/10 77/488/10
f 166/204/7 384/354/7 40/467/7
f 171/100/5 390/311/5 78/470/5
f 40/467/7 397/356/7 207/103/7
f 39/503/5 393/353/5 171/100/5
f 38/575/5 403/350/5 261/97/5
f 37/557/7 405/347/7 279/94/7
f 36/539/5 399/344/5 225/91/5
f 35/521/7 401/341/7 243/88/7
f 31/631/6 395/338/6 189/85/6
f 32/133/5 407/335/5 297/82/5
f 342/591/3 634/587/3 94/587/3
f 57/542/7 404/328/7 256/144/7
f 58/560/5 402/325/5 238/141/5
f 67/524/5 398/322/5 202/174/5
f 68/506/7 400/319/7 220/171/7
f 77/488/8 394/316/8 166/204/8
f 78/470/5 396/313/5 184/201/5
f 87/595/5 406/310/5 274/234/5
f 88/578/9 408/307/9 292/231/9
f 309/481/5 584/622/5 3/622/5
f 302/334/5 423/236/5 125/585/5
f 301/306/12 410/302/12 110/303/12
f 284/346/11 424/239/11 126/568/11
f 283/309/5 414/59/5 114/569/5
f 266/349/5 418/149/5 120/550/5
f 265/327/7 413/62/7 113/551/7
f 248/340/7 417/146/7 119/532/7
f 247/324/5 412/65/5 112/533/5
f 230/343/5 419/176/5 121/514/5
f 229/318/7 411/68/7 111/515/7
f 212/355/7 420/179/7 122/496/7
f 211/321/5 415/56/5 115/497/5
f 194/337/10 421/206/10 123/477/10
f 193/312/5 409/108/5 109/478/5
f 176/352/5 422/209/5 124/460/5
f 175/315/7 416/53/7 116/461/7
f 375/336/1 604/634/1 117/634/1
f 126/568/9 441/241/9 301/306/9
f 125/585/5 439/238/5 283/309/5
f 124/460/5 429/211/5 193/312/5
f 123/477/8 427/208/8 175/315/8
f 122/496/7 433/181/7 229/318/7
f 121/514/5 431/178/5 211/321/5
f 120/550/5 435/151/5 247/324/5
f 119/532/7 437/148/7 265/327/7
f 7/4/5 615/299/5 308/299/5
f 118/455/5 442/75/5 302/334/5
f 117/634/6 430/72/6 194/337/6
f 111/515/7 436/70/7 248/340/7
f 112/533/5 434/67/5 230/343/5
f 113/551/7 440/64/7 284/346/7
f 114/569/5 438/61/5 266/349/5
f 115/497/5 428/58/5 176/352/5
f 116/461/7 432/55/7 212/355/7
f 291/240/13 446/80/13 24/590/13
f 296/74/5 459/360/5 86/596/5
f 273/237/5 450/396/5 28/574/5
f 278/63/11 460/357/11 85/579/11
f 255/147/7 449/393/7 27/556/7
f 260/60/5 454/375/5 55/561/5
f 237/150/5 448/390/5 26/538/5
f 242/69/7 453/378/7 56/543/7
f 219/180/7 447/387/7 25/520/7
f 224/66/5 455/372/5 66/525/5
f 201/177/5 451/399/5 29/502/5
f 206/54/7 456/369/7 65/507/7
f 183/210/5 445/430/5 21/107/5
f 188/71/10 457/366/10 76/489/10
f 165/207/7 452/402/7 30/466/7
f 170/57/5 458/363/5 75/471/5
f 30/466/7 465/404/7 206/54/7
f 29/502/5 461/401/5 170/57/5
f 28/574/5 471/398/5 260/60/5
f 27/556/7 473/395/7 278/63/7
f 26/538/5 467/392/5 224/66/5
f 25/520/7 469/389/7 242/69/7
f 22/2/6 463/386/6 188/71/6
f 23/635/5 475/384/5 296/74/5
f 118/455/5 637/73/5 426/73/5
f 56/543/7 472/380/7 255/147/7
f 55/561/5 470/377/5 237/150/5
f 66/525/5 466/374/5 201/177/5
f 65/507/7 468/371/7 219/180/7
f 76/489/8 462/368/8 165/207/8
f 75/471/5 464/365/5 183/210/5
f 86/596/5 474/362/5 273/237/5
f 85/579/9 476/359/9 291/240/9
f 127/405/1 605/127/1 493/127/1
f 304/383/5 491/224/5 143/584/5
f 303/358/12 478/593/12 130/79/12
f 286/394/11 492/227/11 144/566/11
f 285/361/5 482/115/5 134/567/5
f 268/397/5 486/137/5 138/548/5
f 267/379/7 481/118/7 133/549/7
f 250/388/7 485/134/7 137/530/7
f 249/376/5 480/121/5 132/531/5
f 232/391/5 487/164/5 139/512/5
f 231/370/7 479/124/7 131/513/7
f 214/403/7 488/167/7 140/494/7
f 213/373/5 483/112/5 135/495/5
f 196/385/10 489/194/10 141/476/10
f 195/364/5 477/105/5 129/106/5
f 178/400/5 490/197/5 142/458/5
f 177/367/7 484/109/7 136/459/7
f 341/486/5 600/480/5 93/480/5
f 144/566/9 509/229/9 303/358/9
f 143/584/5 507/226/5 285/361/5
f 142/458/5 497/199/5 195/364/5
f 141/476/8 495/196/8 177/367/8
f 140/494/7 501/169/7 231/370/7
f 139/512/5 499/166/5 213/373/5
f 138/548/5 503/139/5 249/376/5
f 137/530/7 505/136/7 267/379/7
f 308/299/5 632/633/5 92/633/5
f 128/77/5 510/132/5 304/383/5
f 127/405/6 498/129/6 196/385/6
f 131/513/7 504/126/7 250/388/7
f 132/531/5 502/123/5 232/391/5
f 133/549/7 508/120/7 286/394/7
f 134/567/5 506/117/5 268/397/5
f 135/495/5 496/114/5 178/400/5
f 136/459/7 500/111/7 214/403/7
f 293/228/12 514/583/12 42/592/12
f 298/131/5 528/406/5 90/594/5
f 275/225/5 518/437/5 46/576/5
f 280/119/11 527/409/11 89/577/11
f 257/135/7 517/440/7 45/558/7
f 262/116/5 521/427/5 59/559/5
f 239/138/5 516/443/5 44/540/5
f 244/125/7 522/424/7 60/541/7
f 221/168/7 515/446/7 43/522/7
f 226/122/5 524/418/5 70/523/5
f 203/165/5 519/434/5 47/504/5
f 208/110/7 523/421/7 69/505/7
f 185/198/5 513/475/5 41/304/5
f 190/128/10 526/412/10 80/487/10
f 167/195/7 520/431/7 48/468/7
f 172/113/5 525/415/5 79/469/5
f 8/382/2 614/4/2 7/4/2
f 50/636/5 543/454/5 298/131/5
f 49/637/6 531/451/6 190/128/6
f 43/522/7 537/448/7 244/125/7
f 44/540/5 535/445/5 226/122/5
f 45/558/7 541/442/7 280/119/7
f 46/576/5 539/439/5 262/116/5
f 47/504/5 529/436/5 172/113/5
f 48/468/7 533/433/7 208/110/7
f 59/559/5 538/429/5 239/138/5
f 60/541/7 540/426/7 257/135/7
f 69/505/7 536/423/7 221/168/7
f 70/523/5 534/420/5 203/165/5
f 79/469/5 532/417/5 185/198/5
f 80/487/8 530/414/8 167/195/8
f 89/577/9 544/411/9 293/228/9
f 90/594/5 542/408/5 275/225/5
f 117/634/1 603/1/1 425/1/1
f 306/453/5 560/248/5 162/581/5
f 305/410/12 546/589/12 146/582/12
f 288/441/11 559/242/11 161/564/11
f 287/407/5 550/35/5 150/565/5
f 270/438/5 553/155/5 155/546/5
f 269/425/7 549/32/7 149/547/7
f 252/447/7 554/161/7 156/528/7
f 251/428/5 548/20/5 148/529/5
f 234/444/5 556/191/5 158/510/5
f 233/422/7 547/17/7 147/511/7
f 216/432/7 555/185/7 157/492/7
f 215/419/5 551/500/5 151/493/5
f 198/450/10 558/218/10 160/473/10
f 197/416/5 545/485/5 145/474/5
f 180/435/5 557/212/5 159/456/5
f 179/413/7 552/47/7 152/457/7
f 307/296/1 598/632/1 91/632/1
f 162/581/5 575/250/5 287/407/5
f 161/564/9 577/244/9 305/410/9
f 160/473/8 563/220/8 179/413/8
f 159/456/5 565/214/5 197/416/5
f 158/510/5 567/193/5 215/419/5
f 157/492/7 569/187/7 233/422/7
f 156/528/7 573/163/7 269/425/7
f 155/546/5 571/157/5 251/428/5
f 152/457/7 568/49/7 216/432/7
f 151/493/5 564/44/5 180/435/5
f 150/565/5 574/37/5 270/438/5
f 149/547/7 576/34/7 288/441/7
f 148/529/5 570/22/5 234/444/5
f 147/511/7 572/19/7 252/447/7
f 153/638/6 566/16/6 198/450/6
f 154/639/5 578/13/5 306/453/5
f 34/7/3 625/591/3 342/591/3
f 582/640/14 584/482/14 599/641/14
f 587/642/14 586/643/14 607/644/14
f 589/645/14 592/646/14 601/647/14
f 595/648/14 594/649/14 609/650/14
f 597/651/14 600/652/14 591/653/14
f 603/654/14 602/655/14 585/656/14
f 605/657/14 608/658/14 593/659/14
f 611/660/14 610/661/14 579/662/14
f 598/663/14 599/641/14 600/652/14
f 590/664/14 591/653/14 592/646/14
f 604/665/14 601/647/14 602/655/14
f 588/666/14 585/656/14 586/643/14
f 606/667/14 607/644/14 608/658/14
f 596/668/14 593/659/14 594/649/14
f 612/669/14 609/650/14 610/661/14
f 581/670/14 579/662/14 580/671/14
f 153/638/1 611/14/1 561/14/1
f 511/449/1 612/638/1 153/638/1
f 445/430/5 586/107/5 21/107/5
f 109/478/5 601/329/5 377/329/5
f 545/485/5 610/474/5 145/474/5
f 493/127/1 596/637/1 49/637/1
f 513/475/5 594/304/5 41/304/5
f 1/484/5 579/485/5 545/485/5
f 2/672/4 580/9/4 1/9/4
f 561/14/1 581/673/1 2/673/1
f 91/632/1 597/84/1 357/84/1
f 4/629/1 582/296/1 307/296/1
f 31/631/1 589/336/1 375/336/1
f 145/474/5 609/475/5 513/475/5
f 4/674/2 584/482/2 583/674/2
f 49/637/1 595/449/1 511/449/1
f 93/480/5 599/481/5 309/481/5
f 33/330/5 591/486/5 341/486/5
f 616/589/15 618/332/15 645/11/15
f 621/302/15 620/635/15 637/73/15
f 625/591/15 624/133/15 631/81/15
f 627/593/15 630/636/15 639/130/15
f 633/381/15 632/633/15 615/299/15
f 635/6/15 638/455/15 623/333/15
f 641/80/15 640/77/15 619/76/15
f 643/583/15 646/639/15 629/452/15
f 613/382/15 615/299/15 614/4/15
f 634/587/15 631/81/15 632/633/15
f 626/7/15 623/333/15 624/133/15
f 636/303/15 637/73/15 638/455/15
f 622/590/15 619/76/15 620/635/15
f 642/79/15 639/130/15 640/77/15
f 628/592/15 629/452/15 630/636/15
f 644/582/15 645/11/15 646/639/15
f 42/592/3 627/593/3 478/593/3
f 478/593/3 642/79/3 130/79/3
f 23/635/5 619/76/5 444/76/5
f 426/73/5 620/635/5 23/635/5
f 154/639/5 645/11/5 562/11/5
f 512/452/5 646/639/5 154/639/5
f 110/303/3 635/6/3 378/6/3
f 446/80/3 622/590/3 24/590/3
f 24/590/3 621/302/3 410/302/3
f 546/589/3 644/582/3 146/582/3
f 494/130/5 630/636/5 50/636/5
f 514/583/3 628/592/3 42/592/3
f 562/11/5 618/332/5 5/332/5
f 92/633/5 631/81/5 358/81/5
f 32/133/5 623/333/5 376/333/5
f 146/582/3 643/583/3 514/583/3
f 50/636/5 629/452/5 512/452/5
f 94/587/3 633/381/3 310/381/3
f 425/1/1 603/1/1 588/2/1
f 289/3/2 8/382/2 7/4/2
f 378/6/3 635/6/3 626/7/3
f 182/8/4 2/672/4 1/9/4
f 562/11/5 5/332/5 290/12/5
f 561/14/6 2/673/6 182/15/6
f 547/17/7 12/518/7 236/18/7
f 548/20/5 11/536/5 218/21/5
f 236/23/4 12/519/4 11/24/4
f 217/26/2 10/537/2 9/27/2
f 272/29/4 16/555/4 14/30/4
f 549/32/7 16/554/7 272/33/7
f 550/35/5 14/573/5 254/36/5
f 253/38/2 13/572/2 15/39/2
f 163/41/2 19/501/2 17/42/2
f 564/44/5 551/500/5 20/45/5
f 552/47/7 18/465/7 200/48/7
f 200/50/4 18/464/4 20/51/4
f 416/53/7 30/466/7 206/54/7
f 415/56/5 29/502/5 170/57/5
f 414/59/5 28/574/5 260/60/5
f 413/62/7 27/556/7 278/63/7
f 412/65/5 26/538/5 224/66/5
f 411/68/7 25/520/7 242/69/7
f 425/1/6 22/2/6 188/71/6
f 426/73/5 23/635/5 296/74/5
f 444/76/5 619/76/5 640/77/5
f 22/2/1 588/2/1 587/78/1
f 130/79/3 642/79/3 641/80/3
f 358/81/5 32/133/5 297/82/5
f 357/84/6 31/631/6 189/85/6
f 343/87/7 35/521/7 243/88/7
f 344/90/5 36/539/5 225/91/5
f 345/93/7 37/557/7 279/94/7
f 346/96/5 38/575/5 261/97/5
f 347/99/5 39/503/5 171/100/5
f 348/102/7 40/467/7 207/103/7
f 477/105/5 593/105/5 608/106/5
f 21/107/5 586/107/5 585/108/5
f 484/109/7 48/468/7 208/110/7
f 483/112/5 47/504/5 172/113/5
f 482/115/5 46/576/5 262/116/5
f 481/118/7 45/558/7 280/119/7
f 480/121/5 44/540/5 226/122/5
f 479/124/7 43/522/7 244/125/7
f 493/127/6 49/637/6 190/128/6
f 494/130/5 50/636/5 298/131/5
f 358/81/5 631/81/5 624/133/5
f 485/134/7 60/541/7 257/135/7
f 486/137/5 59/559/5 239/138/5
f 349/140/5 58/560/5 238/141/5
f 350/143/7 57/542/7 256/144/7
f 417/146/7 56/543/7 255/147/7
f 418/149/5 55/561/5 237/150/5
f 240/152/2 53/562/2 51/153/2
f 553/155/5 54/563/5 241/156/5
f 259/158/4 52/544/4 54/159/4
f 554/161/7 52/545/7 259/162/7
f 487/164/5 70/523/5 203/165/5
f 488/167/7 69/505/7 221/168/7
f 351/170/7 68/506/7 220/171/7
f 352/173/5 67/524/5 202/174/5
f 419/176/5 66/525/5 201/177/5
f 420/179/7 65/507/7 219/180/7
f 223/182/4 64/508/4 62/183/4
f 555/185/7 64/509/7 223/186/7
f 204/188/2 61/526/2 63/189/2
f 556/191/5 62/527/5 205/192/5
f 489/194/8 80/487/8 167/195/8
f 490/197/5 79/469/5 185/198/5
f 353/200/5 78/470/5 184/201/5
f 354/203/8 77/488/8 166/204/8
f 421/206/8 76/489/8 165/207/8
f 422/209/5 75/471/5 183/210/5
f 557/212/5 74/472/5 187/213/5
f 181/215/2 186/483/2 73/216/2
f 558/218/8 72/490/8 169/219/8
f 169/221/4 72/491/4 74/222/4
f 491/224/5 90/594/5 275/225/5
f 492/227/9 89/577/9 293/228/9
f 355/230/9 88/578/9 292/231/9
f 356/233/5 87/595/5 274/234/5
f 423/236/5 86/596/5 273/237/5
f 424/239/9 85/579/9 291/240/9
f 559/242/9 84/580/9 295/243/9
f 290/245/4 295/588/4 84/246/4
f 560/248/5 82/597/5 277/249/5
f 276/251/2 81/598/2 83/252/2
f 324/254/5 108/586/5 281/255/5
f 323/257/9 107/570/9 299/258/9
f 322/260/8 106/479/8 173/261/8
f 321/263/5 105/462/5 191/264/5
f 320/266/5 104/516/5 209/267/5
f 319/269/7 103/498/7 227/270/7
f 318/272/7 102/534/7 263/273/7
f 317/275/5 101/552/5 245/276/5
f 316/278/7 100/463/7 210/279/7
f 315/281/5 99/499/5 174/282/5
f 314/284/5 98/571/5 264/285/5
f 313/287/7 97/553/7 282/288/7
f 312/290/5 96/535/5 228/291/5
f 311/293/7 95/517/7 246/294/7
f 307/296/6 91/632/6 192/297/6
f 308/299/5 92/633/5 300/300/5
f 410/302/3 621/302/3 636/303/3
f 41/304/5 594/304/5 593/105/5
f 392/305/9 126/568/9 301/306/9
f 391/308/5 125/585/5 283/309/5
f 390/311/5 124/460/5 193/312/5
f 389/314/8 123/477/8 175/315/8
f 388/317/7 122/496/7 229/318/7
f 387/320/5 121/514/5 211/321/5
f 386/323/5 120/550/5 247/324/5
f 385/326/7 119/532/7 265/327/7
f 377/329/5 601/329/5 592/330/5
f 6/331/4 5/332/4 618/332/4
f 376/333/5 118/455/5 302/334/5
f 375/336/6 117/634/6 194/337/6
f 379/339/7 111/515/7 248/340/7
f 380/342/5 112/533/5 230/343/5
f 381/345/7 113/551/7 284/346/7
f 382/348/5 114/569/5 266/349/5
f 383/351/5 115/497/5 176/352/5
f 384/354/7 116/461/7 212/355/7
f 460/357/9 144/566/9 303/358/9
f 459/360/5 143/584/5 285/361/5
f 458/363/5 142/458/5 195/364/5
f 457/366/8 141/476/8 177/367/8
f 456/369/7 140/494/7 231/370/7
f 455/372/5 139/512/5 213/373/5
f 454/375/5 138/548/5 249/376/5
f 453/378/7 137/530/7 267/379/7
f 310/381/3 633/381/3 613/382/3
f 444/76/5 128/77/5 304/383/5
f 443/78/6 127/405/6 196/385/6
f 447/387/7 131/513/7 250/388/7
f 448/390/5 132/531/5 232/391/5
f 449/393/7 133/549/7 286/394/7
f 450/396/5 134/567/5 268/397/5
f 451/399/5 135/495/5 178/400/5
f 452/402/7 136/459/7 214/403/7
f 443/78/1 587/78/1 606/405/1
f 528/406/5 162/581/5 287/407/5
f 527/409/9 161/564/9 305/410/9
f 526/412/8 160/473/8 179/413/8
f 525/415/5 159/456/5 197/416/5
f 524/418/5 158/510/5 215/419/5
f 523/421/7 157/492/7 233/422/7
f 522/424/7 156/528/7 269/425/7
f 521/427/5 155/546/5 251/428/5
f 129/106/5 608/106/5 607/430/5
f 520/431/7 152/457/7 216/432/7
f 519/434/5 151/493/5 180/435/5
f 518/437/5 150/565/5 270/438/5
f 517/440/7 149/547/7 288/441/7
f 516/443/5 148/529/5 234/444/5
f 515/446/7 147/511/7 252/447/7
f 511/449/6 153/638/6 198/450/6
f 512/452/5 154/639/5 306/453/5
f 376/333/5 623/333/5 638/455/5
f 529/436/5 180/435/5 159/456/5
f 530/414/7 179/413/7 152/457/7
f 461/401/5 178/400/5 142/458/5
f 462/368/7 177/367/7 136/459/7
f 393/353/5 176/352/5 124/460/5
f 394/316/7 175/315/7 116/461/7
f 325/283/5 174/282/5 105/462/5
f 326/262/7 173/261/7 100/463/7
f 18/464/4 169/221/4 164/223/4
f 563/220/7 169/219/7 18/465/7
f 427/208/7 165/207/7 30/466/7
f 359/205/7 166/204/7 40/467/7
f 495/196/7 167/195/7 48/468/7
f 496/114/5 172/113/5 79/469/5
f 360/101/5 171/100/5 78/470/5
f 428/58/5 170/57/5 75/471/5
f 557/212/5 564/44/5 164/46/5
f 71/217/2 73/216/2 163/41/2
f 531/451/10 198/450/10 160/473/10
f 532/417/5 197/416/5 145/474/5
f 463/386/10 196/385/10 141/476/10
f 464/365/5 195/364/5 129/106/5
f 395/338/10 194/337/10 123/477/10
f 396/313/5 193/312/5 109/478/5
f 327/298/10 192/297/10 106/479/10
f 328/265/5 191/264/5 93/480/5
f 3/482/2 4/674/2 186/483/2
f 565/214/5 187/213/5 1/484/5
f 429/211/5 183/210/5 21/107/5
f 361/202/5 184/201/5 33/330/5
f 497/199/5 185/198/5 41/304/5
f 498/129/10 190/128/10 80/487/10
f 362/86/10 189/85/10 77/488/10
f 430/72/10 188/71/10 76/489/10
f 566/16/10 182/15/10 72/490/10
f 72/491/4 182/8/4 187/10/4
f 533/433/7 216/432/7 157/492/7
f 534/420/5 215/419/5 151/493/5
f 465/404/7 214/403/7 140/494/7
f 466/374/5 213/373/5 135/495/5
f 397/356/7 212/355/7 122/496/7
f 398/322/5 211/321/5 115/497/5
f 329/280/7 210/279/7 103/498/7
f 330/268/5 209/267/5 99/499/5
f 567/193/5 205/192/5 20/45/5
f 19/501/2 204/188/2 199/190/2
f 431/178/5 201/177/5 29/502/5
f 363/175/5 202/174/5 39/503/5
f 499/166/5 203/165/5 47/504/5
f 500/111/7 208/110/7 69/505/7
f 364/104/7 207/103/7 68/506/7
f 432/55/7 206/54/7 65/507/7
f 64/508/4 200/50/4 205/52/4
f 568/49/7 200/48/7 64/509/7
f 535/445/5 234/444/5 158/510/5
f 536/423/7 233/422/7 147/511/7
f 467/392/5 232/391/5 139/512/5
f 468/371/7 231/370/7 131/513/7
f 399/344/5 230/343/5 121/514/5
f 400/319/7 229/318/7 111/515/7
f 331/292/5 228/291/5 104/516/5
f 332/271/7 227/270/7 95/517/7
f 569/187/7 223/186/7 12/518/7
f 12/519/4 223/182/4 218/184/4
f 433/181/7 219/180/7 25/520/7
f 365/172/7 220/171/7 35/521/7
f 501/169/7 221/168/7 43/522/7
f 502/123/5 226/122/5 70/523/5
f 366/92/5 225/91/5 67/524/5
f 434/67/5 224/66/5 66/525/5
f 61/526/2 217/26/2 222/28/2
f 570/22/5 218/21/5 62/527/5
f 537/448/7 252/447/7 156/528/7
f 538/429/5 251/428/5 148/529/5
f 469/389/7 250/388/7 137/530/7
f 470/377/5 249/376/5 132/531/5
f 401/341/7 248/340/7 119/532/7
f 402/325/5 247/324/5 112/533/5
f 333/295/7 246/294/7 102/534/7
f 334/277/5 245/276/5 96/535/5
f 571/157/5 241/156/5 11/536/5
f 10/537/2 240/152/2 235/154/2
f 435/151/5 237/150/5 26/538/5
f 367/142/5 238/141/5 36/539/5
f 503/139/5 239/138/5 44/540/5
f 504/126/7 244/125/7 60/541/7
f 368/89/7 243/88/7 57/542/7
f 436/70/7 242/69/7 56/543/7
f 52/544/4 236/23/4 241/25/4
f 572/19/7 236/18/7 52/545/7
f 539/439/5 270/438/5 155/546/5
f 540/426/7 269/425/7 149/547/7
f 471/398/5 268/397/5 138/548/5
f 472/380/7 267/379/7 133/549/7
f 403/350/5 266/349/5 120/550/5
f 404/328/7 265/327/7 113/551/7
f 335/286/5 264/285/5 101/552/5
f 336/274/7 263/273/7 97/553/7
f 573/163/7 259/162/7 16/554/7
f 16/555/4 259/158/4 254/160/4
f 437/148/7 255/147/7 27/556/7
f 369/145/7 256/144/7 37/557/7
f 505/136/7 257/135/7 45/558/7
f 506/117/5 262/116/5 59/559/5
f 370/98/5 261/97/5 58/560/5
f 438/61/5 260/60/5 55/561/5
f 53/562/2 253/38/2 258/40/2
f 574/37/5 254/36/5 54/563/5
f 541/442/11 288/441/11 161/564/11
f 542/408/5 287/407/5 150/565/5
f 473/395/11 286/394/11 144/566/11
f 474/362/5 285/361/5 134/567/5
f 405/347/11 284/346/11 126/568/11
f 406/310/5 283/309/5 114/569/5
f 337/289/11 282/288/11 107/570/11
f 338/256/5 281/255/5 98/571/5
f 13/572/2 276/251/2 271/253/2
f 575/250/5 277/249/5 14/573/5
f 439/238/5 273/237/5 28/574/5
f 371/235/5 274/234/5 38/575/5
f 507/226/5 275/225/5 46/576/5
f 508/120/11 280/119/11 89/577/11
f 372/95/11 279/94/11 88/578/11
f 440/64/11 278/63/11 85/579/11
f 576/34/11 272/33/11 84/580/11
f 82/247/4 84/246/4 272/29/4
f 543/454/5 306/453/5 162/581/5
f 544/411/13 305/410/13 146/582/13
f 475/384/5 304/383/5 143/584/5
f 476/359/12 303/358/12 130/79/12
f 407/335/5 302/334/5 125/585/5
f 408/307/12 301/306/12 110/303/12
f 339/301/5 300/300/5 108/586/5
f 340/259/12 299/258/12 94/587/12
f 5/332/4 6/331/4 295/588/4
f 577/244/12 295/243/12 6/331/12
f 441/241/13 291/240/13 24/590/13
f 373/232/12 292/231/12 34/7/12
f 509/229/12 293/228/12 42/592/12
f 510/132/5 298/131/5 90/594/5
f 374/83/5 297/82/5 87/595/5
f 442/75/5 296/74/5 86/596/5
f 578/13/5 290/12/5 82/597/5
f 81/598/2 289/3/2 294/5/2
f 289/599/12 340/259/12 310/381/12
f 294/600/5 339/301/5 324/254/5
f 15/602/5 271/630/5 338/256/5
f 276/603/11 337/289/11 323/257/11
f 253/605/7 336/274/7 313/287/7
f 258/607/5 335/286/5 317/275/5
f 235/609/5 334/277/5 312/290/5
f 240/611/7 333/295/7 318/272/7
f 217/613/7 332/271/7 311/293/7
f 222/615/5 331/292/5 320/266/5
f 199/617/5 330/268/5 315/281/5
f 204/619/7 329/280/7 319/269/7
f 181/621/5 328/265/5 309/481/5
f 186/623/10 327/298/10 322/260/10
f 163/625/7 326/262/7 316/278/7
f 168/627/5 325/283/5 321/263/5
f 6/331/3 617/331/3 616/589/3
f 7/4/5 308/299/5 339/301/5
f 4/629/6 307/296/6 327/298/6
f 10/614/7 311/293/7 333/295/7
f 9/610/5 312/290/5 331/292/5
f 13/606/7 313/287/7 337/289/7
f 15/602/5 314/284/5 335/286/5
f 17/618/5 315/281/5 325/283/5
f 19/626/7 316/278/7 329/280/7
f 51/608/5 317/275/5 334/277/5
f 53/612/7 318/272/7 336/274/7
f 61/620/7 319/269/7 332/271/7
f 63/616/5 320/266/5 330/268/5
f 71/628/5 321/263/5 328/265/5
f 73/624/8 322/260/8 326/262/8
f 81/604/9 323/257/9 340/259/9
f 271/630/5 83/601/5 324/254/5
f 357/84/1 597/84/1 590/631/1
f 300/300/5 374/83/5 356/233/5
f 299/258/12 373/232/12 342/591/12
f 282/288/11 372/95/11 355/230/11
f 281/255/5 371/235/5 346/96/5
f 264/285/5 370/98/5 349/140/5
f 263/273/7 369/145/7 345/93/7
f 246/294/7 368/89/7 350/143/7
f 245/276/5 367/142/5 344/90/5
f 228/291/5 366/92/5 352/173/5
f 227/270/7 365/172/7 343/87/7
f 210/279/7 364/104/7 351/170/7
f 209/267/5 363/175/5 347/99/5
f 192/297/10 362/86/10 354/203/10
f 191/264/5 361/202/5 341/486/5
f 174/282/5 360/101/5 353/200/5
f 173/261/7 359/205/7 348/102/7
f 409/108/5 585/108/5 602/478/5
f 108/586/5 356/233/5 371/235/5
f 107/570/9 355/230/9 373/232/9
f 106/479/8 354/203/8 359/205/8
f 105/462/5 353/200/5 361/202/5
f 104/516/5 352/173/5 363/175/5
f 103/498/7 351/170/7 365/172/7
f 102/534/7 350/143/7 369/145/7
f 101/552/5 349/140/5 367/142/5
f 100/463/7 348/102/7 364/104/7
f 99/499/5 347/99/5 360/101/5
f 98/571/5 346/96/5 370/98/5
f 97/553/7 345/93/7 372/95/7
f 96/535/5 344/90/5 366/92/5
f 95/517/7 343/87/7 368/89/7
f 91/632/6 357/84/6 362/86/6
f 92/633/5 358/81/5 374/83/5
f 128/77/5 640/77/5 639/130/5
f 292/231/12 408/307/12 378/6/12
f 297/82/5 407/335/5 391/308/5
f 274/234/5 406/310/5 382/348/5
f 279/94/11 405/347/11 392/305/11
f 256/144/7 404/328/7 381/345/7
f 261/97/5 403/350/5 386/323/5
f 238/141/5 402/325/5 380/342/5
f 243/88/7 401/341/7 385/326/7
f 220/171/7 400/319/7 379/339/7
f 225/91/5 399/344/5 387/320/5
f 202/174/5 398/322/5 383/351/5
f 207/103/7 397/356/7 388/317/7
f 184/201/5 396/313/5 377/329/5
f 189/85/10 395/338/10 389/314/10
f 166/204/7 394/316/7 384/354/7
f 171/100/5 393/353/5 390/311/5
f 40/467/7 384/354/7 397/356/7
f 39/503/5 383/351/5 393/353/5
f 38/575/5 382/348/5 403/350/5
f 37/557/7 381/345/7 405/347/7
f 36/539/5 380/342/5 399/344/5
f 35/521/7 379/339/7 401/341/7
f 31/631/6 375/336/6 395/338/6
f 32/133/5 376/333/5 407/335/5
f 342/591/3 625/591/3 634/587/3
f 57/542/7 385/326/7 404/328/7
f 58/560/5 386/323/5 402/325/5
f 67/524/5 387/320/5 398/322/5
f 68/506/7 388/317/7 400/319/7
f 77/488/8 389/314/8 394/316/8
f 78/470/5 390/311/5 396/313/5
f 87/595/5 391/308/5 406/310/5
f 88/578/9 392/305/9 408/307/9
f 309/481/5 599/481/5 584/622/5
f 302/334/5 442/75/5 423/236/5
f 301/306/13 441/241/13 410/302/13
f 284/346/11 440/64/11 424/239/11
f 283/309/5 439/238/5 414/59/5
f 266/349/5 438/61/5 418/149/5
f 265/327/7 437/148/7 413/62/7
f 248/340/7 436/70/7 417/146/7
f 247/324/5 435/151/5 412/65/5
f 230/343/5 434/67/5 419/176/5
f 229/318/7 433/181/7 411/68/7
f 212/355/7 432/55/7 420/179/7
f 211/321/5 431/178/5 415/56/5
f 194/337/10 430/72/10 421/206/10
f 193/312/5 429/211/5 409/108/5
f 176/352/5 428/58/5 422/209/5
f 175/315/7 427/208/7 416/53/7
f 375/336/1 589/336/1 604/634/1
f 126/568/9 424/239/9 441/241/9
f 125/585/5 423/236/5 439/238/5
f 124/460/5 422/209/5 429/211/5
f 123/477/8 421/206/8 427/208/8
f 122/496/7 420/179/7 433/181/7
f 121/514/5 419/176/5 431/178/5
f 120/550/5 418/149/5 435/151/5
f 119/532/7 417/146/7 437/148/7
f 7/4/5 614/4/5 615/299/5
f 118/455/5 426/73/5 442/75/5
f 117/634/6 425/1/6 430/72/6
f 111/515/7 411/68/7 436/70/7
f 112/533/5 412/65/5 434/67/5
f 113/551/7 413/62/7 440/64/7
f 114/569/5 414/59/5 438/61/5
f 115/497/5 415/56/5 428/58/5
f 116/461/7 416/53/7 432/55/7
f 291/240/13 476/359/13 446/80/13
f 296/74/5 475/384/5 459/360/5
f 273/237/5 474/362/5 450/396/5
f 278/63/11 473/395/11 460/357/11
f 255/147/7 472/380/7 449/393/7
f 260/60/5 471/398/5 454/375/5
f 237/150/5 470/377/5 448/390/5
f 242/69/7 469/389/7 453/378/7
f 219/180/7 468/371/7 447/387/7
f 224/66/5 467/392/5 455/372/5
f 201/177/5 466/374/5 451/399/5
f 206/54/7 465/404/7 456/369/7
f 183/210/5 464/365/5 445/430/5
f 188/71/10 463/386/10 457/366/10
f 165/207/7 462/368/7 452/402/7
f 170/57/5 461/401/5 458/363/5
f 30/466/7 452/402/7 465/404/7
f 29/502/5 451/399/5 461/401/5
f 28/574/5 450/396/5 471/398/5
f 27/556/7 449/393/7 473/395/7
f 26/538/5 448/390/5 467/392/5
f 25/520/7 447/387/7 469/389/7
f 22/2/6 443/78/6 463/386/6
f 23/635/5 444/76/5 475/384/5
f 118/455/5 638/455/5 637/73/5
f 56/543/7 453/378/7 472/380/7
f 55/561/5 454/375/5 470/377/5
f 66/525/5 455/372/5 466/374/5
f 65/507/7 456/369/7 468/371/7
f 76/489/8 457/366/8 462/368/8
f 75/471/5 458/363/5 464/365/5
f 86/596/5 459/360/5 474/362/5
f 85/579/9 460/357/9 476/359/9
f 127/405/1 606/405/1 605/127/1
f 304/383/5 510/132/5 491/224/5
f 303/358/13 509/229/13 478/593/13
f 286/394/11 508/120/11 492/227/11
f 285/361/5 507/226/5 482/115/5
f 268/397/5 506/117/5 486/137/5
f 267/379/7 505/136/7 481/118/7
f 250/388/7 504/126/7 485/134/7
f 249/376/5 503/139/5 480/121/5
f 232/391/5 502/123/5 487/164/5
f 231/370/7 501/169/7 479/124/7
f 214/403/7 500/111/7 488/167/7
f 213/373/5 499/166/5 483/112/5
f 196/385/10 498/129/10 489/194/10
f 195/364/5 497/199/5 477/105/5
f 178/400/5 496/114/5 490/197/5
f 177/367/7 495/196/7 484/109/7
f 341/486/5 591/486/5 600/480/5
f 144/566/9 492/227/9 509/229/9
f 143/584/5 491/224/5 507/226/5
f 142/458/5 490/197/5 497/199/5
f 141/476/8 489/194/8 495/196/8
f 140/494/7 488/167/7 501/169/7
f 139/512/5 487/164/5 499/166/5
f 138/548/5 486/137/5 503/139/5
f 137/530/7 485/134/7 505/136/7
f 308/299/5 615/299/5 632/633/5
f 128/77/5 494/130/5 510/132/5
f 127/405/6 493/127/6 498/129/6
f 131/513/7 479/124/7 504/126/7
f 132/531/5 480/121/5 502/123/5
f 133/549/7 481/118/7 508/120/7
f 134/567/5 482/115/5 506/117/5
f 135/495/5 483/112/5 496/114/5
f 136/459/7 484/109/7 500/111/7
f 293/228/12 544/411/12 514/583/12
f 298/131/5 543/454/5 528/406/5
f 275/225/5 542/408/5 518/437/5
f 280/119/11 541/442/11 527/409/11
f 257/135/7 540/426/7 517/440/7
f 262/116/5 539/439/5 521/427/5
f 239/138/5 538/429/5 516/443/5
f 244/125/7 537/448/7 522/424/7
f 221/168/7 536/423/7 515/446/7
f 226/122/5 535/445/5 524/418/5
f 203/165/5 534/420/5 519/434/5
f 208/110/7 533/433/7 523/421/7
f 185/198/5 532/417/5 513/475/5
f 190/128/10 531/451/10 526/412/10
f 167/195/7 530/414/7 520/431/7
f 172/113/5 529/436/5 525/415/5
f 8/382/2 613/382/2 614/4/2
f 50/636/5 512/452/5 543/454/5
f 49/637/6 511/449/6 531/451/6
f 43/522/7 515/446/7 537/448/7
f 44/540/5 516/443/5 535/445/5
f 45/558/7 517/440/7 541/442/7
f 46/576/5 518/437/5 539/439/5
f 47/504/5 519/434/5 529/436/5
f 48/468/7 520/431/7 533/433/7
f 59/559/5 521/427/5 538/429/5
f 60/541/7 522/424/7 540/426/7
f 69/505/7 523/421/7 536/423/7
f 70/523/5 524/418/5 534/420/5
f 79/469/5 525/415/5 532/417/5
f 80/487/8 526/412/8 530/414/8
f 89/577/9 527/409/9 544/411/9
f 90/594/5 528/406/5 542/408/5
f 117/634/1 604/634/1 603/1/1
f 306/453/5 578/13/5 560/248/5
f 305/410/12 577/244/12 546/589/12
f 288/441/11 576/34/11 559/242/11
f 287/407/5 575/250/5 550/35/5
f 270/438/5 574/37/5 553/155/5
f 269/425/7 573/163/7 549/32/7
f 252/447/7 572/19/7 554/161/7
f 251/428/5 571/157/5 548/20/5
f 234/444/5 570/22/5 556/191/5
f 233/422/7 569/187/7 547/17/7
f 216/432/7 568/49/7 555/185/7
f 215/419/5 567/193/5 551/500/5
f 198/450/10 566/16/10 558/218/10
f 197/416/5 565/214/5 545/485/5
f 180/435/5 564/44/5 557/212/5
f 179/413/7 563/220/7 552/47/7
f 307/296/1 582/296/1 598/632/1
f 162/581/5 560/248/5 575/250/5
f 161/564/9 559/242/9 577/244/9
f 160/473/8 558/218/8 563/220/8
f 159/456/5 557/212/5 565/214/5
f 158/510/5 556/191/5 567/193/5
f 157/492/7 555/185/7 569/187/7
f 156/528/7 554/161/7 573/163/7
f 155/546/5 553/155/5 571/157/5
f 152/457/7 552/47/7 568/49/7
f 151/493/5 551/500/5 564/44/5
f 150/565/5 550/35/5 574/37/5
f 149/547/7 549/32/7 576/34/7
f 148/529/5 548/20/5 570/22/5
f 147/511/7 547/17/7 572/19/7
f 153/638/6 561/14/6 566/16/6
f 154/639/5 562/11/5 578/13/5
f 34/7/3 626/7/3 625/591/3
f 582/640/14 583/674/14 584/482/14
f 587/642/14 588/666/14 586/643/14
f 589/645/14 590/664/14 592/646/14
f 595/648/14 596/668/14 594/649/14
f 597/651/14 598/663/14 600/652/14
f 603/654/14 604/665/14 602/655/14
f 605/657/14 606/667/14 608/658/14
f 611/660/14 612/669/14 610/661/14
f 598/663/14 582/640/14 599/641/14
f 590/664/14 597/651/14 591/653/14
f 604/665/14 589/645/14 601/647/14
f 588/666/14 603/654/14 585/656/14
f 606/667/14 587/642/14 607/644/14
f 596/668/14 605/657/14 593/659/14
f 612/669/14 595/648/14 609/650/14
f 581/670/14 611/660/14 579/662/14
f 153/638/1 612/638/1 611/14/1
f 511/449/1 595/449/1 612/638/1
f 445/430/5 607/430/5 586/107/5
f 109/478/5 602/478/5 601/329/5
f 545/485/5 579/485/5 610/474/5
f 493/127/1 605/127/1 596/637/1
f 513/475/5 609/475/5 594/304/5
f 1/484/5 580/484/5 579/485/5
f 2/672/4 581/672/4 580/9/4
f 561/14/1 611/14/1 581/673/1
f 91/632/1 598/632/1 597/84/1
f 4/629/1 583/629/1 582/296/1
f 31/631/1 590/631/1 589/336/1
f 145/474/5 610/474/5 609/475/5
f 4/674/2 3/482/2 584/482/2
f 49/637/1 596/637/1 595/449/1
f 93/480/5 600/480/5 599/481/5
f 33/330/5 592/330/5 591/486/5
f 616/589/15 617/331/15 618/332/15
f 621/302/15 622/590/15 620/635/15
f 625/591/15 626/7/15 624/133/15
f 627/593/15 628/592/15 630/636/15
f 633/381/15 634/587/15 632/633/15
f 635/6/15 636/303/15 638/455/15
f 641/80/15 642/79/15 640/77/15
f 643/583/15 644/582/15 646/639/15
f 613/382/15 633/381/15 615/299/15
f 634/587/15 625/591/15 631/81/15
f 626/7/15 635/6/15 623/333/15
f 636/303/15 621/302/15 637/73/15
f 622/590/15 641/80/15 619/76/15
f 642/79/15 627/593/15 639/130/15
f 628/592/15 643/583/15 629/452/15
f 644/582/15 616/589/15 645/11/15
f 42/592/3 628/592/3 627/593/3
f 478/593/3 627/593/3 642/79/3
f 23/635/5 620/635/5 619/76/5
f 426/73/5 637/73/5 620/635/5
f 154/639/5 646/639/5 645/11/5
f 512/452/5 629/452/5 646/639/5
f 110/303/3 636/303/3 635/6/3
f 446/80/3 641/80/3 622/590/3
f 24/590/3 622/590/3 621/302/3
f 546/589/3 616/589/3 644/582/3
f 494/130/5 639/130/5 630/636/5
f 514/583/3 643/583/3 628/592/3
f 562/11/5 645/11/5 618/332/5
f 92/633/5 632/633/5 631/81/5
f 32/133/5 624/133/5 623/333/5
f 146/582/3 644/582/3 643/583/3
f 50/636/5 630/636/5 629/452/5
f 94/587/3 634/587/3 633/381/3
