# Blender 4.4.1
# www.blender.org
mtllib metrorite.mtl
o 球
v 0.002309 0.829624 -0.551347
v 0.005429 0.511915 -0.802193
v 0.009911 0.153958 -0.902229
v 0.010556 -0.034399 -0.904053
v 0.012595 -0.204853 -0.893294
v 0.046356 -0.445536 -0.816029
v 0.049889 0.964344 -0.190464
v 0.087146 0.905633 -0.364094
v 0.113800 0.826640 -0.529544
v 0.136474 0.685372 -0.682611
v 0.158618 0.502360 -0.780087
v 0.196931 0.334590 -0.856787
v 0.202607 0.182290 -0.905733
v 0.197983 0.029880 -0.924445
v 0.228645 -0.018944 -0.871605
v 0.274504 -0.111346 -0.874428
v 0.189337 -0.446588 -0.809070
v 0.137734 -0.706554 -0.692436
v 0.108217 -0.830820 -0.544044
v 0.074541 -0.923158 -0.374744
v 0.040299 -0.968636 -0.170372
v 0.086716 0.960663 -0.180362
v 0.151263 0.898510 -0.341661
v 0.214667 0.825150 -0.487056
v 0.278543 0.698251 -0.629609
v 0.302688 0.495589 -0.715820
v 0.292706 0.236459 -0.777718
v 0.320227 0.155707 -0.756203
v 0.377196 0.133714 -0.726343
v 0.380877 -0.041694 -0.776284
v 0.411516 -0.260355 -0.877939
v 0.316933 -0.555785 -0.767939
v 0.270175 -0.706554 -0.652261
v 0.212275 -0.830820 -0.512478
v 0.146218 -0.923158 -0.353001
v 0.075369 -0.965194 -0.153537
v 0.118974 0.957574 -0.162926
v 0.207589 0.891966 -0.305573
v 0.343869 0.748248 -0.448004
v 0.376678 0.479357 -0.590407
v 0.385413 0.356626 -0.639793
v 0.422229 0.345256 -0.621948
v 0.485406 0.324870 -0.610752
v 0.555146 0.157152 -0.676706
v 0.517964 -0.163402 -0.800140
v 0.534495 -0.353761 -0.785348
v 0.461218 -0.555136 -0.690261
v 0.392234 -0.706554 -0.587019
v 0.308176 -0.830820 -0.461218
v 0.212257 -0.923133 -0.317609
v 0.106553 -0.959899 -0.127696
v 0.146065 0.955346 -0.139111
v 0.268228 0.887806 -0.254799
v 0.405510 0.582114 -0.473656
v 0.449678 0.436072 -0.555848
v 0.511320 0.482241 -0.496403
v 0.562044 0.444881 -0.492037
v 0.646950 0.233582 -0.585110
v 0.700292 -0.003228 -0.706707
v 0.692436 -0.194938 -0.692436
v 0.652261 -0.382384 -0.652261
v 0.587019 -0.555136 -0.587019
v 0.499219 -0.706554 -0.499219
v 0.392234 -0.830820 -0.392234
v 0.269773 -0.922813 -0.269078
v 0.131944 -0.951813 -0.093366
v 0.167496 0.953783 -0.109682
v 0.322542 0.888238 -0.201303
v 0.426277 0.583810 -0.437654
v 0.482820 0.502200 -0.484117
v 0.553954 0.541362 -0.397080
v 0.722351 0.396837 -0.449543
v 0.815021 0.193821 -0.546647
v 0.835333 0.002954 -0.554884
v 0.784920 -0.198525 -0.519378
v 0.745046 -0.367507 -0.452663
v 0.709665 -0.546653 -0.467112
v 0.587019 -0.706554 -0.392234
v 0.461218 -0.830820 -0.308176
v 0.315394 -0.921652 -0.207950
v 0.149882 -0.940068 -0.052512
v 0.003159 0.981764 0.006644
v 0.182539 0.952742 -0.075630
v 0.345278 0.892946 -0.145707
v 0.430617 0.658845 -0.328067
v 0.487977 0.575603 -0.373966
v 0.613870 0.563739 -0.304521
v 0.861531 0.391144 -0.349949
v 0.872054 0.184034 -0.365838
v 0.858043 -0.017074 -0.362728
v 0.840663 -0.200142 -0.329069
v 0.802834 -0.335301 -0.250269
v 0.756062 -0.509358 -0.261340
v 0.652261 -0.706554 -0.270175
v 0.512478 -0.830820 -0.212275
v 0.344716 -0.918615 -0.135149
v 0.159263 -0.924116 -0.008496
v 0.190791 0.951596 -0.036854
v 0.356594 0.899826 -0.082369
v 0.496662 0.784127 -0.154103
v 0.557728 0.682447 -0.187046
v 0.796616 0.551739 -0.158005
v 0.864381 0.361506 -0.175551
v 0.903459 0.170355 -0.180707
v 0.928297 -0.015204 -0.181119
v 0.947689 -0.191680 -0.185676
v 0.868784 -0.291072 -0.113037
v 0.780748 -0.483269 -0.116982
v 0.692436 -0.706554 -0.137734
v 0.544014 -0.830815 -0.108196
v 0.351431 -0.911029 -0.051842
v 0.160285 -0.903215 0.035587
v 0.192750 0.947698 0.007986
v 0.360319 0.896468 0.004584
v 0.539495 0.816747 0.004721
v 0.699458 0.696944 0.003045
v 0.802226 0.527883 -0.004927
v 0.888169 0.361491 0.001573
v 0.967169 0.192028 0.002948
v 1.009437 -0.006843 -0.002570
v 1.002471 -0.213682 -0.032825
v 0.905733 -0.314380 -0.004393
v 0.804634 -0.484758 0.014997
v 0.706002 -0.706554 -0.000000
v 0.552422 -0.830491 0.001051
v 0.332758 -0.896424 0.033298
v 0.154947 -0.879434 0.075343
v 0.189830 0.939569 0.056312
v 0.348731 0.851849 0.127077
v 0.488111 0.743955 0.187139
v 0.632427 0.665376 0.177636
v 0.773485 0.535503 0.165429
v 0.901312 0.384124 0.181584
v 0.960288 0.194984 0.191061
v 0.985853 -0.011028 0.192266
v 1.005914 -0.252260 0.146186
v 0.910689 -0.372223 0.151944
v 0.819037 -0.559397 0.155335
v 0.692436 -0.706554 0.137734
v 0.531023 -0.828932 0.111418
v 0.293262 -0.871795 0.108817
v 0.146212 -0.856119 0.108355
v 0.183008 0.929377 0.100719
v 0.331946 0.801425 0.207345
v 0.432617 0.693377 0.254841
v 0.524277 0.628114 0.283959
v 0.693085 0.541357 0.317890
v 0.847809 0.388389 0.353159
v 0.904813 0.194976 0.374756
v 0.923085 0.000110 0.382653
v 0.907050 -0.196935 0.375163
v 0.852524 -0.382829 0.352780
v 0.766963 -0.555138 0.317695
v 0.651607 -0.710193 0.275714
v 0.471911 -0.823745 0.212309
v 0.243831 -0.837633 0.166329
v 0.136220 -0.836575 0.134255
v 0.172289 0.920265 0.136311
v 0.306255 0.783450 0.243230
v 0.396589 0.677828 0.285389
v 0.461751 0.605785 0.333176
v 0.585860 0.540939 0.410910
v 0.747796 0.394603 0.500960
v 0.808437 0.191992 0.542725
v 0.812293 0.001901 0.545398
v 0.800860 -0.189899 0.537707
v 0.779562 -0.381534 0.522064
v 0.696417 -0.583780 0.486884
v 0.586246 -0.726601 0.417182
v 0.383391 -0.813502 0.289896
v 0.203177 -0.808966 0.204488
v 0.125761 -0.822509 0.153733
v 0.156218 0.915904 0.161987
v 0.272863 0.784457 0.267556
v 0.357115 0.678359 0.318745
v 0.419748 0.600802 0.389964
v 0.506345 0.548671 0.486542
v 0.644578 0.391553 0.638035
v 0.681302 0.187558 0.680885
v 0.691725 0.002983 0.693816
v 0.666363 -0.183511 0.675495
v 0.643171 -0.372408 0.645186
v 0.587438 -0.574167 0.605087
v 0.487174 -0.704925 0.500541
v 0.294841 -0.798882 0.335513
v 0.173470 -0.793175 0.229033
v 0.114872 -0.813884 0.167844
v 0.133641 0.917535 0.179555
v 0.234229 0.796038 0.292206
v 0.299371 0.704384 0.374034
v 0.371424 0.625848 0.465119
v 0.422675 0.502692 0.663184
v 0.487552 0.329784 0.761319
v 0.542294 0.185003 0.804462
v 0.545129 0.013445 0.805437
v 0.507978 -0.165493 0.780208
v 0.488256 -0.361186 0.750534
v 0.443353 -0.548733 0.686429
v 0.365087 -0.681047 0.556765
v 0.227251 -0.788297 0.363541
v 0.148379 -0.786033 0.245442
v 0.103225 -0.809692 0.177649
v 0.103978 0.924708 0.190103
v 0.186834 0.816485 0.319748
v 0.226960 0.740416 0.432650
v 0.293249 0.669904 0.549759
v 0.260661 0.450114 0.766534
v 0.304831 0.304394 0.792577
v 0.360724 0.191731 0.827244
v 0.301385 0.035481 0.917309
v 0.321260 -0.157912 0.875534
v 0.343118 -0.374396 0.843404
v 0.288022 -0.532602 0.738897
v 0.237353 -0.665511 0.611481
v 0.171280 -0.786182 0.396707
v 0.124256 -0.784856 0.256815
v 0.090327 -0.809096 0.183879
v 0.067838 0.935231 0.194627
v 0.123907 0.843678 0.348924
v 0.133288 0.775618 0.485739
v 0.152271 0.700149 0.640306
v 0.152598 0.528235 0.830175
v 0.145858 0.322260 0.845407
v 0.151472 0.132124 0.888433
v 0.200726 0.023757 0.952347
v 0.191796 -0.151253 0.983787
v 0.182685 -0.384489 0.885060
v 0.153330 -0.532522 0.762853
v 0.128310 -0.668914 0.651048
v 0.107491 -0.784087 0.434623
v 0.096367 -0.787185 0.265948
v 0.075250 -0.811548 0.186905
v 0.026033 0.947244 0.193291
v 0.032534 0.882488 0.375853
v 0.025329 0.805012 0.523593
v 0.008181 0.706393 0.683064
v -0.000000 0.555136 0.830170
v 0.006853 0.390778 0.927199
v 0.041336 0.128761 0.892807
v 0.081246 0.014156 0.917426
v -0.013278 -0.143675 0.924807
v -0.048062 -0.359788 0.861893
v -0.013497 -0.518295 0.784270
v 0.004730 -0.679585 0.677089
v 0.029709 -0.791427 0.467562
v 0.059489 -0.794626 0.274619
v 0.056774 -0.816947 0.186903
v -0.018927 0.958513 0.185650
v -0.061981 0.877249 0.375499
v -0.103649 0.789964 0.522403
v -0.132394 0.713393 0.682884
v -0.161958 0.555136 0.814219
v -0.179958 0.382384 0.904711
v -0.180146 0.174108 0.954576
v -0.160614 -0.032534 0.923875
v -0.172625 -0.179891 0.868189
v -0.164139 -0.336041 0.836774
v -0.153175 -0.505326 0.781616
v -0.133653 -0.681156 0.669635
v -0.071416 -0.800627 0.490342
v 0.010658 -0.810769 0.280952
v 0.034360 -0.825873 0.183949
v -0.062048 0.966564 0.171942
v -0.146675 0.875779 0.354347
v -0.214067 0.775793 0.487206
v -0.266107 0.682977 0.622400
v -0.317777 0.556702 0.767715
v -0.353001 0.382384 0.852219
v -0.374325 0.194058 0.904515
v -0.353571 -0.032576 0.892452
v -0.336332 -0.190166 0.830176
v -0.325366 -0.342435 0.786496
v -0.311650 -0.519503 0.715881
v -0.277857 -0.665912 0.623402
v -0.188621 -0.806427 0.485249
v -0.054987 -0.835831 0.281939
v 0.007608 -0.838452 0.177780
v -0.099359 0.970604 0.152901
v -0.213170 0.883155 0.319766
v -0.297688 0.786250 0.438225
v -0.384134 0.663687 0.536265
v -0.458904 0.545003 0.668228
v -0.512478 0.382384 0.766977
v -0.544044 0.194938 0.814218
v -0.534741 -0.038493 0.804357
v -0.501935 -0.219511 0.675947
v -0.486944 -0.310975 0.597733
v -0.456734 -0.462532 0.565761
v -0.410322 -0.614334 0.527912
v -0.302455 -0.796584 0.446840
v -0.134883 -0.863102 0.270673
v -0.023587 -0.854562 0.167811
v -0.130410 0.971909 0.128345
v -0.267790 0.898426 0.273019
v -0.375218 0.818452 0.384755
v -0.479392 0.680739 0.449407
v -0.569616 0.525375 0.529126
v -0.652260 0.382384 0.652260
v -0.692426 0.194509 0.692162
v -0.674881 -0.061425 0.649417
v -0.565282 -0.228668 0.527590
v -0.532321 -0.295875 0.501868
v -0.511797 -0.438301 0.471179
v -0.482610 -0.569574 0.450825
v -0.391023 -0.780715 0.388589
v -0.209772 -0.880314 0.241453
v -0.058002 -0.872429 0.153112
v 0.036976 -0.891996 0.073757
v -0.154765 0.971615 0.099451
v -0.319808 0.920392 0.216784
v -0.450356 0.812211 0.304436
v -0.566346 0.695085 0.361312
v -0.656218 0.525237 0.384744
v -0.838255 0.398492 0.459833
v -0.834209 0.186949 0.524295
v -0.728797 -0.102400 0.467350
v -0.627453 -0.208856 0.421445
v -0.593210 -0.282844 0.412426
v -0.567763 -0.435009 0.395821
v -0.537548 -0.563467 0.389815
v -0.450772 -0.790589 0.310594
v -0.271950 -0.889622 0.198732
v -0.092242 -0.890093 0.132817
v -0.172705 0.970908 0.067363
v -0.352088 0.922255 0.145022
v -0.557416 0.745925 0.155796
v -0.609396 0.695951 0.251047
v -0.687086 0.549121 0.260648
v -0.831144 0.383566 0.349231
v -0.866323 0.140290 0.335458
v -0.782891 -0.077046 0.333134
v -0.698103 -0.186451 0.346024
v -0.664637 -0.300156 0.326633
v -0.652734 -0.431283 0.299847
v -0.613247 -0.596297 0.302289
v -0.494518 -0.818466 0.208590
v -0.318936 -0.895045 0.146332
v -0.121516 -0.905307 0.106961
v -0.184000 0.970256 0.033375
v -0.372794 0.921770 0.070680
v -0.594783 0.672006 0.028873
v -0.624413 0.665312 0.119236
v -0.693956 0.583310 0.143154
v -0.783071 0.357341 0.253491
v -0.855908 0.133924 0.200306
v -0.856483 -0.027974 0.226320
v -0.814606 -0.177607 0.237539
v -0.762959 -0.344202 0.208357
v -0.729185 -0.451983 0.197244
v -0.682701 -0.659252 0.160018
v -0.526466 -0.826924 0.107725
v -0.351592 -0.899880 0.085431
v -0.144334 -0.918772 0.075598
v -0.188455 0.969828 -0.001219
v -0.376104 0.921334 -0.002644
v -0.604603 0.651222 -0.077539
v -0.656695 0.618029 -0.015340
v -0.827044 0.559823 0.012063
v -0.788867 0.331830 0.112477
v -0.853620 0.174633 0.088562
v -0.956833 -0.003231 0.030312
v -0.940898 -0.193230 0.017714
v -0.861911 -0.365458 0.049025
v -0.807189 -0.520607 0.029799
v -0.704254 -0.696154 0.002451
v -0.542313 -0.827426 0.005991
v -0.367910 -0.904976 0.016812
v -0.159010 -0.930817 0.039556
v -0.186079 0.969791 -0.035466
v -0.367971 0.920970 -0.073985
v -0.567481 0.740283 -0.144890
v -0.665593 0.541455 -0.198071
v -0.784873 0.459478 -0.167532
v -0.804166 0.355652 0.009912
v -0.852841 0.203604 -0.033552
v -0.954511 -0.009565 -0.203578
v -0.943265 -0.182395 -0.185695
v -0.898774 -0.396628 -0.197379
v -0.758742 -0.564757 -0.194483
v -0.697256 -0.709453 -0.146264
v -0.538461 -0.828486 -0.101888
v -0.367975 -0.911031 -0.058712
v -0.164891 -0.941938 -0.000122
v -0.176824 0.970205 -0.068596
v -0.347788 0.920881 -0.142443
v -0.511928 0.830864 -0.211977
v -0.632570 0.638776 -0.299360
v -0.722199 0.409640 -0.265283
v -0.786861 0.314865 -0.121456
v -0.850341 0.179301 -0.282657
v -0.888335 -0.002932 -0.377896
v -0.890891 -0.189875 -0.369391
v -0.762062 -0.375043 -0.396880
v -0.658137 -0.566822 -0.362665
v -0.656072 -0.709328 -0.270776
v -0.511349 -0.829996 -0.209857
v -0.350701 -0.917078 -0.136320
v -0.161536 -0.952289 -0.041853
v -0.160768 0.971075 -0.099865
v -0.315059 0.921132 -0.207229
v -0.461241 0.825057 -0.311398
v -0.576694 0.672943 -0.395124
v -0.662144 0.513101 -0.434853
v -0.729525 0.332692 -0.472859
v -0.790555 0.138984 -0.550395
v -0.743156 0.041395 -0.531633
v -0.700635 -0.044037 -0.493978
v -0.662042 -0.212370 -0.487710
v -0.590523 -0.447991 -0.445991
v -0.582433 -0.659781 -0.377712
v -0.452508 -0.843438 -0.323529
v -0.317042 -0.921524 -0.208853
v -0.149306 -0.961244 -0.082779
v -0.138192 0.972333 -0.128373
v -0.269647 0.921757 -0.266303
v -0.392352 0.816989 -0.398038
v -0.488971 0.682793 -0.488941
v -0.578651 0.539975 -0.547736
v -0.655731 0.347272 -0.614120
v -0.721648 0.130583 -0.702127
v -0.664914 0.024018 -0.711522
v -0.618973 -0.058771 -0.669081
v -0.598706 -0.208145 -0.593370
v -0.512953 -0.429807 -0.538324
v -0.514256 -0.501012 -0.478068
v -0.412808 -0.772006 -0.390277
v -0.270002 -0.923012 -0.269593
v -0.128896 -0.967181 -0.118240
v -0.108724 0.973190 -0.153207
v -0.212484 0.922569 -0.316129
v -0.310552 0.814943 -0.465325
v -0.388512 0.693388 -0.570763
v -0.455854 0.558641 -0.675298
v -0.507555 0.372545 -0.752230
v -0.537824 0.167294 -0.773172
v -0.523436 0.008207 -0.787273
v -0.520627 -0.177319 -0.782912
v -0.518156 -0.347240 -0.720536
v -0.440620 -0.474171 -0.655019
v -0.446268 -0.519777 -0.528649
v -0.360619 -0.721165 -0.428624
v -0.212275 -0.923158 -0.317692
v -0.101947 -0.969869 -0.145284
v -0.072700 0.972941 -0.173071
v -0.145805 0.922898 -0.352769
v -0.217131 0.820077 -0.513484
v -0.275600 0.700246 -0.637639
v -0.317175 0.557316 -0.761350
v -0.349591 0.379485 -0.846270
v -0.370952 0.181564 -0.883962
v -0.370190 -0.005523 -0.883258
v -0.354049 -0.173676 -0.872353
v -0.380859 -0.387328 -0.830939
v -0.362749 -0.529853 -0.672244
v -0.382599 -0.569829 -0.536702
v -0.262676 -0.745873 -0.469056
v -0.146218 -0.923158 -0.353001
v -0.069915 -0.970902 -0.164256
v -0.031965 0.971142 -0.186612
v -0.069569 0.920197 -0.372661
v -0.111354 0.827067 -0.543893
v -0.142616 0.704825 -0.686942
v -0.156519 0.565724 -0.822677
v -0.176433 0.391912 -0.910304
v -0.188045 0.197988 -0.957595
v -0.197669 -0.014688 -0.947032
v -0.178305 -0.194707 -0.903298
v -0.158088 -0.361702 -0.872295
v -0.235336 -0.563140 -0.706082
v -0.244092 -0.639303 -0.574109
v -0.117281 -0.818121 -0.532912
v -0.074541 -0.923158 -0.374744
v -0.034314 -0.971187 -0.175351
v 0.009806 0.968104 -0.192536
v 0.011559 0.913880 -0.375625
v 0.006824 0.705476 -0.710975
v 0.004978 0.338204 -0.868762
v 0.058087 -0.274155 -0.844815
v -0.000306 -0.706437 -0.706194
v 0.000000 -0.830820 -0.554701
v 0.000000 -0.923158 -0.382085
v 0.003088 -0.970518 -0.177593
vn 0.0596 0.8366 -0.5446
vn 0.1761 0.4400 -0.8806
vn 0.1108 0.1083 -0.9879
vn 0.1204 -0.1104 -0.9866
vn 0.1382 -0.2212 -0.9654
vn -0.0077 -0.3987 -0.9170
vn 0.1362 0.9739 -0.1817
vn 0.1636 0.9233 -0.3476
vn 0.1865 0.8304 -0.5250
vn 0.2443 0.5977 -0.7636
vn 0.3037 0.3992 -0.8651
vn 0.3793 0.2967 -0.8764
vn 0.3941 0.1864 -0.9000
vn 0.3039 -0.0035 -0.9527
vn 0.4173 -0.0062 -0.9087
vn 0.2630 0.0662 -0.9625
vn -0.0014 -0.3083 -0.9513
vn 0.0941 -0.6207 -0.7784
vn 0.1093 -0.8285 -0.5493
vn 0.0831 -0.9355 -0.3434
vn 0.0291 -0.9991 0.0304
vn 0.1775 0.9687 -0.1734
vn 0.2901 0.9060 -0.3082
vn 0.4143 0.7968 -0.4399
vn 0.5541 0.5579 -0.6178
vn 0.6574 0.3188 -0.6828
vn 0.6823 0.2200 -0.6972
vn 0.6405 0.2302 -0.7327
vn 0.3863 0.2909 -0.8753
vn 0.4127 0.2727 -0.8691
vn 0.2556 -0.0525 -0.9653
vn 0.1836 -0.4911 -0.8515
vn 0.2320 -0.6789 -0.6966
vn 0.2144 -0.8285 -0.5174
vn 0.1530 -0.9383 -0.3101
vn 0.0382 -0.9978 0.0539
vn 0.2047 0.9651 -0.1633
vn 0.4781 0.8465 -0.2342
vn 0.7622 0.5879 -0.2710
vn 0.7461 0.3735 -0.5512
vn 0.6847 0.2804 -0.6728
vn 0.5218 0.3555 -0.7755
vn 0.4047 0.4396 -0.8019
vn 0.3183 0.3840 -0.8667
vn 0.4125 0.1524 -0.8981
vn 0.5134 -0.2817 -0.8106
vn 0.4526 -0.5569 -0.6965
vn 0.3951 -0.7041 -0.5900
vn 0.3117 -0.8288 -0.4647
vn 0.2138 -0.9420 -0.2587
vn 0.0456 -0.9952 0.0863
vn 0.2104 0.9654 -0.1541
vn 0.5211 0.8005 -0.2960
vn 0.6479 0.5316 -0.5455
vn 0.5576 0.4645 -0.6880
vn 0.3465 0.6328 -0.6925
vn 0.3992 0.5642 -0.7227
vn 0.3983 0.4656 -0.7903
vn 0.5383 0.1487 -0.8295
vn 0.6931 -0.1349 -0.7081
vn 0.7256 -0.3335 -0.6019
vn 0.6195 -0.5301 -0.5790
vn 0.4942 -0.7074 -0.5052
vn 0.3971 -0.8303 -0.3912
vn 0.2622 -0.9464 -0.1884
vn 0.0536 -0.9899 0.1311
vn 0.2165 0.9682 -0.1254
vn 0.5265 0.7760 -0.3473
vn 0.5823 0.6268 -0.5178
vn 0.3845 0.6928 -0.6101
vn 0.3400 0.7732 -0.5353
vn 0.4967 0.5793 -0.6463
vn 0.7202 0.3065 -0.6224
vn 0.8774 -0.0031 -0.4797
vn 0.8927 -0.2658 -0.3639
vn 0.8970 -0.2926 -0.3313
vn 0.8112 -0.4398 -0.3854
vn 0.6213 -0.6945 -0.3630
vn 0.4646 -0.8342 -0.2972
vn 0.2909 -0.9516 -0.0995
vn 0.0624 -0.9799 0.1897
vn 0.0834 0.9952 0.0508
vn 0.2245 0.9711 -0.0806
vn 0.4474 0.8274 -0.3394
vn 0.6268 0.6058 -0.4901
vn 0.4593 0.7274 -0.5099
vn 0.4615 0.7363 -0.4948
vn 0.8033 0.4664 -0.3704
vn 0.9519 0.1321 -0.2766
vn 0.9560 -0.0582 -0.2874
vn 0.8994 -0.2951 -0.3225
vn 0.8886 -0.3813 -0.2551
vn 0.9100 -0.3621 -0.2018
vn 0.7378 -0.6371 -0.2230
vn 0.5066 -0.8424 -0.1835
vn 0.2912 -0.9566 0.0089
vn 0.0710 -0.9605 0.2690
vn 0.2338 0.9723 0.0011
vn 0.3972 0.8966 -0.1956
vn 0.5353 0.7180 -0.4449
vn 0.5512 0.6791 -0.4847
vn 0.7258 0.6355 -0.2632
vn 0.9115 0.3728 -0.1741
vn 0.9565 0.1540 -0.2479
vn 0.9243 0.0557 -0.3776
vn 0.8580 -0.3047 -0.4135
vn 0.7718 -0.5586 -0.3039
vn 0.9014 -0.3868 -0.1946
vn 0.7935 -0.5919 -0.1417
vn 0.5150 -0.8554 -0.0558
vn 0.2486 -0.9599 0.1299
vn 0.0659 -0.9291 0.3639
vn 0.2458 0.9576 0.1505
vn 0.3903 0.9104 0.1372
vn 0.5464 0.8363 0.0447
vn 0.6808 0.7325 0.0053
vn 0.8176 0.5753 -0.0218
vn 0.9097 0.4054 -0.0895
vn 0.9570 0.2521 -0.1437
vn 0.9833 0.1051 -0.1487
vn 0.9111 -0.3354 -0.2396
vn 0.7629 -0.5890 -0.2665
vn 0.8665 -0.4534 -0.2089
vn 0.7807 -0.6218 -0.0629
vn 0.4823 -0.8725 0.0785
vn 0.1608 -0.9564 0.2437
vn 0.0336 -0.8900 0.4547
vn 0.2431 0.9246 0.2934
vn 0.3524 0.8213 0.4486
vn 0.4010 0.7352 0.5465
vn 0.5433 0.7200 0.4318
vn 0.7204 0.6536 0.2318
vn 0.8676 0.4811 0.1257
vn 0.9594 0.2352 0.1559
vn 0.9755 0.0615 0.2113
vn 0.9363 -0.3302 0.1193
vn 0.8573 -0.5136 0.0361
vn 0.8479 -0.5290 0.0355
vn 0.7027 -0.7040 0.1027
vn 0.3966 -0.8952 0.2035
vn 0.0435 -0.9396 0.3394
vn -0.0115 -0.8511 0.5248
vn 0.2433 0.8933 0.3780
vn 0.3569 0.7314 0.5811
vn 0.3346 0.6698 0.6629
vn 0.3386 0.7535 0.5635
vn 0.5143 0.7542 0.4083
vn 0.7692 0.5148 0.3785
vn 0.8918 0.1999 0.4058
vn 0.8978 0.0156 0.4401
vn 0.8794 -0.1806 0.4405
vn 0.8537 -0.3854 0.3503
vn 0.8015 -0.5377 0.2618
vn 0.6069 -0.7605 0.2309
vn 0.2549 -0.9322 0.2570
vn -0.0706 -0.9234 0.3772
vn -0.0412 -0.8339 0.5504
vn 0.2834 0.8758 0.3906
vn 0.4223 0.7045 0.5703
vn 0.4017 0.6921 0.5997
vn 0.3351 0.8186 0.4665
vn 0.3926 0.8307 0.3947
vn 0.6590 0.5571 0.5053
vn 0.7925 0.1859 0.5808
vn 0.7971 -0.0196 0.6036
vn 0.7821 -0.1461 0.6058
vn 0.7760 -0.2986 0.5555
vn 0.6895 -0.5501 0.4711
vn 0.4427 -0.8140 0.3761
vn 0.0725 -0.9528 0.2948
vn -0.1311 -0.9326 0.3362
vn -0.0320 -0.8486 0.5281
vn 0.3383 0.8698 0.3591
vn 0.5021 0.7310 0.4620
vn 0.5437 0.7279 0.4177
vn 0.4573 0.8363 0.3023
vn 0.4136 0.8332 0.3670
vn 0.5675 0.5541 0.6090
vn 0.6787 0.1881 0.7099
vn 0.6795 -0.0518 0.7319
vn 0.6303 -0.1669 0.7582
vn 0.5893 -0.2619 0.7643
vn 0.4586 -0.5408 0.7052
vn 0.2134 -0.8148 0.5390
vn -0.0361 -0.9524 0.3028
vn -0.1170 -0.9590 0.2582
vn 0.0193 -0.8793 0.4758
vn 0.3771 0.8738 0.3070
vn 0.5321 0.7554 0.3823
vn 0.5991 0.7526 0.2732
vn 0.5201 0.7957 0.3104
vn 0.3911 0.6749 0.6257
vn 0.3453 0.4449 0.8263
vn 0.4365 0.2336 0.8688
vn 0.4958 -0.0310 0.8679
vn 0.4991 -0.1717 0.8494
vn 0.4751 -0.2837 0.8329
vn 0.3187 -0.5762 0.7526
vn 0.1363 -0.8151 0.5630
vn -0.0081 -0.9684 0.2495
vn -0.0362 -0.9836 0.1766
vn 0.0995 -0.9029 0.4181
vn 0.3787 0.8860 0.2675
vn 0.5021 0.7862 0.3602
vn 0.5255 0.7977 0.2958
vn 0.5109 0.7488 0.4223
vn 0.4431 0.4151 0.7946
vn 0.2633 0.3104 0.9134
vn 0.2153 0.3088 0.9264
vn 0.3521 0.1756 0.9194
vn 0.4676 -0.1492 0.8713
vn 0.3932 -0.3690 0.8422
vn 0.2340 -0.6331 0.7378
vn 0.1760 -0.8002 0.5733
vn 0.0740 -0.9709 0.2277
vn 0.0530 -0.9903 0.1284
vn 0.1762 -0.9087 0.3784
vn 0.3519 0.9031 0.2460
vn 0.4392 0.8202 0.3666
vn 0.4041 0.8280 0.3888
vn 0.3914 0.7490 0.5346
vn 0.4082 0.4557 0.7910
vn 0.3473 0.1786 0.9206
vn 0.1349 0.2966 0.9454
vn 0.1109 0.2583 0.9597
vn 0.1238 -0.0925 0.9880
vn 0.1061 -0.4484 0.8875
vn 0.1131 -0.6135 0.7815
vn 0.1856 -0.7618 0.6207
vn 0.1548 -0.9558 0.2500
vn 0.1370 -0.9831 0.1217
vn 0.2310 -0.9019 0.3651
vn 0.2162 0.9422 0.2559
vn 0.1939 0.8927 0.4068
vn 0.1415 0.8716 0.4693
vn 0.0930 0.7856 0.6118
vn 0.0916 0.5620 0.8221
vn 0.1625 0.2328 0.9589
vn 0.1316 0.0907 0.9871
vn -0.1186 0.1495 0.9816
vn -0.1915 -0.1403 0.9714
vn -0.1750 -0.3650 0.9144
vn -0.0380 -0.5274 0.8488
vn 0.0880 -0.7269 0.6811
vn 0.1652 -0.9417 0.2930
vn 0.2240 -0.9653 0.1342
vn 0.2778 -0.8896 0.3625
vn 0.0754 0.9586 0.2747
vn -0.0870 0.8945 0.4386
vn -0.1613 0.8711 0.4639
vn -0.1695 0.7915 0.5872
vn -0.1764 0.5881 0.7893
vn -0.1308 0.3162 0.9396
vn -0.0610 0.0404 0.9973
vn -0.0851 -0.1466 0.9855
vn -0.2029 -0.2476 0.9474
vn -0.2453 -0.2942 0.9237
vn -0.2044 -0.4527 0.8679
vn -0.1136 -0.6986 0.7064
vn 0.0714 -0.9253 0.3724
vn 0.2583 -0.9505 0.1725
vn 0.3098 -0.8784 0.3640
vn 0.0008 0.9615 0.2749
vn -0.1497 0.8750 0.4605
vn -0.2811 0.8305 0.4809
vn -0.3599 0.7808 0.5107
vn -0.3700 0.6196 0.6922
vn -0.3586 0.3836 0.8510
vn -0.3515 0.0955 0.9313
vn -0.3301 -0.2596 0.9075
vn -0.3903 -0.3839 0.8368
vn -0.5043 -0.3303 0.7978
vn -0.5251 -0.4235 0.7382
vn -0.4189 -0.6301 0.6538
vn -0.1205 -0.8926 0.4345
vn 0.2158 -0.9507 0.2226
vn 0.3076 -0.8776 0.3676
vn -0.0548 0.9668 0.2496
vn -0.1380 0.8719 0.4698
vn -0.2664 0.7800 0.5663
vn -0.4316 0.7297 0.5303
vn -0.5075 0.6575 0.5568
vn -0.5342 0.4346 0.7250
vn -0.5634 0.0986 0.8203
vn -0.5760 -0.3127 0.7552
vn -0.6497 -0.5017 0.5711
vn -0.7958 -0.3592 0.4876
vn -0.7898 -0.3181 0.5244
vn -0.6707 -0.4937 0.5535
vn -0.3478 -0.8196 0.4553
vn 0.0922 -0.9620 0.2569
vn 0.2667 -0.8934 0.3616
vn -0.0764 0.9746 0.2106
vn -0.1773 0.8913 0.4172
vn -0.3248 0.7740 0.5435
vn -0.5217 0.6509 0.5516
vn -0.5596 0.6717 0.4855
vn -0.6207 0.4900 0.6120
vn -0.7312 0.0381 0.6811
vn -0.7337 -0.4202 0.5340
vn -0.7311 -0.5625 0.3860
vn -0.8279 -0.3522 0.4365
vn -0.8203 -0.2502 0.5143
vn -0.7446 -0.3788 0.5496
vn -0.4879 -0.7216 0.4911
vn -0.0275 -0.9575 0.2872
vn 0.1980 -0.9199 0.3386
vn 0.1166 -0.9009 0.4181
vn -0.1102 0.9856 0.1281
vn -0.3369 0.9046 0.2610
vn -0.5299 0.7818 0.3287
vn -0.6731 0.6265 0.3929
vn -0.6614 0.6696 0.3378
vn -0.8139 0.4815 0.3251
vn -0.9075 -0.0590 0.4158
vn -0.7772 -0.5314 0.3371
vn -0.7225 -0.5411 0.4304
vn -0.7675 -0.3221 0.5543
vn -0.7586 -0.2059 0.6182
vn -0.7155 -0.3359 0.6125
vn -0.4940 -0.7115 0.4998
vn -0.1032 -0.9474 0.3031
vn 0.1293 -0.9435 0.3051
vn -0.1487 0.9877 0.0493
vn -0.4616 0.8836 0.0788
vn -0.6880 0.7257 0.0017
vn -0.7567 0.6370 0.1473
vn -0.8324 0.5501 0.0675
vn -0.9053 0.4226 -0.0425
vn -0.9950 -0.0705 0.0711
vn -0.8424 -0.3790 0.3830
vn -0.7232 -0.4577 0.5172
vn -0.7087 -0.2761 0.6493
vn -0.7471 -0.2161 0.6286
vn -0.7222 -0.3807 0.5774
vn -0.4899 -0.7721 0.4048
vn -0.1708 -0.9499 0.2619
vn 0.0724 -0.9601 0.2701
vn -0.1584 0.9872 0.0181
vn -0.5190 0.8547 -0.0066
vn -0.6838 0.7252 -0.0811
vn -0.7061 0.7076 -0.0262
vn -0.7878 0.6026 0.1276
vn -0.9378 0.3450 -0.0380
vn -0.9777 0.1738 0.1182
vn -0.9148 -0.1113 0.3883
vn -0.7777 -0.2778 0.5638
vn -0.7525 -0.2976 0.5875
vn -0.7902 -0.2945 0.5374
vn -0.7558 -0.5126 0.4074
vn -0.5251 -0.8152 0.2446
vn -0.2371 -0.9539 0.1839
vn 0.0297 -0.9701 0.2408
vn -0.1626 0.9867 -0.0070
vn -0.5348 0.8445 0.0302
vn -0.7751 0.6311 -0.0303
vn -0.5966 0.7911 -0.1349
vn -0.8671 0.4976 -0.0251
vn -0.9545 0.2551 0.1545
vn -0.9312 0.3403 0.1310
vn -0.9692 0.1422 0.2012
vn -0.9428 -0.2134 0.2562
vn -0.8713 -0.3672 0.3255
vn -0.8661 -0.4426 0.2324
vn -0.7789 -0.6149 0.1232
vn -0.5352 -0.8399 0.0896
vn -0.2865 -0.9509 0.1169
vn -0.0034 -0.9769 0.2137
vn -0.1625 0.9863 -0.0282
vn -0.5002 0.8633 0.0664
vn -0.8014 0.5902 0.0975
vn -0.7659 0.5987 -0.2344
vn -0.8973 0.2994 -0.3243
vn -0.9934 0.1011 -0.0543
vn -0.9103 0.4134 -0.0200
vn -0.9727 0.1835 -0.1422
vn -0.9700 -0.1868 -0.1555
vn -0.8809 -0.4322 -0.1927
vn -0.8361 -0.4853 -0.2559
vn -0.7635 -0.6277 -0.1521
vn -0.5230 -0.8510 -0.0473
vn -0.3194 -0.9464 0.0485
vn -0.0290 -0.9817 0.1883
vn -0.1581 0.9862 -0.0491
vn -0.3965 0.9159 -0.0623
vn -0.6575 0.7503 -0.0688
vn -0.8565 0.4962 -0.1418
vn -0.9146 0.3551 -0.1933
vn -0.9456 0.2566 -0.2002
vn -0.8962 0.3895 -0.2126
vn -0.8669 0.0352 -0.4973
vn -0.7676 -0.2042 -0.6076
vn -0.6012 -0.3577 -0.7146
vn -0.6368 -0.4008 -0.6586
vn -0.6926 -0.5885 -0.4171
vn -0.5156 -0.8294 -0.2152
vn -0.3311 -0.9433 -0.0227
vn -0.0453 -0.9866 0.1566
vn -0.1493 0.9863 -0.0697
vn -0.3101 0.9273 -0.2095
vn -0.5238 0.7811 -0.3398
vn -0.7185 0.5887 -0.3703
vn -0.8408 0.4477 -0.3044
vn -0.8599 0.4299 -0.2752
vn -0.9169 0.1343 -0.3759
vn -0.8190 -0.3056 -0.4857
vn -0.6997 -0.3200 -0.6388
vn -0.6482 -0.2759 -0.7097
vn -0.5468 -0.3480 -0.7615
vn -0.5071 -0.4684 -0.7235
vn -0.3855 -0.7708 -0.5072
vn -0.2742 -0.9423 -0.1919
vn -0.0472 -0.9928 0.1100
vn -0.1308 0.9869 -0.0944
vn -0.2770 0.9216 -0.2717
vn -0.4336 0.7875 -0.4379
vn -0.5700 0.6520 -0.5000
vn -0.6863 0.5179 -0.5106
vn -0.7227 0.4101 -0.5564
vn -0.7611 0.0173 -0.6484
vn -0.6927 -0.3045 -0.6538
vn -0.8036 -0.3401 -0.4884
vn -0.8474 -0.3174 -0.4256
vn -0.7641 -0.4716 -0.4402
vn -0.5580 -0.4483 -0.6983
vn -0.3132 -0.5816 -0.7508
vn -0.2104 -0.8885 -0.4077
vn -0.0323 -0.9978 0.0583
vn -0.0954 0.9878 -0.1231
vn -0.2286 0.9193 -0.3203
vn -0.3576 0.7956 -0.4890
vn -0.4510 0.6925 -0.5630
vn -0.5319 0.5568 -0.6380
vn -0.5609 0.3546 -0.7481
vn -0.5170 0.1350 -0.8453
vn -0.5486 -0.0850 -0.8317
vn -0.6892 -0.1861 -0.7003
vn -0.7717 -0.4092 -0.4869
vn -0.6835 -0.6262 -0.3750
vn -0.5985 -0.6073 -0.5224
vn -0.4034 -0.5736 -0.7129
vn -0.2535 -0.8533 -0.4557
vn -0.0139 -0.9996 0.0266
vn -0.0405 0.9878 -0.1506
vn -0.1478 0.9226 -0.3564
vn -0.2561 0.8105 -0.5268
vn -0.3230 0.7133 -0.6220
vn -0.3774 0.5639 -0.7345
vn -0.4312 0.3300 -0.8397
vn -0.4554 0.1004 -0.8846
vn -0.4255 -0.0615 -0.9029
vn -0.3701 -0.1541 -0.9161
vn -0.3904 -0.4490 -0.8038
vn -0.4451 -0.7424 -0.5007
vn -0.5082 -0.6738 -0.5364
vn -0.4587 -0.6222 -0.6344
vn -0.2787 -0.8686 -0.4097
vn -0.0032 -0.9999 0.0159
vn 0.0250 0.9849 -0.1715
vn -0.0369 0.9276 -0.3718
vn -0.1233 0.8285 -0.5462
vn -0.1370 0.7046 -0.6962
vn -0.0688 0.5391 -0.8394
vn -0.0407 0.3371 -0.9406
vn -0.0534 0.1092 -0.9926
vn -0.0804 -0.0929 -0.9924
vn -0.0459 -0.1954 -0.9796
vn -0.0296 -0.3977 -0.9170
vn -0.2610 -0.6449 -0.7183
vn -0.4452 -0.6345 -0.6319
vn -0.3774 -0.7105 -0.5940
vn -0.1743 -0.9083 -0.3802
vn 0.0051 -0.9999 0.0129
vn 0.0866 0.9796 -0.1813
vn 0.0774 0.9274 -0.3660
vn 0.1067 0.6451 -0.7566
vn 0.1744 0.2980 -0.9385
vn 0.0807 -0.2634 -0.9613
vn -0.1594 -0.5978 -0.7856
vn -0.1179 -0.7980 -0.5910
vn -0.0157 -0.9307 -0.3654
vn 0.0168 -0.9997 0.0170
vt 0.750000 0.125000
vt 0.750000 0.187500
vt 0.718750 0.187500
vt 0.718750 0.125000
vt 0.750000 0.562500
vt 0.750000 0.625000
vt 0.718750 0.625000
vt 0.718750 0.562500
vt 0.750000 0.062500
vt 0.718750 0.062500
vt 0.750000 0.500000
vt 0.718750 0.500000
vt 0.750000 0.937500
vt 0.734375 1.000000
vt 0.718750 0.937500
vt 0.734375 0.000000
vt 0.750000 0.437500
vt 0.718750 0.437500
vt 0.750000 0.875000
vt 0.718750 0.875000
vt 0.750000 0.375000
vt 0.718750 0.375000
vt 0.750000 0.812500
vt 0.718750 0.812500
vt 0.750000 0.312500
vt 0.718750 0.312500
vt 0.750000 0.750000
vt 0.718750 0.750000
vt 0.750000 0.250000
vt 0.718750 0.250000
vt 0.750000 0.687500
vt 0.718750 0.687500
vt 0.687500 0.750000
vt 0.687500 0.687500
vt 0.687500 0.250000
vt 0.687500 0.187500
vt 0.687500 0.625000
vt 0.687500 0.125000
vt 0.687500 0.562500
vt 0.687500 0.062500
vt 0.687500 0.500000
vt 0.703125 1.000000
vt 0.687500 0.937500
vt 0.703125 0.000000
vt 0.687500 0.437500
vt 0.687500 0.875000
vt 0.687500 0.375000
vt 0.687500 0.812500
vt 0.687500 0.312500
vt 0.656250 0.500000
vt 0.656250 0.437500
vt 0.656250 0.937500
vt 0.656250 0.875000
vt 0.656250 0.375000
vt 0.656250 0.812500
vt 0.656250 0.312500
vt 0.656250 0.750000
vt 0.656250 0.250000
vt 0.656250 0.687500
vt 0.656250 0.187500
vt 0.656250 0.625000
vt 0.656250 0.125000
vt 0.656250 0.562500
vt 0.656250 0.062500
vt 0.671875 1.000000
vt 0.671875 0.000000
vt 0.625000 0.250000
vt 0.625000 0.187500
vt 0.625000 0.687500
vt 0.625000 0.625000
vt 0.625000 0.125000
vt 0.625000 0.562500
vt 0.625000 0.062500
vt 0.625000 0.500000
vt 0.640625 1.000000
vt 0.625000 0.937500
vt 0.640625 0.000000
vt 0.625000 0.437500
vt 0.625000 0.875000
vt 0.625000 0.375000
vt 0.625000 0.812500
vt 0.625000 0.312500
vt 0.625000 0.750000
vt 0.593750 0.437500
vt 0.593750 0.375000
vt 0.593750 0.875000
vt 0.593750 0.812500
vt 0.593750 0.312500
vt 0.593750 0.750000
vt 0.593750 0.250000
vt 0.593750 0.687500
vt 0.593750 0.187500
vt 0.593750 0.625000
vt 0.593750 0.125000
vt 0.593750 0.562500
vt 0.593750 0.062500
vt 0.593750 0.500000
vt 0.609375 1.000000
vt 0.593750 0.937500
vt 0.609375 0.000000
vt 0.562500 0.187500
vt 0.562500 0.125000
vt 0.562500 0.625000
vt 0.562500 0.562500
vt 0.562500 0.062500
vt 0.562500 0.500000
vt 0.578125 1.000000
vt 0.562500 0.937500
vt 0.578125 0.000000
vt 0.562500 0.437500
vt 0.562500 0.875000
vt 0.562500 0.375000
vt 0.562500 0.812500
vt 0.562500 0.312500
vt 0.562500 0.750000
vt 0.562500 0.250000
vt 0.562500 0.687500
vt 0.531250 0.875000
vt 0.531250 0.812500
vt 0.531250 0.375000
vt 0.531250 0.312500
vt 0.531250 0.750000
vt 0.531250 0.250000
vt 0.531250 0.687500
vt 0.531250 0.187500
vt 0.531250 0.625000
vt 0.531250 0.125000
vt 0.531250 0.562500
vt 0.531250 0.062500
vt 0.531250 0.500000
vt 0.546875 1.000000
vt 0.531250 0.937500
vt 0.546875 0.000000
vt 0.531250 0.437500
vt 0.500000 0.625000
vt 0.500000 0.562500
vt 0.500000 0.125000
vt 0.500000 0.062500
vt 0.500000 0.500000
vt 0.515625 1.000000
vt 0.500000 0.937500
vt 0.515625 0.000000
vt 0.500000 0.437500
vt 0.500000 0.875000
vt 0.500000 0.375000
vt 0.500000 0.812500
vt 0.500000 0.312500
vt 0.500000 0.750000
vt 0.500000 0.250000
vt 0.500000 0.687500
vt 0.500000 0.187500
vt 0.468750 0.375000
vt 0.468750 0.312500
vt 0.468750 0.812500
vt 0.468750 0.750000
vt 0.468750 0.250000
vt 0.468750 0.687500
vt 0.468750 0.187500
vt 0.468750 0.625000
vt 0.468750 0.125000
vt 0.468750 0.562500
vt 0.468750 0.062500
vt 0.468750 0.500000
vt 0.484375 1.000000
vt 0.468750 0.937500
vt 0.484375 0.000000
vt 0.468750 0.437500
vt 0.468750 0.875000
vt 0.437500 0.125000
vt 0.437500 0.062500
vt 0.437500 0.562500
vt 0.437500 0.500000
vt 0.453125 1.000000
vt 0.437500 0.937500
vt 0.453125 0.000000
vt 0.437500 0.437500
vt 0.437500 0.875000
vt 0.437500 0.375000
vt 0.437500 0.812500
vt 0.437500 0.312500
vt 0.437500 0.750000
vt 0.437500 0.250000
vt 0.437500 0.687500
vt 0.437500 0.187500
vt 0.437500 0.625000
vt 0.406250 0.812500
vt 0.406250 0.750000
vt 0.406250 0.312500
vt 0.406250 0.250000
vt 0.406250 0.687500
vt 0.406250 0.187500
vt 0.406250 0.625000
vt 0.406250 0.125000
vt 0.406250 0.562500
vt 0.406250 0.062500
vt 0.406250 0.500000
vt 0.421875 1.000000
vt 0.406250 0.937500
vt 0.421875 0.000000
vt 0.406250 0.437500
vt 0.406250 0.875000
vt 0.406250 0.375000
vt 0.375000 0.562500
vt 0.375000 0.500000
vt 0.390625 1.000000
vt 0.375000 0.937500
vt 0.390625 0.000000
vt 0.375000 0.062500
vt 0.375000 0.437500
vt 0.375000 0.875000
vt 0.375000 0.375000
vt 0.375000 0.812500
vt 0.375000 0.312500
vt 0.375000 0.750000
vt 0.375000 0.250000
vt 0.375000 0.687500
vt 0.375000 0.187500
vt 0.375000 0.625000
vt 0.375000 0.125000
vt 0.343750 0.312500
vt 0.343750 0.250000
vt 0.343750 0.750000
vt 0.343750 0.687500
vt 0.343750 0.187500
vt 0.343750 0.625000
vt 0.343750 0.125000
vt 0.343750 0.562500
vt 0.343750 0.062500
vt 0.343750 0.500000
vt 0.359375 1.000000
vt 0.343750 0.937500
vt 0.359375 0.000000
vt 0.343750 0.437500
vt 0.343750 0.875000
vt 0.343750 0.375000
vt 0.343750 0.812500
vt 0.328125 0.000000
vt 0.312500 0.062500
vt 0.312500 0.500000
vt 0.312500 0.437500
vt 0.312500 0.937500
vt 0.312500 0.875000
vt 0.312500 0.375000
vt 0.312500 0.812500
vt 0.312500 0.312500
vt 0.312500 0.750000
vt 0.312500 0.250000
vt 0.312500 0.687500
vt 0.312500 0.187500
vt 0.312500 0.625000
vt 0.312500 0.125000
vt 0.312500 0.562500
vt 0.328125 1.000000
vt 0.281250 0.250000
vt 0.281250 0.187500
vt 0.281250 0.687500
vt 0.281250 0.625000
vt 0.281250 0.125000
vt 0.281250 0.562500
vt 0.281250 0.062500
vt 0.281250 0.500000
vt 0.296875 1.000000
vt 0.281250 0.937500
vt 0.296875 0.000000
vt 0.281250 0.437500
vt 0.281250 0.875000
vt 0.281250 0.375000
vt 0.281250 0.812500
vt 0.281250 0.312500
vt 0.281250 0.750000
vt 0.250000 0.937500
vt 0.250000 0.875000
vt 0.250000 0.437500
vt 0.250000 0.375000
vt 0.250000 0.812500
vt 0.250000 0.312500
vt 0.250000 0.750000
vt 0.250000 0.250000
vt 0.250000 0.687500
vt 0.250000 0.187500
vt 0.250000 0.625000
vt 0.250000 0.125000
vt 0.250000 0.562500
vt 0.250000 0.062500
vt 0.250000 0.500000
vt 0.265625 1.000000
vt 0.265625 0.000000
vt 0.218750 0.687500
vt 0.218750 0.625000
vt 0.218750 0.187500
vt 0.218750 0.125000
vt 0.218750 0.562500
vt 0.218750 0.062500
vt 0.218750 0.500000
vt 0.234375 1.000000
vt 0.218750 0.937500
vt 0.234375 0.000000
vt 0.218750 0.437500
vt 0.218750 0.875000
vt 0.218750 0.375000
vt 0.218750 0.812500
vt 0.218750 0.312500
vt 0.218750 0.750000
vt 0.218750 0.250000
vt 0.187500 0.437500
vt 0.187500 0.375000
vt 0.187500 0.875000
vt 0.187500 0.812500
vt 0.187500 0.312500
vt 0.187500 0.750000
vt 0.187500 0.250000
vt 0.187500 0.687500
vt 0.187500 0.187500
vt 0.187500 0.625000
vt 0.187500 0.125000
vt 0.187500 0.562500
vt 0.187500 0.062500
vt 0.187500 0.500000
vt 0.203125 1.000000
vt 0.187500 0.937500
vt 0.203125 0.000000
vt 0.156250 0.187500
vt 0.156250 0.125000
vt 0.156250 0.625000
vt 0.156250 0.562500
vt 0.156250 0.062500
vt 0.156250 0.500000
vt 0.171875 1.000000
vt 0.156250 0.937500
vt 0.171875 0.000000
vt 0.156250 0.437500
vt 0.156250 0.875000
vt 0.156250 0.375000
vt 0.156250 0.812500
vt 0.156250 0.312500
vt 0.156250 0.750000
vt 0.156250 0.250000
vt 0.156250 0.687500
vt 0.125000 0.875000
vt 0.125000 0.812500
vt 0.125000 0.375000
vt 0.125000 0.312500
vt 0.125000 0.750000
vt 0.125000 0.250000
vt 0.125000 0.687500
vt 0.125000 0.187500
vt 0.125000 0.625000
vt 0.125000 0.125000
vt 0.125000 0.562500
vt 0.125000 0.062500
vt 0.125000 0.500000
vt 0.140625 1.000000
vt 0.125000 0.937500
vt 0.140625 0.000000
vt 0.125000 0.437500
vt 0.093750 0.625000
vt 0.093750 0.562500
vt 0.093750 0.125000
vt 0.093750 0.062500
vt 0.093750 0.500000
vt 0.109375 1.000000
vt 0.093750 0.937500
vt 0.109375 0.000000
vt 0.093750 0.437500
vt 0.093750 0.875000
vt 0.093750 0.375000
vt 0.093750 0.812500
vt 0.093750 0.312500
vt 0.093750 0.750000
vt 0.093750 0.250000
vt 0.093750 0.687500
vt 0.093750 0.187500
vt 0.062500 0.375000
vt 0.062500 0.312500
vt 0.062500 0.812500
vt 0.062500 0.750000
vt 0.062500 0.250000
vt 0.062500 0.687500
vt 0.062500 0.187500
vt 0.062500 0.625000
vt 0.062500 0.125000
vt 0.062500 0.562500
vt 0.062500 0.062500
vt 0.062500 0.500000
vt 0.078125 1.000000
vt 0.062500 0.937500
vt 0.078125 0.000000
vt 0.062500 0.437500
vt 0.062500 0.875000
vt 0.031250 0.125000
vt 0.031250 0.062500
vt 0.031250 0.562500
vt 0.031250 0.500000
vt 0.046875 1.000000
vt 0.031250 0.937500
vt 0.046875 0.000000
vt 0.031250 0.437500
vt 0.031250 0.875000
vt 0.031250 0.375000
vt 0.031250 0.812500
vt 0.031250 0.312500
vt 0.031250 0.750000
vt 0.031250 0.250000
vt 0.031250 0.687500
vt 0.031250 0.187500
vt 0.031250 0.625000
vt 0.000000 0.312500
vt 0.000000 0.250000
vt 0.000000 0.750000
vt 0.000000 0.687500
vt 0.000000 0.187500
vt 0.000000 0.625000
vt 0.000000 0.125000
vt 0.000000 0.562500
vt 0.000000 0.062500
vt 0.000000 0.500000
vt 0.015625 1.000000
vt 0.000000 0.937500
vt 0.015625 0.000000
vt 0.000000 0.437500
vt 0.000000 0.875000
vt 0.000000 0.375000
vt 0.000000 0.812500
vt 1.000000 0.937500
vt 0.984375 1.000000
vt 0.968750 0.937500
vt 0.984375 0.000000
vt 1.000000 0.062500
vt 0.968750 0.062500
vt 1.000000 0.437500
vt 1.000000 0.500000
vt 0.968750 0.500000
vt 0.968750 0.437500
vt 1.000000 0.875000
vt 0.968750 0.875000
vt 1.000000 0.375000
vt 0.968750 0.375000
vt 1.000000 0.812500
vt 0.968750 0.812500
vt 1.000000 0.312500
vt 0.968750 0.312500
vt 1.000000 0.750000
vt 0.968750 0.750000
vt 1.000000 0.250000
vt 0.968750 0.250000
vt 1.000000 0.687500
vt 0.968750 0.687500
vt 1.000000 0.187500
vt 0.968750 0.187500
vt 1.000000 0.625000
vt 0.968750 0.625000
vt 1.000000 0.125000
vt 0.968750 0.125000
vt 1.000000 0.562500
vt 0.968750 0.562500
vt 0.937500 0.750000
vt 0.937500 0.687500
vt 0.937500 0.250000
vt 0.937500 0.187500
vt 0.937500 0.625000
vt 0.937500 0.125000
vt 0.937500 0.562500
vt 0.937500 0.062500
vt 0.937500 0.500000
vt 0.953125 1.000000
vt 0.937500 0.937500
vt 0.953125 0.000000
vt 0.937500 0.437500
vt 0.937500 0.875000
vt 0.937500 0.375000
vt 0.937500 0.812500
vt 0.937500 0.312500
vt 0.906250 0.500000
vt 0.906250 0.437500
vt 0.906250 0.937500
vt 0.906250 0.875000
vt 0.906250 0.375000
vt 0.906250 0.812500
vt 0.906250 0.312500
vt 0.906250 0.750000
vt 0.906250 0.250000
vt 0.906250 0.687500
vt 0.906250 0.187500
vt 0.906250 0.625000
vt 0.906250 0.125000
vt 0.906250 0.562500
vt 0.906250 0.062500
vt 0.921875 1.000000
vt 0.921875 0.000000
vt 0.875000 0.250000
vt 0.875000 0.187500
vt 0.875000 0.687500
vt 0.875000 0.625000
vt 0.875000 0.125000
vt 0.875000 0.562500
vt 0.875000 0.062500
vt 0.875000 0.500000
vt 0.890625 1.000000
vt 0.875000 0.937500
vt 0.890625 0.000000
vt 0.875000 0.437500
vt 0.875000 0.875000
vt 0.875000 0.375000
vt 0.875000 0.812500
vt 0.875000 0.312500
vt 0.875000 0.750000
vt 0.843750 0.937500
vt 0.843750 0.875000
vt 0.843750 0.437500
vt 0.843750 0.375000
vt 0.843750 0.812500
vt 0.843750 0.312500
vt 0.843750 0.750000
vt 0.843750 0.250000
vt 0.843750 0.687500
vt 0.843750 0.187500
vt 0.843750 0.625000
vt 0.843750 0.125000
vt 0.843750 0.562500
vt 0.843750 0.062500
vt 0.843750 0.500000
vt 0.859375 1.000000
vt 0.859375 0.000000
vt 0.812500 0.687500
vt 0.812500 0.625000
vt 0.812500 0.187500
vt 0.812500 0.125000
vt 0.812500 0.562500
vt 0.812500 0.062500
vt 0.812500 0.500000
vt 0.828125 1.000000
vt 0.812500 0.937500
vt 0.828125 0.000000
vt 0.812500 0.437500
vt 0.812500 0.875000
vt 0.812500 0.375000
vt 0.812500 0.812500
vt 0.812500 0.312500
vt 0.812500 0.750000
vt 0.812500 0.250000
vt 0.781250 0.437500
vt 0.781250 0.375000
vt 0.781250 0.875000
vt 0.781250 0.812500
vt 0.781250 0.312500
vt 0.781250 0.750000
vt 0.781250 0.250000
vt 0.781250 0.687500
vt 0.781250 0.187500
vt 0.781250 0.625000
vt 0.781250 0.125000
vt 0.781250 0.562500
vt 0.781250 0.062500
vt 0.781250 0.500000
vt 0.796875 1.000000
vt 0.781250 0.937500
vt 0.796875 0.000000
vt 0.765625 1.000000
vt 0.765625 0.000000
s 1
usemtl マテリアル
f 481/1/481 480/2/480 19/3/19 20/4/20
f 3/5/3 477/6/477 12/7/12 13/8/13
f 482/9/482 481/1/481 20/4/20 21/10/21
f 4/11/4 3/5/3 13/8/13 14/12/14
f 474/13/474 82/14/82 7/15/7
f 308/16/308 482/9/482 21/10/21
f 5/17/5 4/11/4 14/12/14 15/18/15
f 475/19/475 474/13/474 7/15/7 8/20/8
f 478/21/478 5/17/5 15/18/15 16/22/16
f 1/23/1 475/19/475 8/20/8 9/24/9
f 6/25/6 478/21/478 16/22/16 17/26/17
f 476/27/476 1/23/1 9/24/9 10/28/10
f 479/29/479 6/25/6 17/26/17 18/30/18
f 2/31/2 476/27/476 10/28/10 11/32/11
f 480/2/480 479/29/479 18/30/18 19/3/19
f 477/6/477 2/31/2 11/32/11 12/7/12
f 11/32/11 10/28/10 25/33/25 26/34/26
f 19/3/19 18/30/18 33/35/33 34/36/34
f 12/7/12 11/32/11 26/34/26 27/37/27
f 20/4/20 19/3/19 34/36/34 35/38/35
f 13/8/13 12/7/12 27/37/27 28/39/28
f 21/10/21 20/4/20 35/38/35 36/40/36
f 14/12/14 13/8/13 28/39/28 29/41/29
f 7/15/7 82/42/82 22/43/22
f 308/44/308 21/10/21 36/40/36
f 15/18/15 14/12/14 29/41/29 30/45/30
f 8/20/8 7/15/7 22/43/22 23/46/23
f 16/22/16 15/18/15 30/45/30 31/47/31
f 9/24/9 8/20/8 23/46/23 24/48/24
f 17/26/17 16/22/16 31/47/31 32/49/32
f 10/28/10 9/24/9 24/48/24 25/33/25
f 18/30/18 17/26/17 32/49/32 33/35/33
f 30/45/30 29/41/29 44/50/44 45/51/45
f 23/46/23 22/43/22 37/52/37 38/53/38
f 31/47/31 30/45/30 45/51/45 46/54/46
f 24/48/24 23/46/23 38/53/38 39/55/39
f 32/49/32 31/47/31 46/54/46 47/56/47
f 25/33/25 24/48/24 39/55/39 40/57/40
f 33/35/33 32/49/32 47/56/47 48/58/48
f 26/34/26 25/33/25 40/57/40 41/59/41
f 34/36/34 33/35/33 48/58/48 49/60/49
f 27/37/27 26/34/26 41/59/41 42/61/42
f 35/38/35 34/36/34 49/60/49 50/62/50
f 28/39/28 27/37/27 42/61/42 43/63/43
f 36/40/36 35/38/35 50/62/50 51/64/51
f 29/41/29 28/39/28 43/63/43 44/50/44
f 22/43/22 82/65/82 37/52/37
f 308/66/308 36/40/36 51/64/51
f 49/60/49 48/58/48 63/67/63 64/68/64
f 42/61/42 41/59/41 56/69/56 57/70/57
f 50/62/50 49/60/49 64/68/64 65/71/65
f 43/63/43 42/61/42 57/70/57 58/72/58
f 51/64/51 50/62/50 65/71/65 66/73/66
f 44/50/44 43/63/43 58/72/58 59/74/59
f 37/52/37 82/75/82 52/76/52
f 308/77/308 51/64/51 66/73/66
f 45/51/45 44/50/44 59/74/59 60/78/60
f 38/53/38 37/52/37 52/76/52 53/79/53
f 46/54/46 45/51/45 60/78/60 61/80/61
f 39/55/39 38/53/38 53/79/53 54/81/54
f 47/56/47 46/54/46 61/80/61 62/82/62
f 40/57/40 39/55/39 54/81/54 55/83/55
f 48/58/48 47/56/47 62/82/62 63/67/63
f 41/59/41 40/57/40 55/83/55 56/69/56
f 61/80/61 60/78/60 75/84/75 76/85/76
f 54/81/54 53/79/53 68/86/68 69/87/69
f 62/82/62 61/80/61 76/85/76 77/88/77
f 55/83/55 54/81/54 69/87/69 70/89/70
f 63/67/63 62/82/62 77/88/77 78/90/78
f 56/69/56 55/83/55 70/89/70 71/91/71
f 64/68/64 63/67/63 78/90/78 79/92/79
f 57/70/57 56/69/56 71/91/71 72/93/72
f 65/71/65 64/68/64 79/92/79 80/94/80
f 58/72/58 57/70/57 72/93/72 73/95/73
f 66/73/66 65/71/65 80/94/80 81/96/81
f 59/74/59 58/72/58 73/95/73 74/97/74
f 52/76/52 82/98/82 67/99/67
f 308/100/308 66/73/66 81/96/81
f 60/78/60 59/74/59 74/97/74 75/84/75
f 53/79/53 52/76/52 67/99/67 68/86/68
f 80/94/80 79/92/79 95/101/95 96/102/96
f 73/95/73 72/93/72 88/103/88 89/104/89
f 81/96/81 80/94/80 96/102/96 97/105/97
f 74/97/74 73/95/73 89/104/89 90/106/90
f 67/99/67 82/107/82 83/108/83
f 308/109/308 81/96/81 97/105/97
f 75/84/75 74/97/74 90/106/90 91/110/91
f 68/86/68 67/99/67 83/108/83 84/111/84
f 76/85/76 75/84/75 91/110/91 92/112/92
f 69/87/69 68/86/68 84/111/84 85/113/85
f 77/88/77 76/85/76 92/112/92 93/114/93
f 70/89/70 69/87/69 85/113/85 86/115/86
f 78/90/78 77/88/77 93/114/93 94/116/94
f 71/91/71 70/89/70 86/115/86 87/117/87
f 79/92/79 78/90/78 94/116/94 95/101/95
f 72/93/72 71/91/71 87/117/87 88/103/88
f 85/113/85 84/111/84 99/118/99 100/119/100
f 93/114/93 92/112/92 107/120/107 108/121/108
f 86/115/86 85/113/85 100/119/100 101/122/101
f 94/116/94 93/114/93 108/121/108 109/123/109
f 87/117/87 86/115/86 101/122/101 102/124/102
f 95/101/95 94/116/94 109/123/109 110/125/110
f 88/103/88 87/117/87 102/124/102 103/126/103
f 96/102/96 95/101/95 110/125/110 111/127/111
f 89/104/89 88/103/88 103/126/103 104/128/104
f 97/105/97 96/102/96 111/127/111 112/129/112
f 90/106/90 89/104/89 104/128/104 105/130/105
f 83/108/83 82/131/82 98/132/98
f 308/133/308 97/105/97 112/129/112
f 91/110/91 90/106/90 105/130/105 106/134/106
f 84/111/84 83/108/83 98/132/98 99/118/99
f 92/112/92 91/110/91 106/134/106 107/120/107
f 104/128/104 103/126/103 118/135/118 119/136/119
f 112/129/112 111/127/111 126/137/126 127/138/127
f 105/130/105 104/128/104 119/136/119 120/139/120
f 98/132/98 82/140/82 113/141/113
f 308/142/308 112/129/112 127/138/127
f 106/134/106 105/130/105 120/139/120 121/143/121
f 99/118/99 98/132/98 113/141/113 114/144/114
f 107/120/107 106/134/106 121/143/121 122/145/122
f 100/119/100 99/118/99 114/144/114 115/146/115
f 108/121/108 107/120/107 122/145/122 123/147/123
f 101/122/101 100/119/100 115/146/115 116/148/116
f 109/123/109 108/121/108 123/147/123 124/149/124
f 102/124/102 101/122/101 116/148/116 117/150/117
f 110/125/110 109/123/109 124/149/124 125/151/125
f 103/126/103 102/124/102 117/150/117 118/135/118
f 111/127/111 110/125/110 125/151/125 126/137/126
f 123/147/123 122/145/122 137/152/137 138/153/138
f 116/148/116 115/146/115 130/154/130 131/155/131
f 124/149/124 123/147/123 138/153/138 139/156/139
f 117/150/117 116/148/116 131/155/131 132/157/132
f 125/151/125 124/149/124 139/156/139 140/158/140
f 118/135/118 117/150/117 132/157/132 133/159/133
f 126/137/126 125/151/125 140/158/140 141/160/141
f 119/136/119 118/135/118 133/159/133 134/161/134
f 127/138/127 126/137/126 141/160/141 142/162/142
f 120/139/120 119/136/119 134/161/134 135/163/135
f 113/141/113 82/164/82 128/165/128
f 308/166/308 127/138/127 142/162/142
f 121/143/121 120/139/120 135/163/135 136/167/136
f 114/144/114 113/141/113 128/165/128 129/168/129
f 122/145/122 121/143/121 136/167/136 137/152/137
f 115/146/115 114/144/114 129/168/129 130/154/130
f 142/162/142 141/160/141 156/169/156 157/170/157
f 135/163/135 134/161/134 149/171/149 150/172/150
f 128/165/128 82/173/82 143/174/143
f 308/175/308 142/162/142 157/170/157
f 136/167/136 135/163/135 150/172/150 151/176/151
f 129/168/129 128/165/128 143/174/143 144/177/144
f 137/152/137 136/167/136 151/176/151 152/178/152
f 130/154/130 129/168/129 144/177/144 145/179/145
f 138/153/138 137/152/137 152/178/152 153/180/153
f 131/155/131 130/154/130 145/179/145 146/181/146
f 139/156/139 138/153/138 153/180/153 154/182/154
f 132/157/132 131/155/131 146/181/146 147/183/147
f 140/158/140 139/156/139 154/182/154 155/184/155
f 133/159/133 132/157/132 147/183/147 148/185/148
f 141/160/141 140/158/140 155/184/155 156/169/156
f 134/161/134 133/159/133 148/185/148 149/171/149
f 146/181/146 145/179/145 160/186/160 161/187/161
f 154/182/154 153/180/153 168/188/168 169/189/169
f 147/183/147 146/181/146 161/187/161 162/190/162
f 155/184/155 154/182/154 169/189/169 170/191/170
f 148/185/148 147/183/147 162/190/162 163/192/163
f 156/169/156 155/184/155 170/191/170 171/193/171
f 149/171/149 148/185/148 163/192/163 164/194/164
f 157/170/157 156/169/156 171/193/171 172/195/172
f 150/172/150 149/171/149 164/194/164 165/196/165
f 143/174/143 82/197/82 158/198/158
f 308/199/308 157/170/157 172/195/172
f 151/176/151 150/172/150 165/196/165 166/200/166
f 144/177/144 143/174/143 158/198/158 159/201/159
f 152/178/152 151/176/151 166/200/166 167/202/167
f 145/179/145 144/177/144 159/201/159 160/186/160
f 153/180/153 152/178/152 167/202/167 168/188/168
f 165/196/165 164/194/164 179/203/179 180/204/180
f 158/198/158 82/205/82 173/206/173
f 308/207/308 172/195/172 187/208/187
f 166/200/166 165/196/165 180/204/180 181/209/181
f 159/201/159 158/198/158 173/206/173 174/210/174
f 167/202/167 166/200/166 181/209/181 182/211/182
f 160/186/160 159/201/159 174/210/174 175/212/175
f 168/188/168 167/202/167 182/211/182 183/213/183
f 161/187/161 160/186/160 175/212/175 176/214/176
f 169/189/169 168/188/168 183/213/183 184/215/184
f 162/190/162 161/187/161 176/214/176 177/216/177
f 170/191/170 169/189/169 184/215/184 185/217/185
f 163/192/163 162/190/162 177/216/177 178/218/178
f 171/193/171 170/191/170 185/217/185 186/219/186
f 164/194/164 163/192/163 178/218/178 179/203/179
f 172/195/172 171/193/171 186/219/186 187/208/187
f 184/215/184 183/213/183 198/220/198 199/221/199
f 177/216/177 176/214/176 191/222/191 192/223/192
f 185/217/185 184/215/184 199/221/199 200/224/200
f 178/218/178 177/216/177 192/223/192 193/225/193
f 186/219/186 185/217/185 200/224/200 201/226/201
f 179/203/179 178/218/178 193/225/193 194/227/194
f 187/208/187 186/219/186 201/226/201 202/228/202
f 180/204/180 179/203/179 194/227/194 195/229/195
f 173/206/173 82/230/82 188/231/188
f 308/232/308 187/208/187 202/228/202
f 181/209/181 180/204/180 195/229/195 196/233/196
f 174/210/174 173/206/173 188/231/188 189/234/189
f 182/211/182 181/209/181 196/233/196 197/235/197
f 175/212/175 174/210/174 189/234/189 190/236/190
f 183/213/183 182/211/182 197/235/197 198/220/198
f 176/214/176 175/212/175 190/236/190 191/222/191
f 308/237/308 202/228/202 217/238/217
f 196/233/196 195/229/195 210/239/210 211/240/211
f 189/234/189 188/231/188 203/241/203 204/242/204
f 197/235/197 196/233/196 211/240/211 212/243/212
f 190/236/190 189/234/189 204/242/204 205/244/205
f 198/220/198 197/235/197 212/243/212 213/245/213
f 191/222/191 190/236/190 205/244/205 206/246/206
f 199/221/199 198/220/198 213/245/213 214/247/214
f 192/223/192 191/222/191 206/246/206 207/248/207
f 200/224/200 199/221/199 214/247/214 215/249/215
f 193/225/193 192/223/192 207/248/207 208/250/208
f 201/226/201 200/224/200 215/249/215 216/251/216
f 194/227/194 193/225/193 208/250/208 209/252/209
f 202/228/202 201/226/201 216/251/216 217/238/217
f 195/229/195 194/227/194 209/252/209 210/239/210
f 188/231/188 82/253/82 203/241/203
f 215/249/215 214/247/214 229/254/229 230/255/230
f 208/250/208 207/248/207 222/256/222 223/257/223
f 216/251/216 215/249/215 230/255/230 231/258/231
f 209/252/209 208/250/208 223/257/223 224/259/224
f 217/238/217 216/251/216 231/258/231 232/260/232
f 210/239/210 209/252/209 224/259/224 225/261/225
f 203/241/203 82/262/82 218/263/218
f 308/264/308 217/238/217 232/260/232
f 211/240/211 210/239/210 225/261/225 226/265/226
f 204/242/204 203/241/203 218/263/218 219/266/219
f 212/243/212 211/240/211 226/265/226 227/267/227
f 205/244/205 204/242/204 219/266/219 220/268/220
f 213/245/213 212/243/212 227/267/227 228/269/228
f 206/246/206 205/244/205 220/268/220 221/270/221
f 214/247/214 213/245/213 228/269/228 229/254/229
f 207/248/207 206/246/206 221/270/221 222/256/222
f 219/266/219 218/263/218 233/271/233 234/272/234
f 227/267/227 226/265/226 241/273/241 242/274/242
f 220/268/220 219/266/219 234/272/234 235/275/235
f 228/269/228 227/267/227 242/274/242 243/276/243
f 221/270/221 220/268/220 235/275/235 236/277/236
f 229/254/229 228/269/228 243/276/243 244/278/244
f 222/256/222 221/270/221 236/277/236 237/279/237
f 230/255/230 229/254/229 244/278/244 245/280/245
f 223/257/223 222/256/222 237/279/237 238/281/238
f 231/258/231 230/255/230 245/280/245 246/282/246
f 224/259/224 223/257/223 238/281/238 239/283/239
f 232/260/232 231/258/231 246/282/246 247/284/247
f 225/261/225 224/259/224 239/283/239 240/285/240
f 218/263/218 82/286/82 233/271/233
f 308/287/308 232/260/232 247/284/247
f 226/265/226 225/261/225 240/285/240 241/273/241
f 238/281/238 237/279/237 252/288/252 253/289/253
f 246/282/246 245/280/245 260/290/260 261/291/261
f 239/283/239 238/281/238 253/289/253 254/292/254
f 247/284/247 246/282/246 261/291/261 262/293/262
f 240/285/240 239/283/239 254/292/254 255/294/255
f 233/271/233 82/295/82 248/296/248
f 308/297/308 247/284/247 262/293/262
f 241/273/241 240/285/240 255/294/255 256/298/256
f 234/272/234 233/271/233 248/296/248 249/299/249
f 242/274/242 241/273/241 256/298/256 257/300/257
f 235/275/235 234/272/234 249/299/249 250/301/250
f 243/276/243 242/274/242 257/300/257 258/302/258
f 236/277/236 235/275/235 250/301/250 251/303/251
f 244/278/244 243/276/243 258/302/258 259/304/259
f 237/279/237 236/277/236 251/303/251 252/288/252
f 245/280/245 244/278/244 259/304/259 260/290/260
f 257/300/257 256/298/256 271/305/271 272/306/272
f 250/301/250 249/299/249 264/307/264 265/308/265
f 258/302/258 257/300/257 272/306/272 273/309/273
f 251/303/251 250/301/250 265/308/265 266/310/266
f 259/304/259 258/302/258 273/309/273 274/311/274
f 252/288/252 251/303/251 266/310/266 267/312/267
f 260/290/260 259/304/259 274/311/274 275/313/275
f 253/289/253 252/288/252 267/312/267 268/314/268
f 261/291/261 260/290/260 275/313/275 276/315/276
f 254/292/254 253/289/253 268/314/268 269/316/269
f 262/293/262 261/291/261 276/315/276 277/317/277
f 255/294/255 254/292/254 269/316/269 270/318/270
f 248/296/248 82/319/82 263/320/263
f 308/321/308 262/293/262 277/317/277
f 256/298/256 255/294/255 270/318/270 271/305/271
f 249/299/249 248/296/248 263/320/263 264/307/264
f 276/315/276 275/313/275 290/322/290 291/323/291
f 269/316/269 268/314/268 283/324/283 284/325/284
f 277/317/277 276/315/276 291/323/291 292/326/292
f 270/318/270 269/316/269 284/325/284 285/327/285
f 263/320/263 82/328/82 278/329/278
f 308/330/308 277/317/277 292/326/292
f 271/305/271 270/318/270 285/327/285 286/331/286
f 264/307/264 263/320/263 278/329/278 279/332/279
f 272/306/272 271/305/271 286/331/286 287/333/287
f 265/308/265 264/307/264 279/332/279 280/334/280
f 273/309/273 272/306/272 287/333/287 288/335/288
f 266/310/266 265/308/265 280/334/280 281/336/281
f 274/311/274 273/309/273 288/335/288 289/337/289
f 267/312/267 266/310/266 281/336/281 282/338/282
f 275/313/275 274/311/274 289/337/289 290/322/290
f 268/314/268 267/312/267 282/338/282 283/324/283
f 280/334/280 279/332/279 294/339/294 295/340/295
f 288/335/288 287/333/287 302/341/302 303/342/303
f 281/336/281 280/334/280 295/340/295 296/343/296
f 289/337/289 288/335/288 303/342/303 304/344/304
f 282/338/282 281/336/281 296/343/296 297/345/297
f 290/322/290 289/337/289 304/344/304 305/346/305
f 283/324/283 282/338/282 297/345/297 298/347/298
f 291/323/291 290/322/290 305/346/305 306/348/306
f 284/325/284 283/324/283 298/347/298 299/349/299
f 292/326/292 291/323/291 306/348/306 307/350/307
f 285/327/285 284/325/284 299/349/299 300/351/300
f 278/329/278 82/352/82 293/353/293
f 308/354/308 292/326/292 307/350/307
f 286/331/286 285/327/285 300/351/300 301/355/301
f 279/332/279 278/329/278 293/353/293 294/339/294
f 287/333/287 286/331/286 301/355/301 302/341/302
f 299/349/299 298/347/298 314/356/314 315/357/315
f 307/350/307 306/348/306 322/358/322 323/359/323
f 300/351/300 299/349/299 315/357/315 316/360/316
f 293/353/293 82/361/82 309/362/309
f 308/363/308 307/350/307 323/359/323
f 301/355/301 300/351/300 316/360/316 317/364/317
f 294/339/294 293/353/293 309/362/309 310/365/310
f 302/341/302 301/355/301 317/364/317 318/366/318
f 295/340/295 294/339/294 310/365/310 311/367/311
f 303/342/303 302/341/302 318/366/318 319/368/319
f 296/343/296 295/340/295 311/367/311 312/369/312
f 304/344/304 303/342/303 319/368/319 320/370/320
f 297/345/297 296/343/296 312/369/312 313/371/313
f 305/346/305 304/344/304 320/370/320 321/372/321
f 298/347/298 297/345/297 313/371/313 314/356/314
f 306/348/306 305/346/305 321/372/321 322/358/322
f 319/368/319 318/366/318 333/373/333 334/374/334
f 312/369/312 311/367/311 326/375/326 327/376/327
f 320/370/320 319/368/319 334/374/334 335/377/335
f 313/371/313 312/369/312 327/376/327 328/378/328
f 321/372/321 320/370/320 335/377/335 336/379/336
f 314/356/314 313/371/313 328/378/328 329/380/329
f 322/358/322 321/372/321 336/379/336 337/381/337
f 315/357/315 314/356/314 329/380/329 330/382/330
f 323/359/323 322/358/322 337/381/337 338/383/338
f 316/360/316 315/357/315 330/382/330 331/384/331
f 309/362/309 82/385/82 324/386/324
f 308/387/308 323/359/323 338/383/338
f 317/364/317 316/360/316 331/384/331 332/388/332
f 310/365/310 309/362/309 324/386/324 325/389/325
f 318/366/318 317/364/317 332/388/332 333/373/333
f 311/367/311 310/365/310 325/389/325 326/375/326
f 338/383/338 337/381/337 352/390/352 353/391/353
f 331/384/331 330/382/330 345/392/345 346/393/346
f 324/386/324 82/394/82 339/395/339
f 308/396/308 338/383/338 353/391/353
f 332/388/332 331/384/331 346/393/346 347/397/347
f 325/389/325 324/386/324 339/395/339 340/398/340
f 333/373/333 332/388/332 347/397/347 348/399/348
f 326/375/326 325/389/325 340/398/340 341/400/341
f 334/374/334 333/373/333 348/399/348 349/401/349
f 327/376/327 326/375/326 341/400/341 342/402/342
f 335/377/335 334/374/334 349/401/349 350/403/350
f 328/378/328 327/376/327 342/402/342 343/404/343
f 336/379/336 335/377/335 350/403/350 351/405/351
f 329/380/329 328/378/328 343/404/343 344/406/344
f 337/381/337 336/379/336 351/405/351 352/390/352
f 330/382/330 329/380/329 344/406/344 345/392/345
f 350/403/350 349/401/349 364/407/364 365/408/365
f 343/404/343 342/402/342 357/409/357 358/410/358
f 351/405/351 350/403/350 365/408/365 366/411/366
f 344/406/344 343/404/343 358/410/358 359/412/359
f 352/390/352 351/405/351 366/411/366 367/413/367
f 345/392/345 344/406/344 359/412/359 360/414/360
f 353/391/353 352/390/352 367/413/367 368/415/368
f 346/393/346 345/392/345 360/414/360 361/416/361
f 339/395/339 82/417/82 354/418/354
f 308/419/308 353/391/353 368/415/368
f 347/397/347 346/393/346 361/416/361 362/420/362
f 340/398/340 339/395/339 354/418/354 355/421/355
f 348/399/348 347/397/347 362/420/362 363/422/363
f 341/400/341 340/398/340 355/421/355 356/423/356
f 349/401/349 348/399/348 363/422/363 364/407/364
f 342/402/342 341/400/341 356/423/356 357/409/357
f 354/424/354 82/425/82 369/426/369
f 308/427/308 368/428/368 383/429/383
f 362/430/362 361/431/361 376/432/376 377/433/377
f 355/434/355 354/424/354 369/426/369 370/435/370
f 363/436/363 362/430/362 377/433/377 378/437/378
f 356/438/356 355/434/355 370/435/370 371/439/371
f 364/440/364 363/436/363 378/437/378 379/441/379
f 357/442/357 356/438/356 371/439/371 372/443/372
f 365/444/365 364/440/364 379/441/379 380/445/380
f 358/446/358 357/442/357 372/443/372 373/447/373
f 366/448/366 365/444/365 380/445/380 381/449/381
f 359/450/359 358/446/358 373/447/373 374/451/374
f 367/452/367 366/448/366 381/449/381 382/453/382
f 360/454/360 359/450/359 374/451/374 375/455/375
f 368/428/368 367/452/367 382/453/382 383/429/383
f 361/431/361 360/454/360 375/455/375 376/432/376
f 373/447/373 372/443/372 387/456/387 388/457/388
f 381/449/381 380/445/380 395/458/395 396/459/396
f 374/451/374 373/447/373 388/457/388 389/460/389
f 382/453/382 381/449/381 396/459/396 397/461/397
f 375/455/375 374/451/374 389/460/389 390/462/390
f 383/429/383 382/453/382 397/461/397 398/463/398
f 376/432/376 375/455/375 390/462/390 391/464/391
f 369/426/369 82/465/82 384/466/384
f 308/467/308 383/429/383 398/463/398
f 377/433/377 376/432/376 391/464/391 392/468/392
f 370/435/370 369/426/369 384/466/384 385/469/385
f 378/437/378 377/433/377 392/468/392 393/470/393
f 371/439/371 370/435/370 385/469/385 386/471/386
f 379/441/379 378/437/378 393/470/393 394/472/394
f 372/443/372 371/439/371 386/471/386 387/456/387
f 380/445/380 379/441/379 394/472/394 395/458/395
f 392/468/392 391/464/391 406/473/406 407/474/407
f 385/469/385 384/466/384 399/475/399 400/476/400
f 393/470/393 392/468/392 407/474/407 408/477/408
f 386/471/386 385/469/385 400/476/400 401/478/401
f 394/472/394 393/470/393 408/477/408 409/479/409
f 387/456/387 386/471/386 401/478/401 402/480/402
f 395/458/395 394/472/394 409/479/409 410/481/410
f 388/457/388 387/456/387 402/480/402 403/482/403
f 396/459/396 395/458/395 410/481/410 411/483/411
f 389/460/389 388/457/388 403/482/403 404/484/404
f 397/461/397 396/459/396 411/483/411 412/485/412
f 390/462/390 389/460/389 404/484/404 405/486/405
f 398/463/398 397/461/397 412/485/412 413/487/413
f 391/464/391 390/462/390 405/486/405 406/473/406
f 384/466/384 82/488/82 399/475/399
f 308/489/308 398/463/398 413/487/413
f 411/483/411 410/481/410 425/490/425 426/491/426
f 404/484/404 403/482/403 418/492/418 419/493/419
f 412/485/412 411/483/411 426/491/426 427/494/427
f 405/486/405 404/484/404 419/493/419 420/495/420
f 413/487/413 412/485/412 427/494/427 428/496/428
f 406/473/406 405/486/405 420/495/420 421/497/421
f 399/475/399 82/498/82 414/499/414
f 308/500/308 413/487/413 428/496/428
f 407/474/407 406/473/406 421/497/421 422/501/422
f 400/476/400 399/475/399 414/499/414 415/502/415
f 408/477/408 407/474/407 422/501/422 423/503/423
f 401/478/401 400/476/400 415/502/415 416/504/416
f 409/479/409 408/477/408 423/503/423 424/505/424
f 402/480/402 401/478/401 416/504/416 417/506/417
f 410/481/410 409/479/409 424/505/424 425/490/425
f 403/482/403 402/480/402 417/506/417 418/492/418
f 415/502/415 414/499/414 429/507/429 430/508/430
f 423/503/423 422/501/422 437/509/437 438/510/438
f 416/504/416 415/502/415 430/508/430 431/511/431
f 424/505/424 423/503/423 438/510/438 439/512/439
f 417/506/417 416/504/416 431/511/431 432/513/432
f 425/490/425 424/505/424 439/512/439 440/514/440
f 418/492/418 417/506/417 432/513/432 433/515/433
f 426/491/426 425/490/425 440/514/440 441/516/441
f 419/493/419 418/492/418 433/515/433 434/517/434
f 427/494/427 426/491/426 441/516/441 442/518/442
f 420/495/420 419/493/419 434/517/434 435/519/435
f 428/496/428 427/494/427 442/518/442 443/520/443
f 421/497/421 420/495/420 435/519/435 436/521/436
f 414/499/414 82/522/82 429/507/429
f 308/523/308 428/496/428 443/520/443
f 422/501/422 421/497/421 436/521/436 437/509/437
f 434/517/434 433/515/433 448/524/448 449/525/449
f 442/518/442 441/516/441 456/526/456 457/527/457
f 435/519/435 434/517/434 449/525/449 450/528/450
f 443/520/443 442/518/442 457/527/457 458/529/458
f 436/521/436 435/519/435 450/528/450 451/530/451
f 429/507/429 82/531/82 444/532/444
f 308/533/308 443/520/443 458/529/458
f 437/509/437 436/521/436 451/530/451 452/534/452
f 430/508/430 429/507/429 444/532/444 445/535/445
f 438/510/438 437/509/437 452/534/452 453/536/453
f 431/511/431 430/508/430 445/535/445 446/537/446
f 439/512/439 438/510/438 453/536/453 454/538/454
f 432/513/432 431/511/431 446/537/446 447/539/447
f 440/514/440 439/512/439 454/538/454 455/540/455
f 433/515/433 432/513/432 447/539/447 448/524/448
f 441/516/441 440/514/440 455/540/455 456/526/456
f 453/536/453 452/534/452 467/541/467 468/542/468
f 446/537/446 445/535/445 460/543/460 461/544/461
f 454/538/454 453/536/453 468/542/468 469/545/469
f 447/539/447 446/537/446 461/544/461 462/546/462
f 455/540/455 454/538/454 469/545/469 470/547/470
f 448/524/448 447/539/447 462/546/462 463/548/463
f 456/526/456 455/540/455 470/547/470 471/549/471
f 449/525/449 448/524/448 463/548/463 464/550/464
f 457/527/457 456/526/456 471/549/471 472/551/472
f 450/528/450 449/525/449 464/550/464 465/552/465
f 458/529/458 457/527/457 472/551/472 473/553/473
f 451/530/451 450/528/450 465/552/465 466/554/466
f 444/532/444 82/555/82 459/556/459
f 308/557/308 458/529/458 473/553/473
f 452/534/452 451/530/451 466/554/466 467/541/467
f 445/535/445 444/532/444 459/556/459 460/543/460
f 472/551/472 471/549/471 480/2/480 481/1/481
f 465/552/465 464/550/464 477/6/477 3/5/3
f 473/553/473 472/551/472 481/1/481 482/9/482
f 466/554/466 465/552/465 3/5/3 4/11/4
f 459/556/459 82/558/82 474/13/474
f 308/559/308 473/553/473 482/9/482
f 467/541/467 466/554/466 4/11/4 5/17/5
f 460/543/460 459/556/459 474/13/474 475/19/475
f 468/542/468 467/541/467 5/17/5 478/21/478
f 461/544/461 460/543/460 475/19/475 1/23/1
f 469/545/469 468/542/468 478/21/478 6/25/6
f 462/546/462 461/544/461 1/23/1 476/27/476
f 470/547/470 469/545/469 6/25/6 479/29/479
f 463/548/463 462/546/462 476/27/476 2/31/2
f 471/549/471 470/547/470 479/29/479 480/2/480
f 464/550/464 463/548/463 2/31/2 477/6/477
