# Blender 4.4.1
# www.blender.org
mtllib Selectskydome.mtl
o 球
v 0.000000 0.490393 0.097545
v 0.000000 0.461940 0.191342
v 0.000000 0.415735 0.277785
v 0.000000 0.353553 0.353553
v 0.000000 0.277785 0.415735
v 0.000000 0.191342 0.461940
v 0.000000 0.097545 0.490393
v 0.000000 0.000000 0.500000
v 0.000000 -0.097545 0.490393
v 0.000000 -0.415735 0.277785
v -0.019030 0.490393 0.095671
v -0.037329 0.461940 0.187665
v -0.054193 0.415735 0.272447
v -0.068975 0.353553 0.346760
v -0.081106 0.277785 0.407746
v -0.090120 0.191342 0.453064
v -0.095671 0.097545 0.480970
v -0.097545 0.000000 0.490393
v -0.095671 -0.097545 0.480970
v -0.090120 -0.191342 0.453064
v -0.081106 -0.277785 0.407747
v -0.068975 -0.353553 0.346760
v -0.054193 -0.415735 0.272448
v -0.037329 -0.461940 0.187665
v -0.019030 -0.490393 0.095671
v -0.037329 0.490393 0.090120
v -0.073223 0.461940 0.176777
v -0.106304 0.415735 0.256640
v -0.135299 0.353553 0.326641
v -0.159095 0.277785 0.384089
v -0.176777 0.191342 0.426777
v -0.187665 0.097545 0.453064
v -0.191342 0.000000 0.461940
v -0.187665 -0.097545 0.453064
v -0.176777 -0.191342 0.426777
v -0.159095 -0.277785 0.384089
v -0.135299 -0.353553 0.326641
v -0.106304 -0.415735 0.256640
v -0.073223 -0.461940 0.176777
v -0.037329 -0.490393 0.090120
v -0.054193 0.490393 0.081106
v -0.106304 0.461940 0.159095
v -0.154329 0.415735 0.230970
v -0.196424 0.353553 0.293969
v -0.230970 0.277785 0.345671
v -0.256640 0.191342 0.384089
v -0.272448 0.097545 0.407746
v -0.277785 0.000000 0.415735
v -0.272448 -0.097545 0.407746
v -0.256640 -0.191342 0.384089
v -0.230970 -0.277785 0.345671
v -0.196424 -0.353553 0.293969
v -0.154329 -0.415735 0.230970
v -0.106304 -0.461940 0.159095
v -0.054193 -0.490393 0.081106
v -0.068975 0.490393 0.068975
v -0.135299 0.461940 0.135299
v -0.196424 0.415735 0.196424
v -0.250000 0.353553 0.250000
v -0.293969 0.277785 0.293969
v -0.326641 0.191342 0.326641
v -0.346760 0.097545 0.346760
v -0.353554 0.000000 0.353553
v -0.346760 -0.097545 0.346760
v -0.326641 -0.191342 0.326641
v -0.293969 -0.277785 0.293969
v -0.250000 -0.353553 0.250000
v -0.196424 -0.415735 0.196424
v -0.135299 -0.461940 0.135299
v -0.068975 -0.490393 0.068975
v -0.081106 0.490393 0.054193
v -0.159095 0.461940 0.106304
v -0.230970 0.415735 0.154329
v -0.293969 0.353553 0.196424
v -0.345671 0.277785 0.230970
v -0.384089 0.191342 0.256640
v -0.407747 0.097545 0.272447
v -0.415735 0.000000 0.277785
v -0.407747 -0.097545 0.272447
v -0.384089 -0.191342 0.256640
v -0.345671 -0.277785 0.230970
v -0.293969 -0.353553 0.196424
v -0.230970 -0.415735 0.154329
v -0.159095 -0.461940 0.106304
v -0.081106 -0.490393 0.054193
v -0.090120 0.490393 0.037329
v -0.176777 0.461940 0.073223
v -0.256640 0.415735 0.106304
v -0.326641 0.353553 0.135299
v -0.384089 0.277785 0.159095
v -0.426777 0.191342 0.176777
v -0.453064 0.097545 0.187665
v -0.461940 0.000000 0.191342
v -0.453064 -0.097545 0.187665
v -0.426777 -0.191342 0.176777
v -0.384089 -0.277785 0.159095
v -0.326641 -0.353553 0.135299
v -0.256640 -0.415735 0.106304
v -0.176777 -0.461940 0.073223
v -0.090120 -0.490393 0.037329
v -0.095671 0.490393 0.019030
v -0.187665 0.461940 0.037329
v -0.272448 0.415735 0.054193
v -0.346760 0.353553 0.068975
v -0.407747 0.277785 0.081106
v -0.453064 0.191342 0.090120
v -0.480970 0.097545 0.095671
v -0.490393 0.000000 0.097545
v -0.480970 -0.097545 0.095671
v -0.453064 -0.191342 0.090120
v -0.407747 -0.277785 0.081106
v -0.346760 -0.353553 0.068975
v -0.272448 -0.415735 0.054193
v -0.187665 -0.461940 0.037329
v -0.095671 -0.490393 0.019030
v -0.097545 0.490393 -0.000000
v -0.191342 0.461940 -0.000000
v -0.277785 0.415735 -0.000000
v -0.353553 0.353553 -0.000000
v -0.415735 0.277785 -0.000000
v -0.461940 0.191342 -0.000000
v -0.490393 0.097545 -0.000000
v -0.500000 0.000000 0.000000
v -0.490393 -0.097545 0.000000
v -0.461940 -0.191342 0.000000
v -0.415735 -0.277785 0.000000
v -0.353553 -0.353553 0.000000
v -0.277785 -0.415735 0.000000
v -0.191342 -0.461940 0.000000
v -0.097545 -0.490393 0.000000
v -0.095671 0.490393 -0.019030
v -0.187665 0.461940 -0.037329
v -0.272448 0.415735 -0.054193
v -0.346760 0.353553 -0.068975
v -0.407747 0.277785 -0.081106
v -0.453064 0.191342 -0.090120
v -0.480970 0.097545 -0.095671
v -0.490393 -0.000000 -0.097545
v -0.480970 -0.097545 -0.095671
v -0.453064 -0.191342 -0.090120
v -0.407747 -0.277785 -0.081106
v -0.346760 -0.353553 -0.068975
v -0.272448 -0.415735 -0.054193
v -0.187665 -0.461940 -0.037329
v -0.095671 -0.490393 -0.019030
v -0.090120 0.490393 -0.037329
v -0.176777 0.461940 -0.073224
v -0.256640 0.415735 -0.106304
v -0.326641 0.353553 -0.135299
v -0.384089 0.277785 -0.159095
v -0.426777 0.191342 -0.176777
v -0.453064 0.097545 -0.187665
v -0.461940 -0.000000 -0.191342
v -0.453064 -0.097545 -0.187665
v -0.426777 -0.191342 -0.176777
v -0.384089 -0.277785 -0.159095
v -0.326641 -0.353553 -0.135299
v -0.256640 -0.415735 -0.106304
v -0.176777 -0.461940 -0.073223
v -0.090120 -0.490393 -0.037329
v -0.081106 0.490393 -0.054193
v -0.159095 0.461940 -0.106304
v -0.230970 0.415735 -0.154329
v -0.293969 0.353553 -0.196424
v -0.345671 0.277785 -0.230970
v -0.384089 0.191342 -0.256640
v -0.407747 0.097545 -0.272448
v -0.415735 -0.000000 -0.277785
v -0.407747 -0.097545 -0.272448
v -0.384089 -0.191342 -0.256640
v -0.345671 -0.277785 -0.230970
v -0.293969 -0.353553 -0.196424
v -0.230970 -0.415735 -0.154329
v -0.159095 -0.461940 -0.106304
v -0.081106 -0.490393 -0.054193
v -0.068975 0.490393 -0.068975
v -0.135299 0.461940 -0.135299
v -0.196424 0.415735 -0.196424
v -0.250000 0.353553 -0.250000
v -0.293969 0.277785 -0.293969
v -0.326641 0.191342 -0.326641
v -0.346760 0.097545 -0.346760
v -0.353553 -0.000000 -0.353554
v -0.346760 -0.097545 -0.346760
v -0.326641 -0.191342 -0.326641
v -0.293969 -0.277785 -0.293969
v -0.250000 -0.353553 -0.250000
v -0.196424 -0.415735 -0.196424
v -0.135299 -0.461940 -0.135299
v -0.068975 -0.490393 -0.068975
v -0.054193 0.490393 -0.081106
v -0.106304 0.461940 -0.159095
v -0.154329 0.415735 -0.230970
v -0.196424 0.353553 -0.293969
v -0.230970 0.277785 -0.345671
v -0.256640 0.191342 -0.384089
v -0.272448 0.097545 -0.407747
v -0.277785 -0.000000 -0.415735
v -0.272448 -0.097545 -0.407747
v -0.256640 -0.191342 -0.384089
v -0.230970 -0.277785 -0.345671
v -0.196424 -0.353553 -0.293969
v -0.154329 -0.415735 -0.230970
v -0.106304 -0.461940 -0.159095
v -0.054193 -0.490393 -0.081106
v 0.000000 -0.500000 0.000000
v -0.037329 0.490393 -0.090120
v -0.073223 0.461940 -0.176777
v -0.106304 0.415735 -0.256640
v -0.135299 0.353553 -0.326641
v -0.159095 0.277785 -0.384089
v -0.176777 0.191342 -0.426777
v -0.187665 0.097545 -0.453064
v -0.191342 -0.000000 -0.461940
v -0.187665 -0.097545 -0.453064
v -0.176777 -0.191342 -0.426777
v -0.159095 -0.277785 -0.384089
v -0.135299 -0.353553 -0.326641
v -0.106304 -0.415735 -0.256640
v -0.073223 -0.461940 -0.176777
v -0.037329 -0.490393 -0.090120
v -0.019030 0.490393 -0.095671
v -0.037329 0.461940 -0.187665
v -0.054193 0.415735 -0.272448
v -0.068975 0.353553 -0.346760
v -0.081106 0.277785 -0.407747
v -0.090120 0.191342 -0.453064
v -0.095671 0.097545 -0.480970
v -0.097545 -0.000000 -0.490393
v -0.095671 -0.097545 -0.480970
v -0.090120 -0.191342 -0.453064
v -0.081106 -0.277785 -0.407747
v -0.068975 -0.353553 -0.346760
v -0.054193 -0.415735 -0.272448
v -0.037329 -0.461940 -0.187665
v -0.019030 -0.490393 -0.095671
v 0.000000 0.490393 -0.097545
v 0.000000 0.461940 -0.191342
v 0.000000 0.415735 -0.277785
v 0.000000 0.353553 -0.353554
v 0.000000 0.277785 -0.415735
v 0.000000 0.191342 -0.461940
v 0.000000 0.097545 -0.490393
v 0.000000 -0.000000 -0.500000
v 0.000000 -0.097545 -0.490393
v 0.000000 -0.191342 -0.461940
v 0.000000 -0.277785 -0.415735
v 0.000000 -0.353553 -0.353553
v 0.000000 -0.415735 -0.277785
v 0.000000 -0.461940 -0.191342
v 0.000000 -0.490393 -0.097545
v 0.019030 0.490393 -0.095671
v 0.037329 0.461940 -0.187665
v 0.054193 0.415735 -0.272448
v 0.068975 0.353553 -0.346760
v 0.081106 0.277785 -0.407747
v 0.090120 0.191342 -0.453064
v 0.095671 0.097545 -0.480970
v 0.097545 -0.000000 -0.490393
v 0.095671 -0.097545 -0.480970
v 0.090120 -0.191342 -0.453064
v 0.081106 -0.277785 -0.407746
v 0.068975 -0.353553 -0.346760
v 0.054193 -0.415735 -0.272448
v 0.037329 -0.461940 -0.187665
v 0.019030 -0.490393 -0.095671
v 0.037329 0.490393 -0.090120
v 0.073223 0.461940 -0.176777
v 0.106304 0.415735 -0.256640
v 0.135299 0.353553 -0.326641
v 0.159095 0.277785 -0.384089
v 0.176777 0.191342 -0.426777
v 0.187665 0.097545 -0.453064
v 0.191342 -0.000000 -0.461940
v 0.187665 -0.097545 -0.453064
v 0.176777 -0.191342 -0.426777
v 0.159095 -0.277785 -0.384089
v 0.135299 -0.353553 -0.326641
v 0.106304 -0.415735 -0.256640
v 0.073223 -0.461940 -0.176777
v 0.037329 -0.490393 -0.090120
v 0.054193 0.490393 -0.081106
v 0.106304 0.461940 -0.159095
v 0.154329 0.415735 -0.230970
v 0.196424 0.353553 -0.293969
v 0.230970 0.277785 -0.345671
v 0.256640 0.191342 -0.384089
v 0.272448 0.097545 -0.407746
v 0.277785 -0.000000 -0.415735
v 0.272448 -0.097545 -0.407746
v 0.256640 -0.191342 -0.384089
v 0.230970 -0.277785 -0.345671
v 0.196424 -0.353553 -0.293969
v 0.154329 -0.415735 -0.230970
v 0.106304 -0.461940 -0.159095
v 0.054193 -0.490393 -0.081106
v 0.000000 0.500000 -0.000000
v 0.068975 0.490393 -0.068975
v 0.135299 0.461940 -0.135299
v 0.196424 0.415735 -0.196424
v 0.250000 0.353553 -0.250000
v 0.293969 0.277785 -0.293969
v 0.326641 0.191342 -0.326641
v 0.346760 0.097545 -0.346760
v 0.353553 -0.000000 -0.353553
v 0.346760 -0.097545 -0.346760
v 0.326641 -0.191342 -0.326641
v 0.293969 -0.277785 -0.293969
v 0.250000 -0.353553 -0.250000
v 0.196424 -0.415735 -0.196424
v 0.135299 -0.461940 -0.135299
v 0.068975 -0.490393 -0.068975
v 0.081106 0.490393 -0.054193
v 0.159095 0.461940 -0.106304
v 0.230970 0.415735 -0.154329
v 0.293969 0.353553 -0.196424
v 0.345671 0.277785 -0.230970
v 0.384089 0.191342 -0.256640
v 0.407746 0.097545 -0.272447
v 0.415735 -0.000000 -0.277785
v 0.407746 -0.097545 -0.272447
v 0.384089 -0.191342 -0.256640
v 0.345671 -0.277785 -0.230970
v 0.293969 -0.353553 -0.196424
v 0.230970 -0.415735 -0.154329
v 0.159095 -0.461940 -0.106304
v 0.081106 -0.490393 -0.054193
v 0.090120 0.490393 -0.037329
v 0.176777 0.461940 -0.073223
v 0.256640 0.415735 -0.106304
v 0.326641 0.353553 -0.135299
v 0.384089 0.277785 -0.159095
v 0.426777 0.191342 -0.176777
v 0.453064 0.097545 -0.187665
v 0.461940 -0.000000 -0.191342
v 0.453064 -0.097545 -0.187665
v 0.426777 -0.191342 -0.176777
v 0.384089 -0.277785 -0.159095
v 0.326641 -0.353553 -0.135299
v 0.256640 -0.415735 -0.106304
v 0.176777 -0.461940 -0.073223
v 0.090120 -0.490393 -0.037329
v 0.095671 0.490393 -0.019030
v 0.187665 0.461940 -0.037329
v 0.272448 0.415735 -0.054193
v 0.346760 0.353553 -0.068975
v 0.407746 0.277785 -0.081106
v 0.453064 0.191342 -0.090120
v 0.480970 0.097545 -0.095671
v 0.490393 -0.000000 -0.097545
v 0.480970 -0.097545 -0.095671
v 0.453064 -0.191342 -0.090120
v 0.407746 -0.277785 -0.081106
v 0.346760 -0.353553 -0.068975
v 0.272448 -0.415735 -0.054193
v 0.187665 -0.461940 -0.037329
v 0.095671 -0.490393 -0.019030
v 0.097545 0.490393 -0.000000
v 0.191342 0.461940 -0.000000
v 0.277785 0.415735 -0.000000
v 0.353553 0.353553 -0.000000
v 0.415735 0.277785 -0.000000
v 0.461940 0.191342 -0.000000
v 0.490392 0.097545 -0.000000
v 0.500000 0.000000 0.000000
v 0.490392 -0.097545 0.000000
v 0.461940 -0.191342 0.000000
v 0.415735 -0.277785 0.000000
v 0.353553 -0.353553 0.000000
v 0.277785 -0.415735 0.000000
v 0.191342 -0.461940 0.000000
v 0.097545 -0.490393 0.000000
v 0.095671 0.490393 0.019030
v 0.187665 0.461940 0.037329
v 0.272448 0.415735 0.054193
v 0.346760 0.353553 0.068975
v 0.407746 0.277785 0.081106
v 0.453064 0.191342 0.090120
v 0.480970 0.097545 0.095671
v 0.490393 0.000000 0.097545
v 0.480970 -0.097545 0.095671
v 0.453064 -0.191342 0.090120
v 0.407746 -0.277785 0.081106
v 0.346760 -0.353553 0.068975
v 0.272447 -0.415735 0.054193
v 0.187665 -0.461940 0.037329
v 0.095671 -0.490393 0.019030
v 0.090120 0.490393 0.037329
v 0.176777 0.461940 0.073223
v 0.256640 0.415735 0.106304
v 0.326641 0.353553 0.135299
v 0.384089 0.277785 0.159095
v 0.426777 0.191342 0.176776
v 0.453063 0.097545 0.187665
v 0.461940 0.000000 0.191342
v 0.453063 -0.097545 0.187665
v 0.426777 -0.191342 0.176777
v 0.384089 -0.277785 0.159095
v 0.326641 -0.353553 0.135299
v 0.256640 -0.415735 0.106304
v 0.176777 -0.461940 0.073223
v 0.090120 -0.490393 0.037329
v 0.081106 0.490393 0.054193
v 0.159095 0.461940 0.106304
v 0.230970 0.415735 0.154329
v 0.293969 0.353553 0.196424
v 0.345671 0.277785 0.230970
v 0.384089 0.191342 0.256640
v 0.407746 0.097545 0.272447
v 0.415735 0.000000 0.277785
v 0.407746 -0.097545 0.272447
v 0.384089 -0.191342 0.256640
v 0.345671 -0.277785 0.230970
v 0.293969 -0.353553 0.196424
v 0.230970 -0.415735 0.154329
v 0.159095 -0.461940 0.106304
v 0.081106 -0.490393 0.054193
v 0.068975 0.490393 0.068975
v 0.135299 0.461940 0.135299
v 0.196424 0.415735 0.196424
v 0.250000 0.353553 0.250000
v 0.293969 0.277785 0.293969
v 0.326641 0.191342 0.326640
v 0.346760 0.097545 0.346760
v 0.353553 0.000000 0.353553
v 0.346760 -0.097545 0.346760
v 0.326641 -0.191342 0.326640
v 0.293969 -0.277785 0.293969
v 0.250000 -0.353553 0.250000
v 0.196424 -0.415735 0.196424
v 0.135299 -0.461940 0.135299
v 0.068975 -0.490393 0.068975
v 0.054193 0.490393 0.081106
v 0.106304 0.461940 0.159095
v 0.154329 0.415735 0.230970
v 0.196424 0.353553 0.293969
v 0.230970 0.277785 0.345670
v 0.256640 0.191342 0.384089
v 0.272447 0.097545 0.407746
v 0.277785 0.000000 0.415734
v 0.272447 -0.097545 0.407746
v 0.256640 -0.191342 0.384089
v 0.230970 -0.277785 0.345671
v 0.196424 -0.353553 0.293969
v 0.154329 -0.415735 0.230970
v 0.106304 -0.461940 0.159095
v 0.054193 -0.490393 0.081106
v 0.037329 0.490393 0.090120
v 0.073223 0.461940 0.176776
v 0.106304 0.415735 0.256640
v 0.135299 0.353553 0.326640
v 0.159095 0.277785 0.384088
v 0.176777 0.191342 0.426776
v 0.187665 0.097545 0.453063
v 0.191342 0.000000 0.461939
v 0.187665 -0.097545 0.453063
v 0.176777 -0.191342 0.426776
v 0.159095 -0.277785 0.384088
v 0.135299 -0.353553 0.326641
v 0.106304 -0.415735 0.256640
v 0.073223 -0.461940 0.176776
v 0.037329 -0.490393 0.090120
v 0.019030 0.490393 0.095671
v 0.037329 0.461940 0.187665
v 0.054193 0.415735 0.272447
v 0.068975 0.353553 0.346760
v 0.081106 0.277785 0.407746
v 0.090120 0.191342 0.453063
v 0.095671 0.097545 0.480969
v 0.097545 0.000000 0.490392
v 0.095671 -0.097545 0.480969
v 0.090120 -0.191342 0.453063
v 0.081106 -0.277785 0.407746
v 0.068975 -0.353553 0.346760
v 0.054193 -0.415735 0.272447
v 0.037329 -0.461940 0.187665
v 0.019030 -0.490393 0.095671
v 0.000000 -0.191342 0.461939
v 0.000000 -0.277785 0.415734
v 0.000000 -0.353553 0.353553
v 0.000000 -0.461940 0.191341
v 0.000000 -0.490393 0.097545
vn -0.0286 -0.9565 0.2902
vn -0.0975 0.0975 0.9904
vn -0.0097 0.9951 0.0980
vn -0.0097 -0.9951 0.0980
vn -0.0975 -0.0975 0.9904
vn -0.0976 -0.0975 0.9904
vn -0.0286 0.9565 0.2902
vn -0.0938 -0.2890 0.9527
vn -0.0464 0.8810 0.4709
vn -0.0865 -0.4696 0.8786
vn -0.0624 0.7715 0.6332
vn -0.0759 -0.6326 0.7708
vn -0.0759 0.6326 0.7708
vn -0.0624 -0.7715 0.6332
vn -0.0865 0.4696 0.8786
vn -0.0464 -0.8810 0.4709
vn -0.0938 0.2890 0.9527
vn -0.2563 0.4696 0.8448
vn -0.1374 -0.8810 0.4528
vn -0.1373 -0.8810 0.4528
vn -0.2779 0.2890 0.9161
vn -0.0846 -0.9565 0.2790
vn -0.2889 0.0976 0.9524
vn -0.0286 0.9951 0.0942
vn -0.0286 -0.9951 0.0942
vn -0.2889 -0.0976 0.9524
vn -0.0846 0.9565 0.2790
vn -0.2779 -0.2890 0.9161
vn -0.1373 0.8810 0.4528
vn -0.2563 -0.4696 0.8448
vn -0.1847 0.7715 0.6088
vn -0.2248 -0.6326 0.7412
vn -0.2248 0.6326 0.7412
vn -0.1847 -0.7715 0.6088
vn -0.4513 -0.2890 0.8443
vn -0.2231 0.8810 0.4173
vn -0.2230 0.8810 0.4173
vn -0.4162 -0.4696 0.7786
vn -0.2999 0.7715 0.5611
vn -0.3651 -0.6326 0.6831
vn -0.3651 0.6326 0.6831
vn -0.2999 -0.7715 0.5611
vn -0.4162 0.4696 0.7786
vn -0.2230 -0.8810 0.4173
vn -0.2231 -0.8810 0.4173
vn -0.4513 0.2890 0.8443
vn -0.1374 -0.9565 0.2571
vn -0.4692 0.0976 0.8777
vn -0.0464 0.9951 0.0869
vn -0.0464 -0.9951 0.0869
vn -0.4692 -0.0976 0.8777
vn -0.1374 0.9565 0.2571
vn -0.3002 -0.8810 0.3658
vn -0.6073 0.2890 0.7400
vn -0.1850 -0.9565 0.2254
vn -0.6314 0.0976 0.7693
vn -0.0625 0.9951 0.0761
vn -0.0625 -0.9951 0.0761
vn -0.6314 -0.0976 0.7693
vn -0.1850 0.9565 0.2254
vn -0.6073 -0.2890 0.7400
vn -0.3002 0.8810 0.3658
vn -0.5601 -0.4696 0.6825
vn -0.4036 0.7715 0.4918
vn -0.4913 -0.6326 0.5987
vn -0.4913 0.6326 0.5987
vn -0.4036 -0.7715 0.4918
vn -0.5601 0.4696 0.6825
vn -0.6825 -0.4696 0.5601
vn -0.4918 0.7715 0.4036
vn -0.5987 -0.6326 0.4913
vn -0.5987 0.6326 0.4913
vn -0.4918 -0.7715 0.4036
vn -0.6825 0.4696 0.5601
vn -0.3658 -0.8810 0.3002
vn -0.7400 0.2890 0.6073
vn -0.2254 -0.9565 0.1850
vn -0.7693 0.0976 0.6314
vn -0.0761 0.9951 0.0625
vn -0.0761 -0.9951 0.0625
vn -0.7693 -0.0976 0.6314
vn -0.2254 0.9565 0.1850
vn -0.7400 -0.2890 0.6073
vn -0.3658 0.8810 0.3002
vn -0.2571 -0.9565 0.1374
vn -0.8777 0.0976 0.4691
vn -0.8777 0.0976 0.4692
vn -0.0869 0.9951 0.0464
vn -0.0869 -0.9951 0.0464
vn -0.8777 -0.0976 0.4691
vn -0.8777 -0.0975 0.4691
vn -0.2571 0.9565 0.1374
vn -0.8443 -0.2890 0.4513
vn -0.4173 0.8810 0.2231
vn -0.4173 0.8810 0.2230
vn -0.7786 -0.4696 0.4162
vn -0.5611 0.7715 0.2999
vn -0.6831 -0.6326 0.3651
vn -0.6831 0.6326 0.3651
vn -0.5611 -0.7715 0.2999
vn -0.7786 0.4696 0.4162
vn -0.4173 -0.8810 0.2230
vn -0.4173 -0.8810 0.2231
vn -0.8443 0.2890 0.4513
vn -0.6088 0.7715 0.1847
vn -0.7412 -0.6326 0.2248
vn -0.7412 0.6326 0.2248
vn -0.6088 -0.7715 0.1847
vn -0.8448 0.4696 0.2563
vn -0.4528 -0.8810 0.1374
vn -0.4528 -0.8810 0.1373
vn -0.9161 0.2890 0.2779
vn -0.2790 -0.9565 0.0846
vn -0.9524 0.0976 0.2889
vn -0.9524 0.0975 0.2889
vn -0.0942 0.9951 0.0286
vn -0.0942 -0.9951 0.0286
vn -0.9524 -0.0976 0.2889
vn -0.9524 -0.0975 0.2889
vn -0.2790 0.9565 0.0846
vn -0.9161 -0.2890 0.2779
vn -0.4528 0.8810 0.1374
vn -0.8448 -0.4696 0.2563
vn -0.9904 0.0975 0.0975
vn -0.9904 0.0976 0.0975
vn -0.0980 0.9951 0.0096
vn -0.0980 -0.9951 0.0096
vn -0.9904 -0.0975 0.0975
vn -0.9904 -0.0976 0.0976
vn -0.2902 0.9565 0.0286
vn -0.9527 -0.2890 0.0938
vn -0.4709 0.8810 0.0464
vn -0.8786 -0.4696 0.0865
vn -0.6332 0.7715 0.0624
vn -0.7708 -0.6326 0.0759
vn -0.7708 0.6326 0.0759
vn -0.6332 -0.7715 0.0624
vn -0.8786 0.4696 0.0865
vn -0.4709 -0.8810 0.0464
vn -0.9527 0.2890 0.0938
vn -0.2902 -0.9565 0.0286
vn -0.7708 -0.6326 -0.0759
vn -0.7708 0.6326 -0.0759
vn -0.6332 -0.7715 -0.0624
vn -0.8786 0.4696 -0.0865
vn -0.4709 -0.8810 -0.0464
vn -0.9527 0.2890 -0.0938
vn -0.2902 -0.9565 -0.0286
vn -0.9904 0.0975 -0.0975
vn -0.0980 0.9951 -0.0097
vn -0.0980 -0.9951 -0.0096
vn -0.9904 -0.0975 -0.0975
vn -0.9904 -0.0975 -0.0976
vn -0.2902 0.9565 -0.0286
vn -0.9527 -0.2890 -0.0938
vn -0.4709 0.8810 -0.0464
vn -0.8786 -0.4696 -0.0865
vn -0.6332 0.7715 -0.0624
vn -0.0942 0.9951 -0.0286
vn -0.0942 -0.9951 -0.0286
vn -0.9524 -0.0976 -0.2889
vn -0.2790 0.9565 -0.0846
vn -0.9161 -0.2890 -0.2779
vn -0.4528 0.8810 -0.1374
vn -0.4528 0.8810 -0.1373
vn -0.8448 -0.4696 -0.2563
vn -0.6088 0.7715 -0.1847
vn -0.7412 -0.6326 -0.2248
vn -0.7412 0.6326 -0.2248
vn -0.6088 -0.7715 -0.1847
vn -0.8448 0.4696 -0.2563
vn -0.4528 -0.8810 -0.1374
vn -0.4528 -0.8810 -0.1373
vn -0.9161 0.2890 -0.2779
vn -0.2790 -0.9565 -0.0846
vn -0.9524 0.0976 -0.2889
vn -0.6831 0.6326 -0.3651
vn -0.5611 -0.7715 -0.2999
vn -0.7786 0.4696 -0.4162
vn -0.4173 -0.8810 -0.2230
vn -0.4173 -0.8810 -0.2231
vn -0.8443 0.2890 -0.4513
vn -0.2571 -0.9565 -0.1374
vn -0.8777 0.0975 -0.4691
vn -0.8777 0.0976 -0.4692
vn -0.0869 0.9951 -0.0464
vn -0.0869 -0.9951 -0.0464
vn -0.8777 -0.0975 -0.4691
vn -0.8777 -0.0976 -0.4692
vn -0.2571 0.9565 -0.1374
vn -0.8443 -0.2890 -0.4513
vn -0.4173 0.8810 -0.2231
vn -0.7786 -0.4696 -0.4162
vn -0.5611 0.7715 -0.2999
vn -0.6831 -0.6326 -0.3651
vn -0.7693 -0.0975 -0.6314
vn -0.2254 0.9565 -0.1850
vn -0.7400 -0.2890 -0.6073
vn -0.3658 0.8810 -0.3002
vn -0.6825 -0.4696 -0.5601
vn -0.4918 0.7715 -0.4036
vn -0.5987 -0.6326 -0.4913
vn -0.5987 0.6326 -0.4913
vn -0.4918 -0.7715 -0.4036
vn -0.6825 0.4696 -0.5601
vn -0.3658 -0.8810 -0.3002
vn -0.7400 0.2890 -0.6073
vn -0.2254 -0.9565 -0.1850
vn -0.7693 0.0975 -0.6314
vn -0.0761 0.9951 -0.0625
vn -0.0761 -0.9951 -0.0625
vn -0.4036 -0.7715 -0.4918
vn -0.5601 0.4696 -0.6825
vn -0.3002 -0.8810 -0.3658
vn -0.6073 0.2890 -0.7400
vn -0.1850 -0.9565 -0.2254
vn -0.6314 0.0975 -0.7693
vn -0.6314 0.0976 -0.7693
vn -0.0625 0.9951 -0.0761
vn -0.0625 -0.9951 -0.0761
vn -0.6314 -0.0975 -0.7693
vn -0.6314 -0.0976 -0.7693
vn -0.1850 0.9565 -0.2254
vn -0.6073 -0.2890 -0.7400
vn -0.3002 0.8810 -0.3658
vn -0.5601 -0.4696 -0.6825
vn -0.4036 0.7715 -0.4918
vn -0.4913 -0.6326 -0.5987
vn -0.4913 0.6326 -0.5987
vn -0.4513 -0.2890 -0.8443
vn -0.2231 0.8810 -0.4173
vn -0.2230 0.8810 -0.4173
vn -0.4162 -0.4696 -0.7786
vn -0.2999 0.7715 -0.5611
vn -0.3651 -0.6326 -0.6831
vn -0.3651 0.6326 -0.6831
vn -0.2999 -0.7715 -0.5611
vn -0.4162 0.4696 -0.7786
vn -0.2230 -0.8810 -0.4173
vn -0.2231 -0.8810 -0.4173
vn -0.4513 0.2890 -0.8443
vn -0.1374 -0.9565 -0.2571
vn -0.4691 0.0975 -0.8777
vn -0.0464 0.9951 -0.0869
vn -0.0464 -0.9951 -0.0869
vn -0.4691 -0.0975 -0.8777
vn -0.1374 0.9565 -0.2571
vn -0.1374 -0.8810 -0.4528
vn -0.2779 0.2890 -0.9161
vn -0.0846 -0.9565 -0.2790
vn -0.2889 0.0976 -0.9524
vn -0.0286 0.9951 -0.0942
vn -0.0286 -0.9951 -0.0942
vn -0.2889 -0.0976 -0.9524
vn -0.0846 0.9565 -0.2790
vn -0.2779 -0.2890 -0.9161
vn -0.1374 0.8810 -0.4528
vn -0.2563 -0.4696 -0.8448
vn -0.1847 0.7715 -0.6088
vn -0.2248 -0.6326 -0.7412
vn -0.2248 0.6326 -0.7412
vn -0.1847 -0.7715 -0.6088
vn -0.2563 0.4696 -0.8448
vn -0.0464 0.8810 -0.4709
vn -0.0865 -0.4696 -0.8786
vn -0.0624 0.7715 -0.6332
vn -0.0759 -0.6326 -0.7708
vn -0.0759 0.6326 -0.7708
vn -0.0624 -0.7715 -0.6332
vn -0.0865 0.4696 -0.8786
vn -0.0464 -0.8810 -0.4709
vn -0.0938 0.2890 -0.9527
vn -0.0286 -0.9565 -0.2902
vn -0.0975 0.0975 -0.9904
vn -0.0975 0.0976 -0.9904
vn -0.0097 0.9951 -0.0980
vn -0.0097 -0.9951 -0.0980
vn -0.0975 -0.0975 -0.9904
vn -0.0976 -0.0976 -0.9904
vn -0.0286 0.9565 -0.2902
vn -0.0938 -0.2890 -0.9527
vn 0.0938 0.2890 -0.9527
vn 0.0286 -0.9565 -0.2902
vn 0.0975 0.0975 -0.9904
vn 0.0097 0.9951 -0.0980
vn 0.0097 -0.9951 -0.0980
vn 0.0975 -0.0975 -0.9904
vn 0.0976 -0.0975 -0.9904
vn 0.0286 0.9565 -0.2902
vn 0.0938 -0.2890 -0.9527
vn 0.0464 0.8810 -0.4709
vn 0.0865 -0.4696 -0.8786
vn 0.0624 0.7715 -0.6332
vn 0.0759 -0.6326 -0.7708
vn 0.0759 0.6326 -0.7708
vn 0.0624 -0.7715 -0.6332
vn 0.0865 0.4696 -0.8786
vn 0.0464 -0.8810 -0.4709
vn 0.2563 -0.4696 -0.8448
vn 0.1847 0.7715 -0.6088
vn 0.2248 -0.6326 -0.7412
vn 0.2248 0.6326 -0.7412
vn 0.1847 -0.7715 -0.6088
vn 0.2563 0.4696 -0.8448
vn 0.1374 -0.8810 -0.4528
vn 0.1373 -0.8810 -0.4528
vn 0.2779 0.2890 -0.9161
vn 0.0846 -0.9565 -0.2790
vn 0.2889 0.0976 -0.9524
vn 0.0286 0.9951 -0.0942
vn 0.0286 -0.9951 -0.0942
vn 0.2889 -0.0976 -0.9524
vn 0.0846 0.9565 -0.2790
vn 0.2779 -0.2890 -0.9161
vn 0.1374 0.8810 -0.4528
vn 0.1374 -0.9565 -0.2571
vn 0.4692 0.0976 -0.8777
vn 0.0464 0.9951 -0.0869
vn 0.0464 -0.9951 -0.0869
vn 0.4692 -0.0976 -0.8777
vn 0.1374 0.9565 -0.2571
vn 0.4513 -0.2890 -0.8443
vn 0.2231 0.8810 -0.4173
vn 0.2230 0.8810 -0.4173
vn 0.4162 -0.4696 -0.7786
vn 0.2999 0.7715 -0.5611
vn 0.3651 -0.6326 -0.6831
vn 0.3651 0.6326 -0.6831
vn 0.2999 -0.7715 -0.5611
vn 0.4162 0.4696 -0.7786
vn 0.2230 -0.8810 -0.4173
vn 0.2231 -0.8810 -0.4173
vn 0.4513 0.2890 -0.8443
vn 0.4036 0.7715 -0.4918
vn 0.4913 -0.6326 -0.5987
vn 0.4913 0.6326 -0.5987
vn 0.4036 -0.7715 -0.4918
vn 0.5601 0.4696 -0.6825
vn 0.3002 -0.8810 -0.3658
vn 0.6073 0.2890 -0.7400
vn 0.1850 -0.9565 -0.2254
vn 0.6314 0.0975 -0.7693
vn 0.6314 0.0976 -0.7693
vn 0.0625 0.9951 -0.0761
vn 0.0625 -0.9951 -0.0761
vn 0.6314 -0.0975 -0.7693
vn 0.6314 -0.0976 -0.7693
vn 0.1850 0.9565 -0.2254
vn 0.6073 -0.2890 -0.7400
vn 0.3002 0.8810 -0.3658
vn 0.5601 -0.4696 -0.6825
vn 0.7693 0.0976 -0.6314
vn 0.7693 0.0975 -0.6314
vn 0.0761 0.9951 -0.0625
vn 0.0761 -0.9951 -0.0625
vn 0.7693 -0.0976 -0.6314
vn 0.7693 -0.0975 -0.6314
vn 0.2254 0.9565 -0.1850
vn 0.7400 -0.2890 -0.6073
vn 0.3658 0.8810 -0.3002
vn 0.6825 -0.4696 -0.5601
vn 0.4918 0.7715 -0.4036
vn 0.5987 -0.6326 -0.4913
vn 0.5987 0.6326 -0.4913
vn 0.4918 -0.7715 -0.4036
vn 0.6825 0.4696 -0.5601
vn 0.3658 -0.8810 -0.3002
vn 0.7400 0.2890 -0.6073
vn 0.2254 -0.9565 -0.1850
vn 0.6831 -0.6326 -0.3651
vn 0.6831 0.6326 -0.3651
vn 0.5611 -0.7715 -0.2999
vn 0.7786 0.4696 -0.4162
vn 0.4173 -0.8810 -0.2230
vn 0.4173 -0.8810 -0.2231
vn 0.8443 0.2890 -0.4513
vn 0.2571 -0.9565 -0.1374
vn 0.8777 0.0976 -0.4692
vn 0.8777 0.0976 -0.4691
vn 0.0869 0.9951 -0.0464
vn 0.0869 -0.9951 -0.0464
vn 0.8777 -0.0976 -0.4692
vn 0.2571 0.9565 -0.1374
vn 0.8443 -0.2890 -0.4513
vn 0.4173 0.8810 -0.2231
vn 0.4173 0.8810 -0.2230
vn 0.7786 -0.4696 -0.4162
vn 0.5611 0.7715 -0.2999
vn 0.0942 -0.9951 -0.0286
vn 0.9524 -0.0976 -0.2889
vn 0.9524 -0.0975 -0.2889
vn 0.2790 0.9565 -0.0846
vn 0.9161 -0.2890 -0.2779
vn 0.4528 0.8810 -0.1374
vn 0.8448 -0.4696 -0.2563
vn 0.6088 0.7715 -0.1847
vn 0.7412 -0.6326 -0.2248
vn 0.7412 0.6326 -0.2248
vn 0.6088 -0.7715 -0.1847
vn 0.8448 0.4696 -0.2563
vn 0.4528 -0.8810 -0.1374
vn 0.4528 -0.8810 -0.1373
vn 0.9161 0.2890 -0.2779
vn 0.2790 -0.9565 -0.0846
vn 0.9524 0.0976 -0.2889
vn 0.9524 0.0975 -0.2889
vn 0.0942 0.9951 -0.0286
vn 0.6332 -0.7715 -0.0624
vn 0.8786 0.4696 -0.0865
vn 0.4709 -0.8810 -0.0464
vn 0.9527 0.2890 -0.0938
vn 0.2902 -0.9565 -0.0286
vn 0.9904 0.0976 -0.0975
vn 0.0980 0.9951 -0.0097
vn 0.0980 -0.9951 -0.0096
vn 0.9904 -0.0976 -0.0975
vn 0.2902 0.9565 -0.0286
vn 0.9527 -0.2890 -0.0938
vn 0.4709 0.8810 -0.0464
vn 0.8786 -0.4696 -0.0865
vn 0.6332 0.7715 -0.0624
vn 0.7708 -0.6326 -0.0759
vn 0.7708 0.6326 -0.0759
vn 0.2902 0.9565 0.0286
vn 0.9527 -0.2890 0.0938
vn 0.4709 0.8810 0.0464
vn 0.8786 -0.4696 0.0865
vn 0.6332 0.7715 0.0624
vn 0.7708 -0.6326 0.0759
vn 0.7708 0.6326 0.0759
vn 0.6332 -0.7715 0.0624
vn 0.8786 0.4696 0.0865
vn 0.4709 -0.8810 0.0464
vn 0.9527 0.2890 0.0938
vn 0.2902 -0.9565 0.0286
vn 0.9904 0.0976 0.0975
vn 0.0980 0.9951 0.0096
vn 0.0980 -0.9951 0.0096
vn 0.9904 -0.0976 0.0975
vn 0.8448 0.4696 0.2563
vn 0.4528 -0.8810 0.1373
vn 0.9161 0.2890 0.2779
vn 0.2790 -0.9565 0.0846
vn 0.9524 0.0976 0.2889
vn 0.0942 0.9951 0.0286
vn 0.0942 -0.9951 0.0286
vn 0.9524 -0.0976 0.2889
vn 0.2790 0.9565 0.0846
vn 0.9161 -0.2890 0.2779
vn 0.4528 0.8810 0.1374
vn 0.8448 -0.4696 0.2563
vn 0.6088 0.7715 0.1847
vn 0.7412 -0.6326 0.2248
vn 0.7412 0.6326 0.2248
vn 0.6088 -0.7715 0.1847
vn 0.8443 -0.2890 0.4513
vn 0.4173 0.8810 0.2231
vn 0.4173 0.8810 0.2230
vn 0.7786 -0.4696 0.4162
vn 0.5611 0.7715 0.2999
vn 0.6831 -0.6326 0.3651
vn 0.6831 0.6326 0.3651
vn 0.5611 -0.7715 0.2999
vn 0.7786 0.4696 0.4162
vn 0.4173 -0.8810 0.2230
vn 0.4173 -0.8810 0.2231
vn 0.8443 0.2890 0.4513
vn 0.2571 -0.9565 0.1374
vn 0.8777 0.0976 0.4691
vn 0.0869 0.9951 0.0464
vn 0.0869 -0.9951 0.0464
vn 0.8777 -0.0976 0.4691
vn 0.2571 0.9565 0.1374
vn 0.3658 -0.8810 0.3002
vn 0.7400 0.2890 0.6073
vn 0.2254 -0.9565 0.1850
vn 0.7693 0.0976 0.6314
vn 0.0761 0.9951 0.0625
vn 0.0761 -0.9951 0.0625
vn 0.7693 -0.0976 0.6314
vn 0.2254 0.9565 0.1850
vn 0.7400 -0.2890 0.6073
vn 0.3658 0.8810 0.3002
vn 0.6825 -0.4696 0.5601
vn 0.4918 0.7715 0.4036
vn 0.5987 -0.6326 0.4913
vn 0.5987 0.6326 0.4913
vn 0.4918 -0.7715 0.4036
vn 0.6825 0.4696 0.5601
vn 0.3002 0.8810 0.3658
vn 0.5601 -0.4696 0.6825
vn 0.4036 0.7715 0.4918
vn 0.4913 -0.6326 0.5987
vn 0.4913 0.6326 0.5987
vn 0.4036 -0.7715 0.4918
vn 0.5601 0.4696 0.6825
vn 0.3002 -0.8810 0.3658
vn 0.6073 0.2890 0.7400
vn 0.1850 -0.9565 0.2254
vn 0.6314 0.0975 0.7693
vn 0.0625 0.9951 0.0761
vn 0.0625 -0.9951 0.0761
vn 0.6314 -0.0975 0.7693
vn 0.1850 0.9565 0.2254
vn 0.6073 -0.2890 0.7400
vn 0.4513 0.2890 0.8443
vn 0.1374 -0.9565 0.2571
vn 0.4691 0.0976 0.8777
vn 0.4692 0.0976 0.8777
vn 0.0464 0.9951 0.0869
vn 0.0464 -0.9951 0.0869
vn 0.4691 -0.0976 0.8777
vn 0.4691 -0.0975 0.8777
vn 0.1374 0.9565 0.2571
vn 0.4513 -0.2890 0.8443
vn 0.2230 0.8810 0.4173
vn 0.2231 0.8810 0.4173
vn 0.4162 -0.4696 0.7786
vn 0.2999 0.7715 0.5611
vn 0.3651 -0.6326 0.6831
vn 0.3651 0.6326 0.6831
vn 0.2999 -0.7715 0.5611
vn 0.4162 0.4696 0.7786
vn 0.2230 -0.8810 0.4173
vn 0.2231 -0.8810 0.4173
vn 0.2563 -0.4696 0.8448
vn 0.1847 0.7715 0.6088
vn 0.2248 -0.6326 0.7412
vn 0.2248 0.6326 0.7412
vn 0.1847 -0.7715 0.6088
vn 0.2563 0.4696 0.8448
vn 0.1374 -0.8810 0.4528
vn 0.2779 0.2890 0.9161
vn 0.0846 -0.9565 0.2790
vn 0.2889 0.0976 0.9524
vn 0.0286 0.9951 0.0942
vn 0.0286 -0.9951 0.0942
vn 0.2889 -0.0976 0.9524
vn 0.0846 0.9565 0.2790
vn 0.2779 -0.2890 0.9161
vn 0.1374 0.8810 0.4528
vn 0.1373 0.8810 0.4528
vn 0.0286 -0.9565 0.2902
vn 0.0976 0.0975 0.9904
vn 0.0976 0.0976 0.9904
vn 0.0097 0.9951 0.0980
vn 0.0097 -0.9951 0.0980
vn 0.0976 -0.0975 0.9904
vn 0.0976 -0.0976 0.9904
vn 0.0286 0.9565 0.2902
vn 0.0938 -0.2890 0.9527
vn 0.0464 0.8810 0.4709
vn 0.0865 -0.4696 0.8786
vn 0.0624 0.7715 0.6332
vn 0.0759 -0.6326 0.7708
vn 0.0759 0.6326 0.7708
vn 0.0624 -0.7715 0.6332
vn 0.0865 0.4696 0.8786
vn 0.0464 -0.8810 0.4709
vn 0.0938 0.2890 0.9527
vn -0.0976 0.0976 0.9904
vn -0.0975 -0.0976 0.9904
vn -0.1374 0.8810 0.4528
vn -0.8777 -0.0976 0.4692
vn -0.4528 0.8810 0.1373
vn -0.9904 0.0975 0.0976
vn -0.9904 0.0976 -0.0976
vn -0.9904 -0.0976 -0.0975
vn -0.9524 -0.0975 -0.2889
vn -0.9524 0.0975 -0.2889
vn -0.4691 0.0976 -0.8777
vn -0.4692 -0.0976 -0.8777
vn -0.1373 0.8810 -0.4528
vn -0.0976 0.0975 -0.9904
vn 0.0976 0.0976 -0.9904
vn 0.0975 -0.0976 -0.9904
vn 0.4528 0.8810 -0.1373
vn 0.4528 0.8810 0.1373
vn 0.7693 0.0975 0.6314
vn 0.7693 -0.0975 0.6314
vn 0.6314 0.0976 0.7693
vn 0.6314 -0.0976 0.7693
vn 0.4692 -0.0976 0.8777
vn 0.1373 -0.8810 0.4528
vt 0.718750 0.062500
vt 0.750000 0.062500
vt 0.750000 0.125000
vt 0.718750 0.500000
vt 0.750000 0.500000
vt 0.750000 0.562500
vt 0.750000 0.937500
vt 0.734375 1.000000
vt 0.718750 0.937500
vt 0.734375 0.000000
vt 0.718750 0.437500
vt 0.750000 0.437500
vt 0.750000 0.875000
vt 0.718750 0.375000
vt 0.750000 0.375000
vt 0.750000 0.812500
vt 0.718750 0.875000
vt 0.718750 0.312500
vt 0.750000 0.312500
vt 0.718750 0.750000
vt 0.750000 0.750000
vt 0.718750 0.250000
vt 0.750000 0.250000
vt 0.718750 0.687500
vt 0.750000 0.687500
vt 0.718750 0.187500
vt 0.750000 0.187500
vt 0.750000 0.625000
vt 0.718750 0.125000
vt 0.718750 0.562500
vt 0.687500 0.625000
vt 0.718750 0.625000
vt 0.687500 0.125000
vt 0.687500 0.062500
vt 0.687500 0.500000
vt 0.703125 1.000000
vt 0.687500 0.937500
vt 0.703125 0.000000
vt 0.687500 0.437500
vt 0.687500 0.875000
vt 0.687500 0.812500
vt 0.718750 0.812500
vt 0.687500 0.312500
vt 0.687500 0.750000
vt 0.687500 0.687500
vt 0.687500 0.187500
vt 0.656250 0.375000
vt 0.687500 0.375000
vt 0.656250 0.812500
vt 0.656250 0.250000
vt 0.687500 0.250000
vt 0.656250 0.687500
vt 0.656250 0.187500
vt 0.656250 0.625000
vt 0.656250 0.125000
vt 0.687500 0.562500
vt 0.656250 0.062500
vt 0.656250 0.500000
vt 0.671875 1.000000
vt 0.656250 0.937500
vt 0.671875 0.000000
vt 0.656250 0.437500
vt 0.656250 0.875000
vt 0.625000 0.125000
vt 0.625000 0.562500
vt 0.656250 0.562500
vt 0.640625 1.000000
vt 0.625000 0.937500
vt 0.640625 0.000000
vt 0.625000 0.062500
vt 0.625000 0.437500
vt 0.625000 0.875000
vt 0.625000 0.812500
vt 0.656250 0.312500
vt 0.625000 0.375000
vt 0.625000 0.750000
vt 0.656250 0.750000
vt 0.625000 0.250000
vt 0.625000 0.687500
vt 0.625000 0.187500
vt 0.625000 0.625000
vt 0.625000 0.312500
vt 0.593750 0.375000
vt 0.593750 0.750000
vt 0.593750 0.250000
vt 0.593750 0.625000
vt 0.593750 0.125000
vt 0.593750 0.562500
vt 0.593750 0.062500
vt 0.625000 0.500000
vt 0.609375 1.000000
vt 0.593750 0.937500
vt 0.609375 0.000000
vt 0.593750 0.437500
vt 0.593750 0.875000
vt 0.593750 0.812500
vt 0.562500 0.125000
vt 0.562500 0.500000
vt 0.593750 0.500000
vt 0.578125 1.000000
vt 0.562500 0.937500
vt 0.578125 0.000000
vt 0.562500 0.062500
vt 0.562500 0.437500
vt 0.562500 0.875000
vt 0.562500 0.375000
vt 0.562500 0.812500
vt 0.593750 0.312500
vt 0.562500 0.312500
vt 0.562500 0.687500
vt 0.593750 0.687500
vt 0.562500 0.187500
vt 0.593750 0.187500
vt 0.562500 0.625000
vt 0.562500 0.750000
vt 0.531250 0.812500
vt 0.531250 0.250000
vt 0.562500 0.250000
vt 0.531250 0.687500
vt 0.531250 0.187500
vt 0.531250 0.625000
vt 0.531250 0.125000
vt 0.562500 0.562500
vt 0.531250 0.062500
vt 0.531250 0.500000
vt 0.546875 1.000000
vt 0.531250 0.937500
vt 0.546875 0.000000
vt 0.531250 0.437500
vt 0.531250 0.875000
vt 0.531250 0.375000
vt 0.500000 0.500000
vt 0.531250 0.562500
vt 0.515625 1.000000
vt 0.500000 0.937500
vt 0.515625 0.000000
vt 0.500000 0.062500
vt 0.500000 0.437500
vt 0.500000 0.875000
vt 0.500000 0.375000
vt 0.500000 0.812500
vt 0.531250 0.312500
vt 0.500000 0.750000
vt 0.531250 0.750000
vt 0.500000 0.250000
vt 0.500000 0.687500
vt 0.500000 0.625000
vt 0.500000 0.187500
vt 0.468750 0.250000
vt 0.500000 0.312500
vt 0.468750 0.750000
vt 0.468750 0.187500
vt 0.468750 0.625000
vt 0.468750 0.125000
vt 0.500000 0.125000
vt 0.500000 0.562500
vt 0.468750 0.500000
vt 0.484374 1.000000
vt 0.468750 0.937500
vt 0.484375 0.000000
vt 0.468750 0.062500
vt 0.468750 0.437500
vt 0.468750 0.875000
vt 0.468750 0.375000
vt 0.468750 0.812500
vt 0.453124 1.000000
vt 0.437500 0.937500
vt 0.453125 0.000000
vt 0.437500 0.062500
vt 0.437500 0.437500
vt 0.437500 0.875000
vt 0.437500 0.375000
vt 0.468750 0.312500
vt 0.437500 0.750000
vt 0.437500 0.250000
vt 0.468750 0.687500
vt 0.437500 0.187500
vt 0.437500 0.625000
vt 0.437500 0.125000
vt 0.468750 0.562500
vt 0.437500 0.500000
vt 0.437500 0.687500
vt 0.406250 0.750000
vt 0.406250 0.250000
vt 0.406250 0.625000
vt 0.406250 0.125000
vt 0.437500 0.562500
vt 0.406250 0.500000
vt 0.421874 1.000000
vt 0.406250 0.937500
vt 0.421875 0.000000
vt 0.406250 0.062500
vt 0.406250 0.875000
vt 0.406250 0.375000
vt 0.406250 0.812500
vt 0.437500 0.812500
vt 0.437500 0.312500
vt 0.375000 0.437500
vt 0.406250 0.437500
vt 0.375000 0.875000
vt 0.375000 0.375000
vt 0.406250 0.312500
vt 0.375000 0.750000
vt 0.375000 0.250000
vt 0.375000 0.687500
vt 0.406250 0.687500
vt 0.406250 0.187500
vt 0.375000 0.625000
vt 0.375000 0.125000
vt 0.406250 0.562500
vt 0.375000 0.062500
vt 0.375000 0.500000
vt 0.390625 1.000000
vt 0.375000 0.937500
vt 0.390625 0.000000
vt 0.375000 0.187500
vt 0.343750 0.250000
vt 0.343750 0.625000
vt 0.343750 0.187500
vt 0.375000 0.562500
vt 0.343750 0.125000
vt 0.343750 0.500000
vt 0.359375 1.000000
vt 0.343750 0.937500
vt 0.359375 0.000000
vt 0.343750 0.062500
vt 0.343750 0.875000
vt 0.343750 0.375000
vt 0.343750 0.812500
vt 0.375000 0.812500
vt 0.375000 0.312500
vt 0.343750 0.750000
vt 0.312500 0.375000
vt 0.343750 0.437500
vt 0.312500 0.812500
vt 0.343750 0.312500
vt 0.312500 0.750000
vt 0.312500 0.250000
vt 0.312500 0.687500
vt 0.343750 0.687500
vt 0.312500 0.187500
vt 0.312500 0.625000
vt 0.343750 0.562500
vt 0.312500 0.062500
vt 0.312500 0.500000
vt 0.328125 1.000000
vt 0.312500 0.937500
vt 0.328125 0.000000
vt 0.312500 0.437500
vt 0.312500 0.875000
vt 0.281250 0.125000
vt 0.312500 0.125000
vt 0.312500 0.562500
vt 0.281250 0.625000
vt 0.281250 0.062500
vt 0.281250 0.500000
vt 0.296875 1.000000
vt 0.281250 0.937500
vt 0.296875 0.000000
vt 0.281250 0.437500
vt 0.281250 0.875000
vt 0.281250 0.375000
vt 0.281250 0.812500
vt 0.312500 0.312500
vt 0.281250 0.250000
vt 0.281250 0.687500
vt 0.281250 0.187500
vt 0.250000 0.812500
vt 0.281250 0.312500
vt 0.250000 0.375000
vt 0.281250 0.750000
vt 0.250000 0.250000
vt 0.250000 0.750000
vt 0.250000 0.625000
vt 0.250000 0.187500
vt 0.281250 0.562500
vt 0.250000 0.125000
vt 0.250000 0.500000
vt 0.265625 1.000000
vt 0.250000 0.937500
vt 0.265625 0.000000
vt 0.250000 0.062500
vt 0.250000 0.437500
vt 0.250000 0.875000
vt 0.250000 0.562500
vt 0.218750 0.625000
vt 0.218750 0.125000
vt 0.218750 0.500000
vt 0.234375 1.000000
vt 0.218750 0.937500
vt 0.234375 0.000000
vt 0.218750 0.062500
vt 0.218750 0.437500
vt 0.218750 0.875000
vt 0.218750 0.375000
vt 0.218750 0.812500
vt 0.250000 0.312500
vt 0.218750 0.250000
vt 0.250000 0.687500
vt 0.218750 0.750000
vt 0.218750 0.187500
vt 0.218750 0.312500
vt 0.187500 0.375000
vt 0.187500 0.812500
vt 0.187500 0.250000
vt 0.187500 0.687500
vt 0.218750 0.687500
vt 0.187500 0.187500
vt 0.187500 0.625000
vt 0.187500 0.125000
vt 0.218750 0.562500
vt 0.187500 0.062500
vt 0.187500 0.562500
vt 0.203125 1.000000
vt 0.187500 0.937500
vt 0.203125 0.000000
vt 0.187500 0.437500
vt 0.187500 0.875000
vt 0.156250 0.125000
vt 0.156250 0.500000
vt 0.187500 0.500000
vt 0.171875 1.000000
vt 0.156250 0.937500
vt 0.171875 0.000000
vt 0.156250 0.062500
vt 0.156250 0.437500
vt 0.156250 0.875000
vt 0.156250 0.375000
vt 0.156250 0.812500
vt 0.187500 0.312500
vt 0.156250 0.750000
vt 0.187500 0.750000
vt 0.156250 0.250000
vt 0.156250 0.625000
vt 0.125000 0.812500
vt 0.125000 0.250000
vt 0.156250 0.312500
vt 0.156250 0.687500
vt 0.125000 0.750000
vt 0.125000 0.187500
vt 0.156250 0.187500
vt 0.125000 0.625000
vt 0.156250 0.562500
vt 0.125000 0.062500
vt 0.125000 0.562500
vt 0.140625 1.000000
vt 0.125000 0.937500
vt 0.140625 0.000000
vt 0.125000 0.437500
vt 0.125000 0.875000
vt 0.125000 0.375000
vt 0.093750 0.500000
vt 0.125000 0.500000
vt 0.109375 1.000000
vt 0.093750 0.937500
vt 0.109375 0.000000
vt 0.093750 0.062500
vt 0.093750 0.437500
vt 0.093750 0.375000
vt 0.093750 0.812500
vt 0.125000 0.312500
vt 0.093750 0.250000
vt 0.125000 0.687500
vt 0.093750 0.750000
vt 0.093750 0.187500
vt 0.093750 0.625000
vt 0.125000 0.125000
vt 0.062500 0.250000
vt 0.093750 0.312500
vt 0.093750 0.687500
vt 0.062500 0.750000
vt 0.062500 0.187500
vt 0.062500 0.625000
vt 0.093750 0.125000
vt 0.093750 0.562500
vt 0.062500 0.062500
vt 0.062500 0.500000
vt 0.078125 1.000000
vt 0.062500 0.937500
vt 0.078125 0.000000
vt 0.062500 0.437500
vt 0.062500 0.875000
vt 0.093750 0.875000
vt 0.062500 0.375000
vt 0.062500 0.812500
vt 0.046875 0.000000
vt 0.031250 0.062500
vt 0.031250 0.500000
vt 0.031250 0.937500
vt 0.031250 0.375000
vt 0.031250 0.812500
vt 0.062500 0.312500
vt 0.031250 0.250000
vt 0.062500 0.687500
vt 0.031250 0.750000
vt 0.031250 0.187500
vt 0.031250 0.625000
vt 0.031250 0.125000
vt 0.062500 0.125000
vt 0.062500 0.562500
vt 0.046875 1.000000
vt 0.000000 0.187500
vt 0.000000 0.625000
vt 0.031250 0.687500
vt 0.031250 0.562500
vt 0.000000 0.062500
vt 0.000000 0.500000
vt 0.015625 1.000000
vt 0.000000 0.937500
vt 0.015625 0.000000
vt 0.031250 0.437500
vt 0.031250 0.875000
vt 0.000000 0.375000
vt 0.000000 0.812500
vt 0.031250 0.312500
vt 0.000000 0.750000
vt 0.000000 0.312500
vt 0.000000 0.687500
vt 1.000000 0.875000
vt 1.000000 0.937500
vt 0.968750 0.937500
vt 0.968750 0.375000
vt 1.000000 0.375000
vt 1.000000 0.437500
vt 0.968750 0.812500
vt 1.000000 0.812500
vt 1.000000 0.312500
vt 0.968750 0.750000
vt 1.000000 0.750000
vt 1.000000 0.250000
vt 0.968750 0.312500
vt 0.968750 0.687500
vt 1.000000 0.687500
vt 0.968750 0.187500
vt 1.000000 0.187500
vt 0.968750 0.625000
vt 1.000000 0.625000
vt 0.968750 0.125000
vt 1.000000 0.125000
vt 1.000000 0.562500
vt 0.968750 0.062500
vt 1.000000 0.062500
vt 0.968750 0.500000
vt 1.000000 0.500000
vt 0.984375 1.000000
vt 0.984375 0.000000
vt 0.937500 0.625000
vt 0.937500 0.125000
vt 0.968750 0.562500
vt 0.937500 0.062500
vt 0.937500 0.500000
vt 0.953125 1.000000
vt 0.937500 0.937500
vt 0.953125 0.000000
vt 0.937500 0.437500
vt 0.968750 0.437500
vt 0.937500 0.875000
vt 0.968750 0.875000
vt 0.937500 0.375000
vt 0.937500 0.812500
vt 0.937500 0.750000
vt 0.937500 0.250000
vt 0.968750 0.250000
vt 0.937500 0.687500
vt 0.937500 0.187500
vt 0.906250 0.375000
vt 0.906250 0.812500
vt 0.937500 0.312500
vt 0.906250 0.250000
vt 0.906250 0.750000
vt 0.906250 0.625000
vt 0.906250 0.125000
vt 0.937500 0.562500
vt 0.906250 0.062500
vt 0.906250 0.500000
vt 0.921875 1.000000
vt 0.906250 0.937500
vt 0.921875 0.000000
vt 0.906250 0.875000
vt 0.875000 0.125000
vt 0.906250 0.187500
vt 0.906250 0.562500
vt 0.875000 0.625000
vt 0.875000 0.062500
vt 0.875000 0.500000
vt 0.890625 1.000000
vt 0.875000 0.937500
vt 0.890625 0.000000
vt 0.906250 0.437500
vt 0.875000 0.875000
vt 0.875000 0.375000
vt 0.875000 0.812500
vt 0.906250 0.312500
vt 0.875000 0.250000
vt 0.906250 0.687500
vt 0.875000 0.750000
vt 0.875000 0.187500
vt 0.843750 0.812500
vt 0.875000 0.312500
vt 0.843750 0.375000
vt 0.843750 0.750000
vt 0.843750 0.250000
vt 0.875000 0.687500
vt 0.843750 0.625000
vt 0.843750 0.125000
vt 0.875000 0.562500
vt 0.843750 0.062500
vt 0.843750 0.500000
vt 0.859375 1.000000
vt 0.843750 0.937500
vt 0.859375 0.000000
vt 0.843750 0.437500
vt 0.875000 0.437500
vt 0.843750 0.875000
vt 0.843750 0.562500
vt 0.812500 0.625000
vt 0.812500 0.062500
vt 0.812500 0.500000
vt 0.828125 1.000000
vt 0.812500 0.937500
vt 0.828125 0.000000
vt 0.812500 0.437500
vt 0.812500 0.375000
vt 0.812500 0.812500
vt 0.843750 0.312500
vt 0.812500 0.750000
vt 0.812500 0.250000
vt 0.843750 0.687500
vt 0.812500 0.187500
vt 0.843750 0.187500
vt 0.812500 0.312500
vt 0.781250 0.375000
vt 0.781250 0.750000
vt 0.781250 0.250000
vt 0.812500 0.687500
vt 0.781250 0.187500
vt 0.781250 0.625000
vt 0.781250 0.125000
vt 0.812500 0.125000
vt 0.812500 0.562500
vt 0.781250 0.062500
vt 0.781250 0.500000
vt 0.796875 1.000000
vt 0.781250 0.937500
vt 0.796875 0.000000
vt 0.781250 0.437500
vt 0.781250 0.875000
vt 0.812500 0.875000
vt 0.781250 0.812500
vt 0.781250 0.562500
vt 0.765625 1.000000
vt 0.765625 0.000000
vt 0.781250 0.312500
vt 0.781250 0.687500
vt 0.000000 0.250000
vt 0.000000 0.125000
vt 0.000000 0.562500
vt 0.000000 0.437500
vt 0.000000 0.875000
s 1
usemtl マテリアル
f 25/1/1 482/2/1 481/3/1
f 18/4/2 8/5/2 7/6/2
f 1/7/3 297/8/3 11/9/3
f 206/10/4 482/2/4 25/1/4
f 19/11/5 9/12/6 8/5/5
f 2/13/7 1/7/7 11/9/7
f 20/14/8 478/15/8 9/12/8
f 3/16/9 2/13/9 12/17/9
f 21/18/10 479/19/10 478/15/10
f 14/20/11 4/21/11 3/16/11
f 22/22/12 480/23/12 479/19/12
f 15/24/13 5/25/13 4/21/13
f 23/26/14 10/27/14 480/23/14
f 6/28/15 5/25/15 15/24/15
f 24/29/16 481/3/16 10/27/16
f 17/30/17 7/6/17 6/28/17
f 31/31/18 16/32/18 15/24/18
f 39/33/19 24/29/20 23/26/19
f 17/30/21 16/32/21 31/31/21
f 40/34/22 25/1/22 24/29/22
f 33/35/23 18/4/23 17/30/23
f 11/9/24 297/36/24 26/37/24
f 206/38/25 25/1/25 40/34/25
f 34/39/26 19/11/26 18/4/26
f 27/40/27 12/17/27 11/9/27
f 20/14/28 19/11/28 34/39/28
f 28/41/29 13/42/29 12/17/29
f 36/43/30 21/18/30 20/14/30
f 29/44/31 14/20/31 13/42/31
f 22/22/32 21/18/32 36/43/32
f 30/45/33 15/24/33 14/20/33
f 38/46/34 23/26/34 22/22/34
f 50/47/35 35/48/35 34/39/35
f 43/49/36 28/41/36 27/40/37
f 36/43/38 35/48/38 50/47/38
f 29/44/39 28/41/39 43/49/39
f 52/50/40 37/51/40 36/43/40
f 45/52/41 30/45/41 29/44/41
f 53/53/42 38/46/42 37/51/42
f 46/54/43 31/31/43 30/45/43
f 54/55/44 39/33/44 38/46/45
f 32/56/46 31/31/46 46/54/46
f 55/57/47 40/34/47 39/33/47
f 48/58/48 33/35/48 32/56/48
f 26/37/49 297/59/49 41/60/49
f 206/61/50 40/34/50 55/57/50
f 49/62/51 34/39/51 33/35/51
f 42/63/52 27/40/52 26/37/52
f 69/64/53 54/55/53 53/53/53
f 62/65/54 47/66/54 46/54/54
f 55/57/55 54/55/55 69/64/55
f 48/58/56 47/66/56 62/65/56
f 41/60/57 297/67/57 56/68/57
f 206/69/58 55/57/58 70/70/58
f 64/71/59 49/62/59 48/58/59
f 57/72/60 42/63/60 41/60/60
f 50/47/61 49/62/61 64/71/61
f 58/73/62 43/49/62 42/63/62
f 51/74/63 50/47/63 65/75/63
f 59/76/64 44/77/64 43/49/64
f 67/78/65 52/50/65 51/74/65
f 60/79/66 45/52/66 44/77/66
f 68/80/67 53/53/67 52/50/67
f 61/81/68 46/54/68 45/52/68
f 66/82/69 65/75/69 80/83/69
f 74/84/70 59/76/70 58/73/70
f 82/85/71 67/78/71 66/82/71
f 60/79/72 59/76/72 74/84/72
f 68/80/73 67/78/73 82/85/73
f 76/86/74 61/81/74 60/79/74
f 84/87/75 69/64/75 68/80/75
f 77/88/76 62/65/76 61/81/76
f 85/89/77 70/70/77 69/64/77
f 63/90/78 62/65/78 77/88/78
f 56/68/79 297/91/79 71/92/79
f 206/93/80 70/70/80 85/89/80
f 79/94/81 64/71/81 63/90/81
f 72/95/82 57/72/82 56/68/82
f 80/83/83 65/75/83 64/71/83
f 73/96/84 58/73/84 57/72/84
f 85/89/85 84/87/85 99/97/85
f 93/98/86 78/99/87 77/88/86
f 71/92/88 297/100/88 86/101/88
f 206/102/89 85/89/89 100/103/89
f 94/104/90 79/94/91 78/99/90
f 87/105/92 72/95/92 71/92/92
f 95/106/93 80/83/93 79/94/93
f 88/107/94 73/96/94 72/95/95
f 81/108/96 80/83/96 95/106/96
f 74/84/97 73/96/97 88/107/97
f 82/85/98 81/108/98 96/109/98
f 90/110/99 75/111/99 74/84/99
f 98/112/100 83/113/100 82/85/100
f 91/114/101 76/86/101 75/111/101
f 99/97/102 84/87/102 83/113/103
f 77/88/104 76/86/104 91/114/104
f 89/115/105 88/107/105 103/116/105
f 112/117/106 97/118/106 96/109/106
f 105/119/107 90/110/107 89/115/107
f 113/120/108 98/112/108 97/118/108
f 106/121/109 91/114/109 90/110/109
f 114/122/110 99/97/111 98/112/110
f 92/123/112 91/114/112 106/121/112
f 115/124/113 100/103/113 99/97/113
f 108/125/114 93/98/115 92/123/114
f 86/101/116 297/126/116 101/127/116
f 206/128/117 100/103/117 115/124/117
f 109/129/118 94/104/119 93/98/118
f 102/130/120 87/105/120 86/101/120
f 110/131/121 95/106/121 94/104/121
f 103/116/122 88/107/122 87/105/122
f 96/109/123 95/106/123 110/131/123
f 123/132/124 108/125/125 107/133/124
f 101/127/126 297/134/126 116/135/126
f 206/136/127 115/124/127 130/137/127
f 124/138/128 109/129/129 108/125/128
f 117/139/130 102/130/130 101/127/130
f 125/140/131 110/131/131 109/129/131
f 118/141/132 103/116/132 102/130/132
f 111/142/133 110/131/133 125/140/133
f 119/143/134 104/144/134 103/116/134
f 127/145/135 112/117/135 111/142/135
f 120/146/136 105/119/136 104/144/136
f 113/120/137 112/117/137 127/145/137
f 121/147/138 106/121/138 105/119/138
f 114/122/139 113/120/139 128/148/139
f 107/133/140 106/121/140 121/147/140
f 130/137/141 115/124/141 114/122/141
f 142/149/142 127/145/142 126/150/142
f 120/146/143 119/143/143 134/151/143
f 143/152/144 128/148/144 127/145/144
f 136/153/145 121/147/145 120/146/145
f 144/154/146 129/155/146 128/148/146
f 122/156/147 121/147/147 136/153/147
f 130/137/148 129/155/148 144/154/148
f 138/157/149 123/132/149 122/156/149
f 116/135/150 297/158/150 131/159/150
f 206/160/151 130/137/151 145/161/151
f 139/162/152 124/138/153 123/132/152
f 132/163/154 117/139/154 116/135/154
f 140/164/155 125/140/155 124/138/155
f 133/165/156 118/141/156 117/139/156
f 126/150/157 125/140/157 140/164/157
f 134/151/158 119/143/158 118/141/158
f 131/159/159 297/166/159 146/167/159
f 206/168/160 145/161/160 160/169/160
f 154/170/161 139/162/161 138/157/161
f 147/171/162 132/163/162 131/159/162
f 155/172/163 140/164/163 139/162/163
f 133/165/164 132/163/165 147/171/165
f 141/173/166 140/164/166 155/172/166
f 149/174/167 134/151/167 133/165/167
f 157/175/168 142/149/168 141/173/168
f 135/176/169 134/151/169 149/174/169
f 158/177/170 143/152/170 142/149/170
f 151/178/171 136/153/171 135/176/171
f 159/179/172 144/154/173 143/152/172
f 137/180/174 136/153/174 151/178/174
f 160/169/175 145/161/175 144/154/175
f 153/181/176 138/157/176 137/180/176
f 150/182/177 149/174/177 164/183/177
f 158/177/178 157/175/178 172/184/178
f 166/185/179 151/178/179 150/182/179
f 174/186/180 159/179/180 158/177/181
f 152/187/182 151/178/182 166/185/182
f 160/169/183 159/179/183 174/186/183
f 168/188/184 153/181/185 152/187/184
f 146/167/186 297/189/186 161/190/186
f 206/191/187 160/169/187 175/192/187
f 154/170/188 153/181/189 168/188/188
f 162/193/190 147/171/190 146/167/190
f 170/194/191 155/172/191 154/170/191
f 163/195/192 148/196/192 147/171/192
f 156/197/193 155/172/193 170/194/193
f 164/183/194 149/174/194 148/196/194
f 172/184/195 157/175/195 156/197/195
f 184/198/196 169/199/196 168/188/196
f 177/200/197 162/193/197 161/190/197
f 185/201/198 170/194/198 169/199/198
f 163/195/199 162/193/199 177/200/199
f 171/202/200 170/194/200 185/201/200
f 179/203/201 164/183/201 163/195/201
f 187/204/202 172/184/202 171/202/202
f 180/205/203 165/206/203 164/183/203
f 173/207/204 172/184/204 187/204/204
f 181/208/205 166/185/205 165/206/205
f 189/209/206 174/186/206 173/207/206
f 167/210/207 166/185/207 181/208/207
f 190/211/208 175/192/208 174/186/208
f 183/212/209 168/188/209 167/210/209
f 161/190/210 297/213/210 176/214/210
f 206/215/211 175/192/211 190/211/211
f 188/216/212 187/204/212 202/217/212
f 196/218/213 181/208/213 180/205/213
f 189/209/214 188/216/214 203/219/214
f 182/220/215 181/208/215 196/218/215
f 190/211/216 189/209/216 204/221/216
f 198/222/217 183/212/218 182/220/217
f 176/214/219 297/223/219 191/224/219
f 206/225/220 190/211/220 205/226/220
f 184/198/221 183/212/222 198/222/221
f 192/227/223 177/200/223 176/214/223
f 200/228/224 185/201/224 184/198/224
f 193/229/225 178/230/225 177/200/225
f 186/231/226 185/201/226 200/228/226
f 194/232/227 179/203/227 178/230/227
f 202/217/228 187/204/228 186/231/228
f 180/205/229 179/203/229 194/232/229
f 216/233/230 200/228/230 199/234/230
f 209/235/231 193/229/231 192/227/232
f 201/236/233 200/228/233 216/233/233
f 210/237/234 194/232/234 193/229/234
f 218/238/235 202/217/235 201/236/235
f 211/239/236 195/240/236 194/232/236
f 219/241/237 203/219/237 202/217/237
f 212/242/238 196/218/238 195/240/238
f 204/221/239 203/219/240 219/241/240
f 197/243/241 196/218/241 212/242/241
f 221/244/242 205/226/242 204/221/242
f 214/245/243 198/222/243 197/243/243
f 191/224/244 297/246/244 207/247/244
f 206/248/245 205/226/245 221/244/245
f 215/249/246 199/234/246 198/222/246
f 208/250/247 192/227/247 191/224/247
f 235/251/248 220/252/248 219/241/248
f 213/253/249 212/242/249 227/254/249
f 236/255/250 221/244/250 220/252/250
f 229/256/251 214/245/251 213/253/251
f 207/247/252 297/257/252 222/258/252
f 206/259/253 221/244/253 236/255/253
f 230/260/254 215/249/254 214/245/254
f 223/261/255 208/250/255 207/247/255
f 231/262/256 216/233/256 215/249/256
f 224/263/257 209/235/257 208/250/257
f 217/264/258 216/233/258 231/262/258
f 210/237/259 209/235/259 224/263/259
f 233/265/260 218/238/260 217/264/260
f 226/266/261 211/239/261 210/237/261
f 234/267/262 219/241/262 218/238/262
f 227/254/263 212/242/263 211/239/263
f 239/268/264 224/263/264 223/261/264
f 232/269/265 231/262/265 246/270/265
f 225/271/266 224/263/266 239/268/266
f 248/272/267 233/265/267 232/269/267
f 226/266/268 225/271/268 240/273/268
f 234/267/269 233/265/269 248/272/269
f 242/274/270 227/254/270 226/266/270
f 235/251/271 234/267/271 249/275/271
f 228/276/272 227/254/272 242/274/272
f 236/255/273 235/251/273 250/277/273
f 244/278/274 229/256/275 228/276/274
f 222/258/276 297/279/276 237/280/276
f 206/281/277 236/255/277 251/282/277
f 245/283/278 230/260/279 229/256/278
f 238/284/280 223/261/280 222/258/280
f 246/270/281 231/262/281 230/260/281
f 243/285/282 242/274/282 257/286/282
f 251/282/283 250/277/283 265/287/283
f 259/288/284 244/278/284 243/285/284
f 237/280/285 297/289/285 252/290/285
f 206/291/286 251/282/286 266/292/286
f 260/293/287 245/283/288 244/278/287
f 253/294/289 238/284/289 237/280/289
f 261/295/290 246/270/290 245/283/290
f 254/296/291 239/268/291 238/284/291
f 247/297/292 246/270/292 261/295/292
f 240/273/293 239/268/293 254/296/293
f 263/298/294 248/272/294 247/297/294
f 241/299/295 240/273/295 255/300/295
f 264/301/296 249/275/296 248/272/296
f 257/286/297 242/274/297 241/299/297
f 265/287/298 250/277/298 249/275/298
f 262/302/299 261/295/299 276/303/299
f 255/300/300 254/296/300 269/304/300
f 278/305/301 263/298/301 262/302/301
f 271/306/302 256/307/302 255/300/302
f 279/308/303 264/301/303 263/298/303
f 272/309/304 257/286/304 256/307/304
f 280/310/305 265/287/306 264/301/305
f 258/311/307 257/286/307 272/309/307
f 281/312/308 266/292/308 265/287/308
f 259/288/309 258/311/309 273/313/309
f 252/290/310 297/314/310 267/315/310
f 206/316/311 266/292/311 281/312/311
f 275/317/312 260/293/312 259/288/312
f 268/318/313 253/294/313 252/290/313
f 276/303/314 261/295/314 260/293/314
f 269/304/315 254/296/315 253/294/315
f 281/312/316 280/310/316 295/319/316
f 289/320/317 274/321/317 273/313/317
f 267/315/318 297/322/318 282/323/318
f 206/324/319 281/312/319 296/325/319
f 290/326/320 275/317/320 274/321/320
f 283/327/321 268/318/321 267/315/321
f 291/328/322 276/303/322 275/317/322
f 284/329/323 269/304/323 268/318/324
f 277/330/325 276/303/325 291/328/325
f 285/331/326 270/332/326 269/304/326
f 293/333/327 278/305/327 277/330/327
f 271/306/328 270/332/328 285/331/328
f 279/308/329 278/305/329 293/333/329
f 287/334/330 272/309/330 271/306/330
f 295/319/331 280/310/331 279/308/332
f 273/313/333 272/309/333 287/334/333
f 285/331/334 284/329/334 300/335/334
f 309/336/335 293/333/335 292/337/335
f 286/338/336 285/331/336 301/339/336
f 310/340/337 294/341/337 293/333/337
f 303/342/338 287/334/338 286/338/338
f 295/319/339 294/341/339 310/340/339
f 288/343/340 287/334/340 303/342/340
f 312/344/341 296/325/341 295/319/341
f 289/320/342 288/343/343 304/345/342
f 282/323/344 297/346/344 298/347/344
f 206/348/345 296/325/345 312/344/345
f 306/349/346 290/326/347 289/320/346
f 299/350/348 283/327/348 282/323/348
f 307/351/349 291/328/349 290/326/349
f 300/335/350 284/329/350 283/327/350
f 292/337/351 291/328/351 307/351/351
f 320/352/352 305/353/353 304/345/352
f 298/347/354 297/354/354 313/355/354
f 206/356/355 312/344/355 327/357/355
f 321/358/356 306/349/357 305/353/356
f 299/350/358 298/347/358 313/355/358
f 322/359/359 307/351/359 306/349/359
f 315/360/360 300/335/360 299/350/360
f 308/361/361 307/351/361 322/359/361
f 301/339/362 300/335/362 315/360/362
f 324/362/363 309/336/363 308/361/363
f 302/363/364 301/339/364 316/364/364
f 325/365/365 310/340/365 309/336/365
f 318/366/366 303/342/366 302/363/366
f 311/367/367 310/340/367 325/365/367
f 304/345/368 303/342/368 318/366/368
f 327/357/369 312/344/369 311/367/369
f 339/368/370 324/362/370 323/369/370
f 317/370/371 316/364/371 331/371/371
f 340/372/372 325/365/372 324/362/372
f 333/373/373 318/366/373 317/370/373
f 326/374/374 325/365/375 340/372/375
f 319/375/376 318/366/376 333/373/376
f 342/376/377 327/357/377 326/374/377
f 335/377/378 320/352/379 319/375/378
f 313/355/380 297/378/380 328/379/380
f 206/380/381 327/357/381 342/376/381
f 336/381/382 321/358/382 320/352/382
f 329/382/383 314/383/383 313/355/383
f 337/384/384 322/359/384 321/358/384
f 330/385/385 315/360/385 314/383/386
f 323/369/387 322/359/387 337/384/387
f 331/371/388 316/364/388 315/360/388
f 206/386/389 342/376/389 357/387/389
f 336/381/390 335/377/391 350/388/390
f 329/382/392 328/379/392 343/389/392
f 352/390/393 337/384/393 336/381/393
f 345/391/394 330/385/394 329/382/394
f 338/392/395 337/384/395 352/390/395
f 331/371/396 330/385/396 345/391/396
f 354/393/397 339/368/397 338/392/397
f 332/394/398 331/371/398 346/395/398
f 355/396/399 340/372/399 339/368/399
f 348/397/400 333/373/400 332/394/400
f 356/398/401 341/399/402 340/372/401
f 334/400/403 333/373/403 348/397/403
f 357/387/404 342/376/404 341/399/404
f 350/388/405 335/377/406 334/400/405
f 328/379/407 297/401/407 343/389/407
f 370/402/408 355/396/408 354/393/408
f 363/403/409 348/397/409 347/404/409
f 356/398/410 355/396/410 370/402/410
f 349/405/411 348/397/411 363/403/411
f 372/406/412 357/387/412 356/398/412
f 365/407/413 350/388/413 349/405/413
f 343/389/414 297/408/414 358/409/414
f 206/410/415 357/387/415 372/406/415
f 351/411/416 350/388/416 365/407/416
f 344/412/417 343/389/417 358/409/417
f 367/413/418 352/390/418 351/411/418
f 360/414/419 345/391/419 344/412/419
f 353/415/420 352/390/420 367/413/420
f 361/416/421 346/395/421 345/391/421
f 354/393/422 353/415/422 368/417/422
f 362/418/423 347/404/423 346/395/423
f 359/419/424 358/420/424 373/421/424
f 382/422/425 367/423/425 366/424/425
f 375/425/426 360/426/426 359/419/426
f 368/427/427 367/423/427 382/422/427
f 376/428/428 361/429/428 360/426/428
f 369/430/429 368/427/429 383/431/429
f 377/432/430 362/433/430 361/429/430
f 385/434/431 370/435/431 369/430/431
f 378/436/432 363/437/432 362/433/432
f 386/438/433 371/439/433 370/435/433
f 364/440/434 363/437/434 378/436/434
f 387/441/435 372/442/435 371/439/435
f 380/443/436 365/444/436 364/440/436
f 358/420/437 297/445/437 373/421/437
f 206/446/438 372/442/438 387/441/438
f 366/424/439 365/444/439 380/443/439
f 393/447/440 378/436/440 377/432/440
f 401/448/441 386/438/441 385/434/441
f 379/449/442 378/436/442 393/447/442
f 402/450/443 387/441/443 386/438/443
f 395/451/444 380/443/444 379/449/444
f 373/421/445 297/452/445 388/453/445
f 206/454/446 387/441/446 402/450/446
f 396/455/447 381/456/447 380/443/447
f 389/457/448 374/458/448 373/421/448
f 397/459/449 382/422/449 381/456/449
f 390/460/450 375/425/450 374/458/450
f 383/431/451 382/422/451 397/459/451
f 391/461/452 376/428/452 375/425/452
f 399/462/453 384/463/453 383/431/453
f 392/464/454 377/432/454 376/428/454
f 400/465/455 385/434/455 384/463/455
f 412/466/456 397/459/456 396/455/456
f 405/467/457 390/460/457 389/457/458
f 398/468/459 397/459/459 412/466/459
f 391/461/460 390/460/460 405/467/460
f 414/469/461 399/462/461 398/468/461
f 392/464/462 391/461/462 406/470/462
f 400/465/463 399/462/463 414/469/463
f 408/471/464 393/447/464 392/464/464
f 416/472/465 401/448/465 400/465/466
f 394/473/467 393/447/467 408/471/467
f 417/474/468 402/450/468 401/448/468
f 410/475/469 395/451/469 394/473/469
f 388/453/470 297/476/470 403/477/470
f 206/478/471 402/450/471 417/474/471
f 396/455/472 395/451/472 410/475/472
f 404/479/473 389/457/473 388/453/473
f 431/480/474 416/472/474 415/481/474
f 409/482/475 408/471/475 423/483/475
f 432/484/476 417/474/476 416/472/476
f 425/485/477 410/475/477 409/482/477
f 403/477/478 297/486/478 418/487/478
f 206/488/479 417/474/479 432/484/479
f 411/489/480 410/475/480 425/485/480
f 419/490/481 404/479/481 403/477/481
f 427/491/482 412/466/482 411/489/482
f 420/492/483 405/467/483 404/479/483
f 413/493/484 412/466/484 427/491/484
f 406/470/485 405/467/485 420/492/485
f 429/494/486 414/469/486 413/493/486
f 407/495/487 406/470/487 421/496/487
f 430/497/488 415/481/488 414/469/488
f 423/483/489 408/471/489 407/495/489
f 435/498/490 420/492/490 419/490/490
f 428/499/491 427/491/491 442/500/491
f 436/501/492 421/496/492 420/492/492
f 444/502/493 429/494/493 428/499/493
f 422/503/494 421/496/494 436/501/494
f 430/497/495 429/494/495 444/502/495
f 438/504/496 423/483/496 422/503/496
f 446/505/497 431/480/497 430/497/497
f 424/506/498 423/483/498 438/504/498
f 447/507/499 432/484/499 431/480/499
f 440/508/500 425/485/500 424/506/500
f 418/487/501 297/509/501 433/510/501
f 206/511/502 432/484/502 447/507/502
f 441/512/503 426/513/503 425/485/503
f 434/514/504 419/490/504 418/487/504
f 442/500/505 427/491/505 426/513/505
f 439/515/506 438/504/506 453/516/506
f 462/517/507 447/507/507 446/505/507
f 455/518/508 440/508/509 439/515/508
f 433/510/510 297/519/510 448/520/510
f 206/521/511 447/507/511 462/517/511
f 456/522/512 441/512/513 440/508/512
f 434/514/514 433/510/514 448/520/514
f 457/523/515 442/500/515 441/512/515
f 450/524/516 435/498/517 434/514/516
f 443/525/518 442/500/518 457/523/518
f 451/526/519 436/501/519 435/498/519
f 459/527/520 444/502/520 443/525/520
f 437/528/521 436/501/521 451/526/521
f 460/529/522 445/530/522 444/502/522
f 453/516/523 438/504/523 437/528/523
f 446/505/524 445/530/525 460/529/524
f 458/531/526 457/523/526 472/532/526
f 466/533/527 451/526/527 450/524/527
f 474/534/528 459/527/528 458/531/528
f 452/535/529 451/526/529 466/533/529
f 475/536/530 460/529/530 459/527/530
f 468/537/531 453/516/531 452/535/531
f 476/538/532 461/539/532 460/529/532
f 454/540/533 453/516/533 468/537/533
f 477/541/534 462/517/534 461/539/534
f 470/542/535 455/518/535 454/540/535
f 448/520/536 297/543/536 463/544/536
f 206/545/537 462/517/537 477/541/537
f 471/546/538 456/522/538 455/518/538
f 464/547/539 449/548/539 448/520/539
f 472/532/540 457/523/540 456/522/540
f 465/549/541 450/524/542 449/548/541
f 482/2/543 477/541/543 476/538/543
f 470/542/544 469/550/545 7/6/544
f 463/544/546 297/551/546 1/7/546
f 206/552/547 477/541/547 482/2/547
f 9/12/548 471/546/549 470/542/548
f 464/547/550 463/544/550 1/7/550
f 478/15/551 472/532/551 471/546/551
f 465/549/552 464/547/552 2/13/552
f 473/553/553 472/532/553 478/15/553
f 466/533/554 465/549/554 3/16/554
f 480/23/555 474/534/555 473/553/555
f 467/554/556 466/533/556 4/21/556
f 10/27/557 475/536/557 474/534/557
f 468/537/558 467/554/558 5/25/558
f 481/3/559 476/538/559 475/536/559
f 469/550/560 468/537/560 6/28/560
f 25/1/1 481/3/1 24/29/1
f 18/4/2 7/6/2 17/30/561
f 19/11/5 8/5/5 18/4/562
f 2/13/7 11/9/7 12/17/7
f 20/14/8 9/12/8 19/11/8
f 3/16/9 12/17/9 13/42/9
f 21/18/10 478/15/10 20/14/10
f 14/20/11 3/16/11 13/42/11
f 22/22/12 479/19/12 21/18/12
f 15/24/13 4/21/13 14/20/13
f 23/26/14 480/23/14 22/22/14
f 6/28/15 15/24/15 16/32/15
f 24/29/16 10/27/16 23/26/16
f 17/30/17 6/28/17 16/32/17
f 31/31/18 15/24/18 30/45/18
f 39/33/19 23/26/19 38/46/19
f 17/30/21 31/31/21 32/56/21
f 40/34/22 24/29/22 39/33/22
f 33/35/23 17/30/23 32/56/23
f 34/39/26 18/4/26 33/35/26
f 27/40/27 11/9/27 26/37/27
f 20/14/28 34/39/28 35/48/28
f 28/41/29 12/17/29 27/40/563
f 36/43/30 20/14/30 35/48/30
f 29/44/31 13/42/31 28/41/31
f 22/22/32 36/43/32 37/51/32
f 30/45/33 14/20/33 29/44/33
f 38/46/34 22/22/34 37/51/34
f 50/47/35 34/39/35 49/62/35
f 43/49/36 27/40/37 42/63/37
f 36/43/38 50/47/38 51/74/38
f 29/44/39 43/49/39 44/77/39
f 52/50/40 36/43/40 51/74/40
f 45/52/41 29/44/41 44/77/41
f 53/53/42 37/51/42 52/50/42
f 46/54/43 30/45/43 45/52/43
f 54/55/44 38/46/45 53/53/45
f 32/56/46 46/54/46 47/66/46
f 55/57/47 39/33/47 54/55/47
f 48/58/48 32/56/48 47/66/48
f 49/62/51 33/35/51 48/58/51
f 42/63/52 26/37/52 41/60/52
f 69/64/53 53/53/53 68/80/53
f 62/65/54 46/54/54 61/81/54
f 55/57/55 69/64/55 70/70/55
f 48/58/56 62/65/56 63/90/56
f 64/71/59 48/58/59 63/90/59
f 57/72/60 41/60/60 56/68/60
f 50/47/61 64/71/61 65/75/61
f 58/73/62 42/63/62 57/72/62
f 51/74/63 65/75/63 66/82/63
f 59/76/64 43/49/64 58/73/64
f 67/78/65 51/74/65 66/82/65
f 60/79/66 44/77/66 59/76/66
f 68/80/67 52/50/67 67/78/67
f 61/81/68 45/52/68 60/79/68
f 66/82/69 80/83/69 81/108/69
f 74/84/70 58/73/70 73/96/70
f 82/85/71 66/82/71 81/108/71
f 60/79/72 74/84/72 75/111/72
f 68/80/73 82/85/73 83/113/73
f 76/86/74 60/79/74 75/111/74
f 84/87/75 68/80/75 83/113/75
f 77/88/76 61/81/76 76/86/76
f 85/89/77 69/64/77 84/87/77
f 63/90/78 77/88/78 78/99/78
f 79/94/81 63/90/81 78/99/81
f 72/95/82 56/68/82 71/92/82
f 80/83/83 64/71/83 79/94/83
f 73/96/84 57/72/84 72/95/84
f 85/89/85 99/97/85 100/103/85
f 93/98/86 77/88/86 92/123/86
f 94/104/90 78/99/90 93/98/564
f 87/105/92 71/92/92 86/101/92
f 95/106/93 79/94/93 94/104/93
f 88/107/94 72/95/95 87/105/95
f 81/108/96 95/106/96 96/109/96
f 74/84/97 88/107/97 89/115/97
f 82/85/98 96/109/98 97/118/98
f 90/110/99 74/84/99 89/115/99
f 98/112/100 82/85/100 97/118/100
f 91/114/101 75/111/101 90/110/101
f 99/97/102 83/113/103 98/112/103
f 77/88/104 91/114/104 92/123/104
f 89/115/105 103/116/105 104/144/105
f 112/117/106 96/109/106 111/142/106
f 105/119/107 89/115/107 104/144/107
f 113/120/108 97/118/108 112/117/108
f 106/121/109 90/110/109 105/119/109
f 114/122/110 98/112/110 113/120/110
f 92/123/112 106/121/112 107/133/112
f 115/124/113 99/97/113 114/122/113
f 108/125/114 92/123/114 107/133/114
f 109/129/118 93/98/118 108/125/118
f 102/130/120 86/101/120 101/127/120
f 110/131/121 94/104/121 109/129/121
f 103/116/122 87/105/122 102/130/565
f 96/109/123 110/131/123 111/142/123
f 123/132/124 107/133/124 122/156/566
f 124/138/128 108/125/128 123/132/128
f 117/139/130 101/127/130 116/135/130
f 125/140/131 109/129/131 124/138/131
f 118/141/132 102/130/132 117/139/132
f 111/142/133 125/140/133 126/150/133
f 119/143/134 103/116/134 118/141/134
f 127/145/135 111/142/135 126/150/135
f 120/146/136 104/144/136 119/143/136
f 113/120/137 127/145/137 128/148/137
f 121/147/138 105/119/138 120/146/138
f 114/122/139 128/148/139 129/155/139
f 107/133/140 121/147/140 122/156/140
f 130/137/141 114/122/141 129/155/141
f 142/149/142 126/150/142 141/173/142
f 120/146/143 134/151/143 135/176/143
f 143/152/144 127/145/144 142/149/144
f 136/153/145 120/146/145 135/176/145
f 144/154/146 128/148/146 143/152/146
f 122/156/147 136/153/147 137/180/147
f 130/137/148 144/154/148 145/161/148
f 138/157/149 122/156/149 137/180/567
f 139/162/152 123/132/152 138/157/568
f 132/163/154 116/135/154 131/159/154
f 140/164/155 124/138/155 139/162/155
f 133/165/156 117/139/156 132/163/156
f 126/150/157 140/164/157 141/173/157
f 134/151/158 118/141/158 133/165/158
f 154/170/161 138/157/161 153/181/569
f 147/171/162 131/159/162 146/167/162
f 155/172/163 139/162/163 154/170/163
f 133/165/164 147/171/165 148/196/164
f 141/173/166 155/172/166 156/197/166
f 149/174/167 133/165/167 148/196/167
f 157/175/168 141/173/168 156/197/168
f 135/176/169 149/174/169 150/182/169
f 158/177/170 142/149/170 157/175/170
f 151/178/171 135/176/171 150/182/171
f 159/179/172 143/152/172 158/177/172
f 137/180/174 151/178/174 152/187/174
f 160/169/175 144/154/175 159/179/175
f 153/181/176 137/180/176 152/187/570
f 150/182/177 164/183/177 165/206/177
f 158/177/178 172/184/178 173/207/178
f 166/185/179 150/182/179 165/206/179
f 174/186/180 158/177/181 173/207/181
f 152/187/182 166/185/182 167/210/182
f 160/169/183 174/186/183 175/192/183
f 168/188/184 152/187/184 167/210/184
f 154/170/188 168/188/188 169/199/188
f 162/193/190 146/167/190 161/190/190
f 170/194/191 154/170/191 169/199/191
f 163/195/192 147/171/192 162/193/192
f 156/197/193 170/194/193 171/202/193
f 164/183/194 148/196/194 163/195/194
f 172/184/195 156/197/195 171/202/195
f 184/198/196 168/188/196 183/212/196
f 177/200/197 161/190/197 176/214/197
f 185/201/198 169/199/198 184/198/198
f 163/195/199 177/200/199 178/230/199
f 171/202/200 185/201/200 186/231/200
f 179/203/201 163/195/201 178/230/201
f 187/204/202 171/202/202 186/231/202
f 180/205/203 164/183/203 179/203/203
f 173/207/204 187/204/204 188/216/204
f 181/208/205 165/206/205 180/205/205
f 189/209/206 173/207/206 188/216/206
f 167/210/207 181/208/207 182/220/207
f 190/211/208 174/186/208 189/209/208
f 183/212/209 167/210/209 182/220/209
f 188/216/212 202/217/212 203/219/212
f 196/218/213 180/205/213 195/240/213
f 189/209/214 203/219/214 204/221/214
f 182/220/215 196/218/215 197/243/215
f 190/211/216 204/221/216 205/226/216
f 198/222/217 182/220/217 197/243/217
f 184/198/221 198/222/221 199/234/221
f 192/227/223 176/214/223 191/224/223
f 200/228/224 184/198/224 199/234/224
f 193/229/225 177/200/225 192/227/225
f 186/231/226 200/228/226 201/236/226
f 194/232/227 178/230/227 193/229/227
f 202/217/228 186/231/228 201/236/228
f 180/205/229 194/232/229 195/240/229
f 216/233/230 199/234/230 215/249/230
f 209/235/231 192/227/232 208/250/232
f 201/236/233 216/233/233 217/264/233
f 210/237/234 193/229/234 209/235/234
f 218/238/235 201/236/235 217/264/235
f 211/239/236 194/232/236 210/237/236
f 219/241/237 202/217/237 218/238/237
f 212/242/238 195/240/238 211/239/238
f 204/221/239 219/241/240 220/252/239
f 197/243/241 212/242/241 213/253/241
f 221/244/242 204/221/242 220/252/242
f 214/245/243 197/243/243 213/253/571
f 215/249/246 198/222/246 214/245/572
f 208/250/247 191/224/247 207/247/247
f 235/251/248 219/241/248 234/267/248
f 213/253/249 227/254/249 228/276/249
f 236/255/250 220/252/250 235/251/250
f 229/256/251 213/253/251 228/276/251
f 230/260/254 214/245/254 229/256/254
f 223/261/255 207/247/255 222/258/255
f 231/262/256 215/249/256 230/260/256
f 224/263/257 208/250/257 223/261/573
f 217/264/258 231/262/258 232/269/258
f 210/237/259 224/263/259 225/271/259
f 233/265/260 217/264/260 232/269/260
f 226/266/261 210/237/261 225/271/261
f 234/267/262 218/238/262 233/265/262
f 227/254/263 211/239/263 226/266/263
f 239/268/264 223/261/264 238/284/264
f 232/269/265 246/270/265 247/297/265
f 225/271/266 239/268/266 240/273/266
f 248/272/267 232/269/267 247/297/267
f 226/266/268 240/273/268 241/299/268
f 234/267/269 248/272/269 249/275/269
f 242/274/270 226/266/270 241/299/270
f 235/251/271 249/275/271 250/277/271
f 228/276/272 242/274/272 243/285/272
f 236/255/273 250/277/273 251/282/273
f 244/278/274 228/276/274 243/285/574
f 245/283/278 229/256/278 244/278/278
f 238/284/280 222/258/280 237/280/280
f 246/270/281 230/260/281 245/283/281
f 243/285/282 257/286/282 258/311/282
f 251/282/283 265/287/283 266/292/283
f 259/288/284 243/285/284 258/311/575
f 260/293/287 244/278/287 259/288/576
f 253/294/289 237/280/289 252/290/289
f 261/295/290 245/283/290 260/293/290
f 254/296/291 238/284/291 253/294/291
f 247/297/292 261/295/292 262/302/292
f 240/273/293 254/296/293 255/300/293
f 263/298/294 247/297/294 262/302/294
f 241/299/295 255/300/295 256/307/295
f 264/301/296 248/272/296 263/298/296
f 257/286/297 241/299/297 256/307/297
f 265/287/298 249/275/298 264/301/298
f 262/302/299 276/303/299 277/330/299
f 255/300/300 269/304/300 270/332/300
f 278/305/301 262/302/301 277/330/301
f 271/306/302 255/300/302 270/332/302
f 279/308/303 263/298/303 278/305/303
f 272/309/304 256/307/304 271/306/304
f 280/310/305 264/301/305 279/308/305
f 258/311/307 272/309/307 273/313/307
f 281/312/308 265/287/308 280/310/308
f 259/288/309 273/313/309 274/321/309
f 275/317/312 259/288/312 274/321/312
f 268/318/313 252/290/313 267/315/313
f 276/303/314 260/293/314 275/317/314
f 269/304/315 253/294/315 268/318/315
f 281/312/316 295/319/316 296/325/316
f 289/320/317 273/313/317 288/343/317
f 290/326/320 274/321/320 289/320/320
f 283/327/321 267/315/321 282/323/321
f 291/328/322 275/317/322 290/326/322
f 284/329/323 268/318/324 283/327/324
f 277/330/325 291/328/325 292/337/325
f 285/331/326 269/304/326 284/329/326
f 293/333/327 277/330/327 292/337/327
f 271/306/328 285/331/328 286/338/328
f 279/308/329 293/333/329 294/341/329
f 287/334/330 271/306/330 286/338/330
f 295/319/331 279/308/332 294/341/332
f 273/313/333 287/334/333 288/343/333
f 285/331/334 300/335/334 301/339/334
f 309/336/335 292/337/335 308/361/335
f 286/338/336 301/339/336 302/363/336
f 310/340/337 293/333/337 309/336/337
f 303/342/338 286/338/338 302/363/338
f 295/319/339 310/340/339 311/367/339
f 288/343/340 303/342/340 304/345/340
f 312/344/341 295/319/341 311/367/341
f 289/320/342 304/345/342 305/353/342
f 306/349/346 289/320/346 305/353/346
f 299/350/348 282/323/348 298/347/348
f 307/351/349 290/326/349 306/349/349
f 300/335/350 283/327/350 299/350/350
f 292/337/351 307/351/351 308/361/351
f 320/352/352 304/345/352 319/375/352
f 321/358/356 305/353/356 320/352/356
f 299/350/358 313/355/358 314/383/358
f 322/359/359 306/349/359 321/358/359
f 315/360/360 299/350/360 314/383/360
f 308/361/361 322/359/361 323/369/361
f 301/339/362 315/360/362 316/364/362
f 324/362/363 308/361/363 323/369/363
f 302/363/364 316/364/364 317/370/364
f 325/365/365 309/336/365 324/362/365
f 318/366/366 302/363/366 317/370/366
f 311/367/367 325/365/367 326/374/367
f 304/345/368 318/366/368 319/375/368
f 327/357/369 311/367/369 326/374/369
f 339/368/370 323/369/370 338/392/370
f 317/370/371 331/371/371 332/394/371
f 340/372/372 324/362/372 339/368/372
f 333/373/373 317/370/373 332/394/373
f 326/374/374 340/372/375 341/399/374
f 319/375/376 333/373/376 334/400/376
f 342/376/377 326/374/377 341/399/377
f 335/377/378 319/375/378 334/400/378
f 336/381/382 320/352/382 335/377/382
f 329/382/383 313/355/383 328/379/383
f 337/384/384 321/358/384 336/381/384
f 330/385/385 314/383/386 329/382/386
f 323/369/387 337/384/387 338/392/387
f 331/371/388 315/360/388 330/385/388
f 336/381/390 350/388/390 351/411/390
f 329/382/392 343/389/392 344/412/392
f 352/390/393 336/381/393 351/411/393
f 345/391/394 329/382/394 344/412/577
f 338/392/395 352/390/395 353/415/395
f 331/371/396 345/391/396 346/395/396
f 354/393/397 338/392/397 353/415/397
f 332/394/398 346/395/398 347/404/398
f 355/396/399 339/368/399 354/393/399
f 348/397/400 332/394/400 347/404/400
f 356/398/401 340/372/401 355/396/401
f 334/400/403 348/397/403 349/405/403
f 357/387/404 341/399/404 356/398/404
f 350/388/405 334/400/405 349/405/405
f 370/402/408 354/393/408 369/555/408
f 363/403/409 347/404/409 362/418/409
f 356/398/410 370/402/410 371/556/410
f 349/405/411 363/403/411 364/557/411
f 372/406/412 356/398/412 371/556/412
f 365/407/413 349/405/413 364/557/413
f 351/411/416 365/407/416 366/558/416
f 344/412/417 358/409/417 359/559/417
f 367/413/418 351/411/418 366/558/418
f 360/414/419 344/412/419 359/559/419
f 353/415/420 367/413/420 368/417/420
f 361/416/421 345/391/421 360/414/421
f 354/393/422 368/417/422 369/555/422
f 362/418/423 346/395/423 361/416/423
f 359/419/424 373/421/424 374/458/424
f 382/422/425 366/424/425 381/456/425
f 375/425/426 359/419/426 374/458/426
f 368/427/427 382/422/427 383/431/427
f 376/428/428 360/426/428 375/425/428
f 369/430/429 383/431/429 384/463/429
f 377/432/430 361/429/430 376/428/430
f 385/434/431 369/430/431 384/463/431
f 378/436/432 362/433/432 377/432/432
f 386/438/433 370/435/433 385/434/433
f 364/440/434 378/436/434 379/449/434
f 387/441/435 371/439/435 386/438/435
f 380/443/436 364/440/436 379/449/436
f 366/424/439 380/443/439 381/456/439
f 393/447/440 377/432/440 392/464/440
f 401/448/441 385/434/441 400/465/441
f 379/449/442 393/447/442 394/473/442
f 402/450/443 386/438/443 401/448/443
f 395/451/444 379/449/444 394/473/444
f 396/455/447 380/443/447 395/451/447
f 389/457/448 373/421/448 388/453/448
f 397/459/449 381/456/449 396/455/449
f 390/460/450 374/458/450 389/457/578
f 383/431/451 397/459/451 398/468/451
f 391/461/452 375/425/452 390/460/452
f 399/462/453 383/431/453 398/468/453
f 392/464/454 376/428/454 391/461/454
f 400/465/455 384/463/455 399/462/455
f 412/466/456 396/455/456 411/489/456
f 405/467/457 389/457/458 404/479/458
f 398/468/459 412/466/459 413/493/459
f 391/461/460 405/467/460 406/470/460
f 414/469/461 398/468/461 413/493/461
f 392/464/462 406/470/462 407/495/462
f 400/465/463 414/469/463 415/481/463
f 408/471/464 392/464/464 407/495/464
f 416/472/465 400/465/466 415/481/466
f 394/473/467 408/471/467 409/482/467
f 417/474/468 401/448/468 416/472/468
f 410/475/469 394/473/469 409/482/469
f 396/455/472 410/475/472 411/489/472
f 404/479/473 388/453/473 403/477/473
f 431/480/474 415/481/474 430/497/474
f 409/482/475 423/483/475 424/506/475
f 432/484/476 416/472/476 431/480/476
f 425/485/477 409/482/477 424/506/579
f 411/489/480 425/485/480 426/513/580
f 419/490/481 403/477/481 418/487/481
f 427/491/482 411/489/482 426/513/482
f 420/492/483 404/479/483 419/490/483
f 413/493/484 427/491/484 428/499/484
f 406/470/485 420/492/485 421/496/485
f 429/494/486 413/493/486 428/499/486
f 407/495/487 421/496/487 422/503/487
f 430/497/488 414/469/488 429/494/488
f 423/483/489 407/495/489 422/503/489
f 435/498/490 419/490/490 434/514/490
f 428/499/491 442/500/491 443/525/491
f 436/501/492 420/492/492 435/498/492
f 444/502/493 428/499/493 443/525/493
f 422/503/494 436/501/494 437/528/494
f 430/497/495 444/502/495 445/530/495
f 438/504/496 422/503/496 437/528/496
f 446/505/497 430/497/497 445/530/497
f 424/506/498 438/504/498 439/515/498
f 447/507/499 431/480/499 446/505/499
f 440/508/500 424/506/500 439/515/581
f 441/512/503 425/485/503 440/508/582
f 434/514/504 418/487/504 433/510/504
f 442/500/505 426/513/505 441/512/505
f 439/515/506 453/516/506 454/540/506
f 462/517/507 446/505/507 461/539/507
f 455/518/508 439/515/508 454/540/508
f 456/522/512 440/508/512 455/518/583
f 434/514/514 448/520/514 449/548/514
f 457/523/515 441/512/515 456/522/515
f 450/524/516 434/514/516 449/548/516
f 443/525/518 457/523/518 458/531/518
f 451/526/519 435/498/519 450/524/519
f 459/527/520 443/525/520 458/531/520
f 437/528/521 451/526/521 452/535/521
f 460/529/522 444/502/522 459/527/522
f 453/516/523 437/528/523 452/535/523
f 446/505/524 460/529/524 461/539/524
f 458/531/526 472/532/526 473/553/526
f 466/533/527 450/524/527 465/549/527
f 474/534/528 458/531/528 473/553/528
f 452/535/529 466/533/529 467/554/529
f 475/536/530 459/527/530 474/534/530
f 468/537/531 452/535/531 467/554/531
f 476/538/532 460/529/532 475/536/584
f 454/540/533 468/537/533 469/550/533
f 477/541/534 461/539/534 476/538/534
f 470/542/535 454/540/535 469/550/535
f 471/546/538 455/518/538 470/542/538
f 464/547/539 448/520/539 463/544/539
f 472/532/540 456/522/540 471/546/540
f 465/549/541 449/548/541 464/547/541
f 482/2/543 476/538/543 481/3/543
f 470/542/544 7/6/544 8/5/544
f 9/12/548 470/542/548 8/5/548
f 464/547/550 1/7/550 2/13/550
f 478/15/551 471/546/551 9/12/551
f 465/549/552 2/13/552 3/16/552
f 473/553/553 478/15/553 479/19/553
f 466/533/554 3/16/554 4/21/554
f 480/23/555 473/553/555 479/19/555
f 467/554/556 4/21/556 5/25/556
f 10/27/557 474/534/557 480/23/557
f 468/537/558 5/25/558 6/28/558
f 481/3/559 475/536/559 10/27/559
f 469/550/560 6/28/560 7/6/560
